SplineFontDB: 3.0
FontName: KeterYG-Medium
FullName: Keter YG Medium
FamilyName: Keter YG
Weight: Medium
Copyright: Copyright 2009 by Yoram Gnat (yoram.gnat@gmail.com)\nDistributed under the terms of GNU General Public License version 2(http://www.gnu.org/licenses/gpl.html). \n\nHebrew OpenType Layout logic copyright (c) 2003 & 2007, Ralph Hancock & John Hudson. This layout logic for Biblical Hebrew is open source software under the MIT License; for details  contact copyright holders at <license@tiro.com>.\n\nAs a special exception, if you create a document which uses this font, and embed this font or unaltered portions of this font into the document, this font does not by itself cause the resulting document to be covered by the GNU General Public License. This exception does not however invalidate any other reasons why the document might be covered by the GNU General Public License. If you modify this font, you may extend this exception to your version of the font, but you are not obligated to do so. If you do not wish to do so, delete this exception statement from your version.
Version: 0.103.1yg
ItalicAngle: 0
UnderlinePosition: -170
UnderlineWidth: 70
Ascent: 1638
Descent: 410
LayerCount: 2
Layer: 0 0 "Back"  1
Layer: 1 0 "Fore"  0
XUID: [1021 594 1227166039 1121043]
FSType: 0
OS2Version: 0
OS2_WeightWidthSlopeOnly: 0
OS2_UseTypoMetrics: 0
CreationTime: 1244295734
ModificationTime: 1345830627
PfmFamily: 17
TTFWeight: 500
TTFWidth: 5
LineGap: 184
VLineGap: 0
Panose: 2 0 0 0 0 0 0 0 0 0
OS2TypoAscent: 0
OS2TypoAOffset: 1
OS2TypoDescent: 0
OS2TypoDOffset: 1
OS2TypoLinegap: 184
OS2WinAscent: 0
OS2WinAOffset: 1
OS2WinDescent: 0
OS2WinDOffset: 1
HheadAscent: 0
HheadAOffset: 1
HheadDescent: 0
HheadDOffset: 1
OS2SubXSize: 1433
OS2SubYSize: 1331
OS2SubXOff: 0
OS2SubYOff: 286
OS2SupXSize: 1433
OS2SupYSize: 1331
OS2SupXOff: 0
OS2SupYOff: 976
OS2StrikeYSize: 102
OS2StrikeYPos: 512
OS2Vendor: 'YGNT'
OS2CodePages: 00000021.00000000

StartChar: .notdef
Encoding: 65536 -1 0
Width: 942
GlyphClass: 2
Flags: W
HStem: 0 98<110 799> 178 171<295.583 440.569> 1035 118<279.184 457.277> 1313 99<110 799>
VStem: 27 83<98 1313> 285 167<187.19 338.677> 295 70<534.765 646.102> 530 60<829.096 977.948> 799 83<98 1313>
LayerCount: 2
Fore
SplineSet
337 1153 m 0xfb80
 464 1153 590 1002 590 851 c 1
 590 783 571 738 533 718 c 2
 417 657 l 2
 383 638 365 617 365 594 c 0
 365 568 370 538 379 506 c 1
 379 493 357 489 348 498 c 1
 313 561 295 611 295 646 c 0
 295 687 322 722 375 751 c 2
 449 790 l 2
 503 819 530 855 530 896 c 0
 530 989 462 1035 326 1035 c 0
 294 1035 278 1056 278 1096 c 0
 278 1134 298 1153 337 1153 c 0xfb80
368 349 m 0
 419 349 452 306 452 260 c 0
 452 207 413 178 368 178 c 0
 316 178 285 219 285 260 c 0xfd80
 285 312 320 349 368 349 c 0
799 98 m 1
 799 1313 l 1
 110 1313 l 1
 110 98 l 1
 799 98 l 1
882 1412 m 1
 882 0 l 1
 27 0 l 1
 27 1412 l 1
 882 1412 l 1
EndSplineSet
Validated: 1
EndChar

StartChar: dotnosp
Encoding: 775 775 3
Width: 0
GlyphClass: 4
Flags: W
HStem: 1308 217<-75.0794 74.6606>
VStem: -92 184<1322.9 1510.38>
AnchorPoint: "A-23" 0 0 mark 0
AnchorPoint: "A-0" 0 0 mark 0
LayerCount: 2
Fore
SplineSet
0 1308 m 256
 -51 1308 -92 1353 -92 1417 c 256
 -92 1481 -51 1525 0 1525 c 256
 54 1525 92 1477 92 1417 c 0
 92 1353 51 1308 0 1308 c 256
EndSplineSet
Validated: 1
LCarets2: 1 0 
EndChar

StartChar: dieresisnosp
Encoding: 776 776 4
Width: 0
GlyphClass: 4
Flags: W
HStem: 1310 213<-286.316 -138.911 138.617 286.022>
VStem: -303 181<1324.81 1508.69> 122 181<1324.81 1508.69>
AnchorPoint: "A-1" 0 0 mark 0
LayerCount: 2
Fore
SplineSet
-212 1310 m 256
 -267 1310 -303 1359 -303 1417 c 256
 -303 1480 -263 1523 -212 1523 c 256
 -159 1523 -122 1476 -122 1417 c 256
 -122 1355 -162 1310 -212 1310 c 256
212 1310 m 256
 158 1310 122 1359 122 1417 c 256
 122 1480 162 1523 212 1523 c 256
 266 1523 303 1476 303 1417 c 256
 303 1355 263 1310 212 1310 c 256
EndSplineSet
Validated: 1
EndChar

StartChar: ringnosp
Encoding: 778 778 5
Width: 0
GlyphClass: 4
Flags: W
HStem: 1234 66<-70.4203 69.433> 1533 66<-69.5936 70.1413>
VStem: -157 60<1330.39 1502.39> 97 61<1329.95 1505.04>
AnchorPoint: "A-2" 0.0751953 0 mark 0
LayerCount: 2
Fore
SplineSet
0 1234 m 0
 -99 1234 -157 1321 -157 1416 c 256
 -157 1514 -97 1599 0 1599 c 256
 91 1599 158 1521 158 1416 c 0
 158 1319 94 1234 0 1234 c 0
0 1533 m 256
 -66 1533 -97 1476 -97 1416 c 0
 -97 1360 -68 1300 0 1300 c 256
 68 1300 97 1360 97 1416 c 0
 97 1477 66 1533 0 1533 c 256
EndSplineSet
Validated: 1
EndChar

StartChar: atnah
Encoding: 1425 1425 7
Width: 0
GlyphClass: 4
Flags: W
HStem: -585 421
VStem: -153 72<-585 -392.05> -37 73<-305.878 -164> 80 72<-585 -391.344>
CounterMasks: 1 70
AnchorPoint: "A-42" -191.325 0 mark 0
AnchorPoint: "A-54" -331.575 0 basemark 0
AnchorPoint: "A-53" -382.575 0 basemark 0
AnchorPoint: "A-52" -382.575 0 basemark 0
AnchorPoint: "A-51" -382.575 0 basemark 0
AnchorPoint: "A-52" -0.0751953 0 mark 0
AnchorPoint: "A-50" -382.575 0 basemark 0
AnchorPoint: "A-49" -297.575 0 basemark 0
AnchorPoint: "A-44" 50.9248 0 mark 0
AnchorPoint: "A-40" -0.0751953 0 mark 0
LayerCount: 2
Fore
SplineSet
-153 -511 m 0
 -153 -320 -62 -300 -37 -294 c 1
 -37 -164 l 1
 36 -164 l 1
 36 -294 l 1
 122 -313 152 -388 152 -503 c 0
 152 -511 148 -536 148 -585 c 1
 76 -585 l 1
 76 -570 80 -555 80 -517 c 0
 80 -439 65 -373 -0 -373 c 0
 -63 -373 -81 -432 -81 -511 c 0
 -81 -526 -81 -548 -77 -585 c 1
 -149 -585 l 1
 -149 -559 -153 -540 -153 -511 c 0
EndSplineSet
Validated: 1
LCarets2: 1 0 
MultipleSubs2: "Add hairspace after last low mark subtable" atnah hairspace
MultipleSubs2: "Add thinspace before narrow letter subtable" atnah thinspace
MultipleSubs2: "Add hairspace before low marked Qof" atnah hairspace
EndChar

StartChar: segolta
Encoding: 1426 1426 8
Width: 0
GlyphClass: 4
Flags: W
HStem: 1222 164<-180.963 -55.037 55.037 180.963> 1466 164<-62.963 62.963>
VStem: -188 140<1227.22 1380.78> -70 140<1471.22 1624.78> 48 140<1227.22 1380.78>
AnchorPoint: "A-55" -127.5 0 mark 0
AnchorPoint: "A-36" 0 0 mark 0
AnchorPoint: "A-35" 0 0 mark 0
AnchorPoint: "A-57" -425 0 basemark 0
AnchorPoint: "A-56" 0 0 basemark 0
AnchorPoint: "A-57" 0 0 mark 0
AnchorPoint: "A-25" 0 0 mark 0
LayerCount: 2
Fore
SplineSet
-118 1222 m 256xe0
 -160 1222 -188 1258 -188 1304 c 256
 -188 1353 -157 1386 -118 1386 c 256
 -76 1386 -48 1350 -48 1304 c 256
 -48 1255 -79 1222 -118 1222 c 256xe0
0 1466 m 256
 -42 1466 -70 1502 -70 1548 c 256
 -70 1597 -39 1630 0 1630 c 256
 42 1630 70 1594 70 1548 c 256xd0
 70 1499 39 1466 0 1466 c 256
118 1222 m 256
 76 1222 48 1258 48 1304 c 256
 48 1353 79 1386 118 1386 c 256
 160 1386 188 1350 188 1304 c 256xc8
 188 1255 157 1222 118 1222 c 256
EndSplineSet
Validated: 1
LCarets2: 1 0 
EndChar

StartChar: shalshelet
Encoding: 1427 1427 9
Width: 0
GlyphClass: 4
Flags: W
HStem: 1207 449
VStem: -110 220
AnchorPoint: "A-55" 0.0751953 0 mark 0
AnchorPoint: "A-57" -424.925 0 basemark 0
AnchorPoint: "A-56" 0.0751953 0 basemark 0
AnchorPoint: "A-57" 0.0751953 0 mark 0
AnchorPoint: "A-23" 0.0751953 0 mark 0
LayerCount: 2
Fore
SplineSet
110 1475 m 1
 -24 1388 l 1
 114 1301 l 1
 -25 1207 l 1
 -110 1207 l 1
 30 1301 l 1
 -110 1388 l 1
 25 1475 l 1
 -113 1562 l 1
 26 1656 l 1
 110 1656 l 1
 -28 1562 l 1
 110 1475 l 1
EndSplineSet
Validated: 1
LCarets2: 1 0 
EndChar

StartChar: zaqefqatan
Encoding: 1428 1428 10
Width: 0
GlyphClass: 4
Flags: W
HStem: 1222 164<-62.963 62.963> 1476 164<-62.963 62.963>
VStem: -70 140<1227.22 1380.78 1481.22 1634.78>
AnchorPoint: "A-55" 0 0 mark 0
AnchorPoint: "A-57" -425 0 basemark 0
AnchorPoint: "A-56" 0 0 basemark 0
AnchorPoint: "A-57" 0 0 mark 0
AnchorPoint: "A-23" 0 0 mark 0
LayerCount: 2
Fore
SplineSet
0 1222 m 256
 -42 1222 -70 1258 -70 1304 c 256
 -70 1353 -39 1386 0 1386 c 256
 42 1386 70 1350 70 1304 c 256
 70 1255 39 1222 0 1222 c 256
0 1476 m 256
 -42 1476 -70 1512 -70 1558 c 256
 -70 1607 -39 1640 0 1640 c 256
 42 1640 70 1604 70 1558 c 256
 70 1509 39 1476 0 1476 c 256
EndSplineSet
Validated: 1
LCarets2: 1 0 
EndChar

StartChar: zaqefgadol
Encoding: 1429 1429 11
Width: 0
GlyphClass: 4
Flags: W
HStem: 1222 164<28.037 152.617> 1476 164<28.037 152.617>
VStem: -119 72<1237 1635> 21 139<1227.22 1380.78 1481.22 1634.78>
AnchorPoint: "A-55" -56.4248 0 mark 0
AnchorPoint: "A-57" -421.925 0 basemark 0
AnchorPoint: "A-56" 3.0752 0 basemark 0
AnchorPoint: "A-57" 3.0752 0 mark 0
AnchorPoint: "A-23" 3.0752 0 mark 0
LayerCount: 2
Fore
SplineSet
91 1222 m 256
 49 1222 21 1258 21 1304 c 256
 21 1353 52 1386 91 1386 c 256
 132 1386 160 1350 160 1304 c 256
 160 1255 130 1222 91 1222 c 256
91 1476 m 256
 49 1476 21 1512 21 1558 c 256
 21 1607 52 1640 91 1640 c 256
 132 1640 160 1604 160 1558 c 256
 160 1509 130 1476 91 1476 c 256
-47 1237 m 1
 -119 1237 l 1
 -119 1635 l 1
 -47 1635 l 1
 -47 1237 l 1
EndSplineSet
Validated: 1
LCarets2: 1 3 
EndChar

StartChar: tipeha
Encoding: 1430 1430 12
Width: 0
GlyphClass: 4
Flags: W
HStem: -587 410
VStem: -37 75<-463.255 -177>
AnchorPoint: "A-42" -183.675 0 mark 0
AnchorPoint: "A-54" -213.425 0 basemark 0
AnchorPoint: "A-53" -264.425 0 basemark 0
AnchorPoint: "A-52" -264.425 0 basemark 0
AnchorPoint: "A-51" -264.425 0 basemark 0
AnchorPoint: "A-51" 7.5752 0 mark 0
AnchorPoint: "A-50" -281.425 0 basemark 0
AnchorPoint: "A-49" -204.925 0 basemark 0
AnchorPoint: "A-43" 7.5752 0 mark 0
AnchorPoint: "A-40" 7.5752 0 mark 0
LayerCount: 2
Fore
SplineSet
38 -353 m 1
 38 -442 74 -477 138 -500 c 1
 138 -587 l 1
 35 -562 -37 -493 -37 -350 c 0
 -37 -282 -28 -194 -26 -177 c 1
 49 -177 l 1
 49 -177 38 -328 38 -353 c 1
EndSplineSet
Validated: 1
LCarets2: 1 8 
MultipleSubs2: "Add hairspace after last low mark subtable" tipeha hairspace
MultipleSubs2: "Add thinspace before narrow letter subtable" tipeha thinspace
MultipleSubs2: "Add hairspace before low marked Qof" tipeha hairspace
EndChar

StartChar: revia
Encoding: 1431 1431 13
Width: 0
GlyphClass: 4
Flags: W
HStem: 1213 288
VStem: -103 207
AnchorPoint: "A-55" 0.0751953 0 mark 0
AnchorPoint: "A-57" -424.925 0 basemark 0
AnchorPoint: "A-56" 0.0751953 0 basemark 0
AnchorPoint: "A-57" 0.0751953 0 mark 0
AnchorPoint: "A-23" 0.0751953 0 mark 0
LayerCount: 2
Fore
SplineSet
-3 1501 m 1
 104 1353 l 1
 4 1213 l 1
 -103 1356 l 1
 -3 1501 l 1
EndSplineSet
Validated: 1
LCarets2: 1 0 
EndChar

StartChar: zarqa
Encoding: 1432 1432 14
Width: 0
GlyphClass: 4
Flags: W
HStem: 1249 80<52.9006 149.719> 1447 78<-148.533 -51.7697>
VStem: -225 71<1323.22 1443.21> 154 71<1333 1451.94>
AnchorPoint: "A-55" -127.5 0 mark 0
AnchorPoint: "A-57" -425 0 basemark 0
AnchorPoint: "A-56" 0 0 basemark 0
AnchorPoint: "A-57" 0 0 mark 0
AnchorPoint: "A-31" 0 0 mark 0
LayerCount: 2
Fore
SplineSet
154 1394 m 0
 154 1427 133 1447 112 1457 c 1
 112 1546 l 1
 160 1530 225 1476 225 1395 c 1
 225 1304 166 1249 105 1249 c 0
 31 1249 -3 1314 -27 1362 c 2
 -42 1392 l 2
 -67 1441 -89 1447 -102 1447 c 0
 -131 1447 -154 1420 -154 1381 c 0
 -154 1355 -140 1330 -108 1317 c 1
 -108 1230 l 1
 -178 1254 -225 1315 -225 1380 c 1
 -225 1467 -169 1525 -104 1525 c 0
 -41 1525 -6 1480 28 1413 c 2
 44 1382 l 1
 63 1349 79 1329 102 1329 c 0
 131 1329 154 1356 154 1394 c 0
EndSplineSet
Validated: 1
LCarets2: 1 0 
EndChar

StartChar: pashta
Encoding: 1433 1433 15
Width: 0
GlyphClass: 4
Flags: W
HStem: 1232 410
VStem: -371 75<1232 1518.25>
AnchorPoint: "A-34" -57.5254 0 mark 0
AnchorPoint: "A-29" -74.5254 0 mark 0
LayerCount: 2
Fore
SplineSet
-371 1408 m 1
 -371 1497 -407 1532 -471 1555 c 1
 -471 1642 l 1
 -368 1617 -296 1548 -296 1405 c 0
 -296 1337 -305 1249 -307 1232 c 1
 -382 1232 l 1
 -382 1232 -371 1383 -371 1408 c 1
EndSplineSet
Validated: 1
LCarets2: 1 -58 
EndChar

StartChar: yetiv
Encoding: 1434 1434 16
Width: 0
GlyphClass: 4
Flags: W
HStem: -587 416
VStem: 349 277
AnchorPoint: "A-69" 200.625 0 mark 0
AnchorPoint: "A-68" 98.625 0 mark 0
AnchorPoint: "A-67" 5.125 0 mark 0
AnchorPoint: "A-66" 149.625 0 mark 0
AnchorPoint: "A-65" 39.125 0 mark 0
AnchorPoint: "A-64" -71.375 0 mark 0
AnchorPoint: "A-47" 90.125 0 mark 0
AnchorPoint: "A-41" 73.125 0 mark 0
LayerCount: 2
Fore
SplineSet
626 -515 m 1
 576 -587 l 1
 349 -379 l 1
 576 -171 l 1
 626 -243 l 1
 463 -376 l 1
 626 -515 l 1
EndSplineSet
Validated: 1
LCarets2: 1 73 
MultipleSubs2: "Add thinspace before narrow letter subtable" yetiv thinspace
EndChar

StartChar: tevir
Encoding: 1435 1435 17
Width: 0
GlyphClass: 4
Flags: W
HStem: -411 154<-147.949 -29.5852>
VStem: -154 131<-406.902 -261.295> 51 74<-463.255 -177>
AnchorPoint: "A-42" -193.425 0 mark 0
AnchorPoint: "A-54" -299.675 0 basemark 0
AnchorPoint: "A-53" -376.175 0 basemark 0
AnchorPoint: "A-52" -350.675 0 basemark 0
AnchorPoint: "A-51" -350.675 0 basemark 0
AnchorPoint: "A-51" -2.1748 0 mark 0
AnchorPoint: "A-50" -401.675 0 basemark 0
AnchorPoint: "A-49" -282.675 0 basemark 0
AnchorPoint: "A-44" 48.8252 0 mark 0
AnchorPoint: "A-40" -2.1748 0 mark 0
LayerCount: 2
Fore
SplineSet
51 -353 m 1
 51 -328 39 -177 39 -177 c 1
 115 -177 l 1
 117 -194 125 -282 125 -350 c 0
 125 -493 54 -562 -49 -587 c 1
 -49 -500 l 1
 15 -477 51 -442 51 -353 c 1
-89 -411 m 0
 -128 -411 -154 -376 -154 -334 c 0
 -154 -292 -127 -257 -89 -257 c 0
 -50 -257 -23 -294 -23 -334 c 0
 -23 -379 -53 -411 -89 -411 c 0
EndSplineSet
Validated: 1
LCarets2: 1 -2 
MultipleSubs2: "Add hairspace after last low mark subtable" tevir hairspace
MultipleSubs2: "Add thinspace before narrow letter subtable" tevir thinspace
MultipleSubs2: "Add hairspace before low marked Qof" tevir hairspace
EndChar

StartChar: gereshaccent
Encoding: 1436 1436 18
Width: 0
GlyphClass: 4
Flags: W
HStem: 1233 410
VStem: -38 75<1233 1519.25>
AnchorPoint: "A-55" 7.4248 0 mark 0
AnchorPoint: "A-57" -417.575 0 basemark 0
AnchorPoint: "A-56" 7.4248 0 basemark 0
AnchorPoint: "A-57" 7.4248 0 mark 0
AnchorPoint: "A-23" 7.4248 0 mark 0
LayerCount: 2
Fore
SplineSet
37 1409 m 1
 37 1384 48 1233 48 1233 c 1
 -27 1233 l 1
 -29 1250 -38 1338 -38 1406 c 0
 -38 1549 34 1618 137 1643 c 1
 137 1556 l 1
 73 1533 37 1498 37 1409 c 1
EndSplineSet
Validated: 1
LCarets2: 1 7 
EndChar

StartChar: gereshmuqdam
Encoding: 1437 1437 19
Width: 0
GlyphClass: 4
Flags: W
HStem: 1231 410
VStem: 295 75<1231 1517.25>
AnchorPoint: "A-27" 57.375 0 mark 0
LayerCount: 2
Fore
SplineSet
370 1407 m 1
 370 1382 381 1231 381 1231 c 1
 306 1231 l 1
 304 1248 295 1336 295 1404 c 0
 295 1547 367 1616 470 1641 c 1
 470 1554 l 1
 406 1531 370 1496 370 1407 c 1
EndSplineSet
Validated: 1
LCarets2: 1 57 
EndChar

StartChar: gershayimaccent
Encoding: 1438 1438 20
Width: 0
GlyphClass: 4
Flags: W
HStem: 1231 410
VStem: -133 75<1231 1517.25> 62 75<1231 1517.71>
AnchorPoint: "A-55" -77.2002 0 mark 0
AnchorPoint: "A-57" -417.2 0 basemark 0
AnchorPoint: "A-56" -697.7 0 basemark 0
AnchorPoint: "A-57" 7.7998 0 mark 0
AnchorPoint: "A-23" 7.7998 0 mark 0
LayerCount: 2
Fore
SplineSet
-58 1407 m 1
 -58 1382 -47 1231 -47 1231 c 1
 -123 1231 l 1
 -125 1248 -133 1336 -133 1404 c 0
 -133 1547 -62 1616 42 1641 c 1
 42 1554 l 1
 -23 1531 -58 1496 -58 1407 c 1
137 1408 m 1
 137 1382 149 1231 149 1231 c 1
 72 1231 l 1
 72 1247 62 1336 62 1404 c 0
 62 1548 134 1616 237 1642 c 1
 237 1554 l 1
 173 1532 137 1496 137 1408 c 1
EndSplineSet
Validated: 1
LCarets2: 1 8 
EndChar

StartChar: qarneypara
Encoding: 1439 1439 21
Width: 0
GlyphClass: 4
Flags: W
HStem: 1311 68<-294.956 -152.163 152.163 294.956> 1627 69<-295.386 -152.846 152.846 295.386>
VStem: -388 62<1412.63 1592.82> -122 62<1412.64 1593.93> 60 62<1412.58 1593.93> 326 62<1412.63 1592.82>
AnchorPoint: "A-55" -323 0 mark 0
AnchorPoint: "A-57" -425 0 basemark 0
AnchorPoint: "A-56" 0 0 basemark 0
AnchorPoint: "A-57" 0 0 mark 0
AnchorPoint: "A-32" 0 0 mark 0
LayerCount: 2
Fore
SplineSet
388 1503 m 256
 388 1400 322 1311 224 1311 c 0
 188 1311 156 1323 130 1347 c 1
 0 1199 l 1
 -130 1347 l 1
 -156 1323 -188 1311 -224 1311 c 0
 -322 1311 -388 1400 -388 1503 c 256
 -388 1603 -324 1696 -224 1696 c 256
 -126 1696 -60 1608 -60 1503 c 0
 -60 1457 -72 1423 -90 1395 c 1
 0 1295 l 1
 90 1395 l 1
 79 1412 60 1449 60 1503 c 0
 60 1608 126 1696 224 1696 c 256
 324 1696 388 1603 388 1503 c 256
-224 1379 m 0
 -160 1379 -122 1438 -122 1503 c 256
 -122 1568 -160 1627 -224 1627 c 0
 -287 1627 -326 1568 -326 1503 c 0
 -326 1438 -287 1379 -224 1379 c 0
224 1627 m 0
 160 1627 122 1568 122 1503 c 256
 122 1438 160 1379 224 1379 c 0
 287 1379 326 1438 326 1503 c 0
 326 1568 287 1627 224 1627 c 0
EndSplineSet
Validated: 1
LCarets2: 1 0 
EndChar

StartChar: telishagedola
Encoding: 1440 1440 22
Width: 0
GlyphClass: 4
Flags: W
HStem: 1311 68<337.226 471.956> 1627 69<329.846 472.386>
VStem: 237 62<1412.32 1593.93> 503 62<1412.63 1592.82>
AnchorPoint: "A-55" 228.875 0 mark 0
AnchorPoint: "A-39" 347.875 0 mark 0
AnchorPoint: "A-57" -366.125 0 basemark 0
AnchorPoint: "A-56" 58.875 0 basemark 0
AnchorPoint: "A-56" 58.875 0 mark 0
AnchorPoint: "A-26" 228.875 0 mark 0
LayerCount: 2
Fore
SplineSet
401 1627 m 0
 337 1627 299 1568 299 1503 c 256
 299 1438 337 1379 401 1379 c 0
 464 1379 503 1438 503 1503 c 0
 503 1568 464 1627 401 1627 c 0
295 1358 m 1
 266 1389 237 1435 237 1503 c 0
 237 1608 303 1696 401 1696 c 256
 501 1696 565 1603 565 1503 c 256
 565 1400 499 1311 401 1311 c 0
 390 1311 367 1316 344 1324 c 1
 278 1178 l 1
 220 1217 l 1
 295 1358 l 1
EndSplineSet
Validated: 1
LCarets2: 1 59 
EndChar

StartChar: pazer
Encoding: 1441 1441 23
Width: 0
GlyphClass: 4
Flags: W
HStem: 1340 78<9 100.591>
VStem: -64 73<1237 1346 1418 1635> 116 73<1431.05 1633>
AnchorPoint: "A-55" -24.625 0 mark 0
AnchorPoint: "A-57" -415.625 0 basemark 0
AnchorPoint: "A-56" 9.375 0 basemark 0
AnchorPoint: "A-57" 9.375 0 mark 0
AnchorPoint: "A-23" 9.375 0 mark 0
LayerCount: 2
Fore
SplineSet
189 1551 m 0
 189 1440 155 1340 54 1340 c 0
 40 1340 26 1342 9 1346 c 1
 9 1237 l 1
 -64 1237 l 1
 -64 1635 l 1
 9 1635 l 1
 9 1422 l 1
 19 1419 29 1418 40 1418 c 0
 101 1418 116 1476 116 1550 c 0
 116 1565 115 1597 111 1633 c 1
 184 1633 l 1
 187 1608 189 1580 189 1551 c 0
EndSplineSet
Validated: 1
LCarets2: 1 9 
EndChar

StartChar: atnahhafukh
Encoding: 1442 1442 24
Width: 0
GlyphClass: 4
Flags: W
HStem: -595 421
VStem: -152 72<-367.656 -174> -36 73<-595 -453.122> 81 72<-366.95 -174>
CounterMasks: 1 70
AnchorPoint: "A-42" -191.175 0 mark 0
AnchorPoint: "A-54" -331.425 0 basemark 0
AnchorPoint: "A-53" -382.425 0 basemark 0
AnchorPoint: "A-52" -382.425 0 basemark 0
AnchorPoint: "A-51" -382.425 0 basemark 0
AnchorPoint: "A-52" 0.0751953 0 mark 0
AnchorPoint: "A-50" -382.425 0 basemark 0
AnchorPoint: "A-49" -297.425 0 basemark 0
AnchorPoint: "A-44" 51.0752 0 mark 0
AnchorPoint: "A-40" 0.0751953 0 mark 0
LayerCount: 2
Fore
SplineSet
153 -248 m 0
 153 -439 62 -459 37 -465 c 1
 37 -595 l 1
 -36 -595 l 1
 -36 -465 l 1
 -122 -446 -152 -371 -152 -256 c 0
 -152 -248 -148 -223 -148 -174 c 1
 -76 -174 l 1
 -76 -189 -80 -204 -80 -242 c 0
 -80 -320 -65 -386 0 -386 c 0
 63 -386 81 -327 81 -248 c 0
 81 -233 81 -211 77 -174 c 1
 149 -174 l 1
 149 -200 153 -219 153 -248 c 0
EndSplineSet
Validated: 1
MultipleSubs2: "Add hairspace after last low mark subtable" atnahhafukh hairspace
MultipleSubs2: "Add thinspace before narrow letter subtable" atnahhafukh thinspace
MultipleSubs2: "Add hairspace before low marked Qof" atnahhafukh hairspace
EndChar

StartChar: munah
Encoding: 1443 1443 25
Width: 0
GlyphClass: 4
Flags: W
HStem: -572 85<-116 53>
VStem: 53 73<-487 -183>
AnchorPoint: "A-42" -190.5 0 mark 0
AnchorPoint: "A-54" -279.75 0 basemark 0
AnchorPoint: "A-53" -330.75 0 basemark 0
AnchorPoint: "A-52" -330.75 0 basemark 0
AnchorPoint: "A-51" -330.75 0 basemark 0
AnchorPoint: "A-52" 0.75 0 mark 0
AnchorPoint: "A-50" -288.25 0 basemark 0
AnchorPoint: "A-49" -211.75 0 basemark 0
AnchorPoint: "A-45" 51.75 0 mark 0
AnchorPoint: "A-40" 0.75 0 mark 0
LayerCount: 2
Fore
SplineSet
126 -572 m 1
 -116 -572 l 1
 -116 -487 l 1
 53 -487 l 1
 53 -183 l 1
 126 -183 l 1
 126 -572 l 1
EndSplineSet
Validated: 1
LCarets2: 1 1 
MultipleSubs2: "Add hairspace after last low mark subtable" munah hairspace
MultipleSubs2: "Add thinspace before narrow letter subtable" munah thinspace
MultipleSubs2: "Add hairspace before low marked Qof" munah hairspace
EndChar

StartChar: mahapakh
Encoding: 1444 1444 26
Width: 0
GlyphClass: 4
Flags: W
HStem: -587 416
VStem: -143 277
AnchorPoint: "A-42" -191.925 0 mark 0
AnchorPoint: "A-54" -289.675 0 basemark 0
AnchorPoint: "A-53" -340.675 0 basemark 0
AnchorPoint: "A-52" -340.675 0 basemark 0
AnchorPoint: "A-51" -340.675 0 basemark 0
AnchorPoint: "A-52" -0.674805 0 mark 0
AnchorPoint: "A-50" -357.675 0 basemark 0
AnchorPoint: "A-49" -298.175 0 basemark 0
AnchorPoint: "A-44" 50.3252 0 mark 0
AnchorPoint: "A-40" -0.674805 0 mark 0
LayerCount: 2
Fore
SplineSet
134 -515 m 1
 84 -587 l 1
 -143 -379 l 1
 84 -171 l 1
 134 -243 l 1
 -29 -376 l 1
 134 -515 l 1
EndSplineSet
Validated: 1
LCarets2: 1 -1 
MultipleSubs2: "Add hairspace after last low mark subtable" mahapakh hairspace
MultipleSubs2: "Add thinspace before narrow letter subtable" mahapakh thinspace
MultipleSubs2: "Add hairspace before low marked Qof" mahapakh hairspace
EndChar

StartChar: merkha
Encoding: 1445 1445 27
Width: 0
GlyphClass: 4
Flags: W
HStem: -584 410
VStem: -38 75<-460.77 -174>
AnchorPoint: "A-42" -198.75 0 mark 0
AnchorPoint: "A-54" -330.5 0 basemark 0
AnchorPoint: "A-53" -381.5 0 basemark 0
AnchorPoint: "A-52" -381.5 0 basemark 0
AnchorPoint: "A-51" -381.5 0 basemark 0
AnchorPoint: "A-51" -75.5 0 mark 0
AnchorPoint: "A-50" -313.5 0 basemark 0
AnchorPoint: "A-49" -305 0 basemark 0
AnchorPoint: "A-43" -50 0 mark 0
AnchorPoint: "A-40" -7.5 0 mark 0
LayerCount: 2
Fore
SplineSet
-38 -350 m 1
 -38 -326 -48 -174 -48 -174 c 1
 26 -174 l 1
 28 -192 37 -280 37 -348 c 0
 37 -490 -35 -560 -137 -584 c 1
 -137 -498 l 1
 -74 -474 -38 -440 -38 -350 c 1
EndSplineSet
Validated: 1
LCarets2: 1 -7 
MultipleSubs2: "Add hairspace after last low mark subtable" merkha hairspace
MultipleSubs2: "Add thinspace before narrow letter subtable" merkha thinspace
MultipleSubs2: "Add hairspace before low marked Qof" merkha hairspace
EndChar

StartChar: merkhakefula
Encoding: 1446 1446 28
Width: 0
GlyphClass: 4
Flags: W
HStem: -587 410
VStem: -139 75<-464.69 -177> 58 74<-464.654 -178>
AnchorPoint: "A-42" -199.125 0 mark 0
AnchorPoint: "A-54" -415.875 0 basemark 0
AnchorPoint: "A-53" -466.875 0 basemark 0
AnchorPoint: "A-52" -466.875 0 basemark 0
AnchorPoint: "A-51" -466.875 0 basemark 0
AnchorPoint: "A-53" -7.875 0 mark 0
AnchorPoint: "A-50" -407.375 0 basemark 0
AnchorPoint: "A-49" -347.875 0 basemark 0
AnchorPoint: "A-45" 43.125 0 mark 0
AnchorPoint: "A-40" -7.875 0 mark 0
LayerCount: 2
Fore
SplineSet
-139 -353 m 1
 -139 -329 -149 -177 -149 -177 c 1
 -74 -177 l 1
 -72 -195 -64 -283 -64 -351 c 0
 -64 -493 -135 -563 -237 -587 c 1
 -237 -501 l 1
 -174 -477 -139 -443 -139 -353 c 1
58 -354 m 1
 58 -330 47 -178 47 -178 c 1
 122 -178 l 1
 124 -196 132 -284 132 -352 c 0
 132 -494 61 -563 -41 -587 c 1
 -41 -502 l 1
 22 -478 58 -444 58 -354 c 1
EndSplineSet
Validated: 1
LCarets2: 1 -8 
MultipleSubs2: "Add hairspace after last low mark subtable" merkhakefula hairspace
MultipleSubs2: "Add thinspace before narrow letter subtable" merkhakefula thinspace
MultipleSubs2: "Add hairspace before low marked Qof" merkhakefula hairspace
EndChar

StartChar: darga
Encoding: 1447 1447 29
Width: 0
GlyphClass: 4
Flags: W
HStem: -593 81<-93 25.5469> -244 82<-23.8965 82>
VStem: -104 70<-330.681 -264.507> 34 70<-489.981 -421.232>
AnchorPoint: "A-42" -191.25 0 mark 0
AnchorPoint: "A-54" -272 0 basemark 0
AnchorPoint: "A-53" -323 0 basemark 0
AnchorPoint: "A-52" -323 0 basemark 0
AnchorPoint: "A-51" -323 0 basemark 0
AnchorPoint: "A-52" 0 0 mark 0
AnchorPoint: "A-50" -331.5 0 basemark 0
AnchorPoint: "A-49" -255 0 basemark 0
AnchorPoint: "A-43" 0 0 mark 0
AnchorPoint: "A-40" 0 0 mark 0
LayerCount: 2
Fore
SplineSet
58 -247 m 0
 10 -257 -34 -267 -34 -316 c 0
 -34 -326 90 -345 101 -400 c 0
 103 -409 104 -419 104 -432 c 0
 104 -541 44 -572 -93 -593 c 1
 -93 -512 l 1
 -12 -493 34 -499 34 -437 c 0
 34 -424 -90 -409 -101 -353 c 0
 -103 -344 -104 -334 -104 -321 c 1
 -104 -207 -42 -181 82 -162 c 1
 82 -244 l 1
 75 -246 71 -245 65 -247 c 0
 62 -247 60 -247 58 -247 c 0
EndSplineSet
Validated: 1
LCarets2: 1 0 
MultipleSubs2: "Add hairspace after last low mark subtable" darga hairspace
MultipleSubs2: "Add thinspace before narrow letter subtable" darga thinspace
MultipleSubs2: "Add hairspace before low marked Qof" darga hairspace
EndChar

StartChar: qadma
Encoding: 1448 1448 30
Width: 0
GlyphClass: 4
Flags: W
HStem: 1230 410
VStem: -39 75<1230 1516.25>
AnchorPoint: "A-55" -67.2246 0 mark 0
AnchorPoint: "A-57" -432.725 0 basemark 0
AnchorPoint: "A-56" -7.72461 0 basemark 0
AnchorPoint: "A-57" -7.72461 0 mark 0
AnchorPoint: "A-23" -7.72461 0 mark 0
LayerCount: 2
Fore
SplineSet
-39 1406 m 1
 -39 1495 -75 1530 -139 1553 c 1
 -139 1640 l 1
 -36 1615 36 1546 36 1403 c 0
 36 1335 27 1247 25 1230 c 1
 -50 1230 l 1
 -50 1230 -39 1381 -39 1406 c 1
EndSplineSet
Validated: 1
LCarets2: 1 -8 
EndChar

StartChar: telishaqetana
Encoding: 1449 1449 31
Width: 0
GlyphClass: 4
Flags: W
HStem: 1311 68<-471.956 -337.226> 1627 69<-472.386 -329.846>
VStem: -565 62<1412.63 1592.82> -299 62<1412.41 1593.93>
AnchorPoint: "A-55" -492.375 0 mark 0
AnchorPoint: "A-36" -347.875 0 mark 0
AnchorPoint: "A-57" -483.875 0 basemark 0
AnchorPoint: "A-56" -58.875 0 basemark 0
AnchorPoint: "A-57" -58.875 0 mark 0
AnchorPoint: "A-30" 26.125 0 mark 0
LayerCount: 2
Fore
SplineSet
-401 1379 m 0
 -337 1379 -299 1438 -299 1503 c 256
 -299 1568 -337 1627 -401 1627 c 0
 -464 1627 -503 1568 -503 1503 c 0
 -503 1438 -464 1379 -401 1379 c 0
-401 1696 m 256
 -303 1696 -237 1608 -237 1503 c 0
 -237 1450 -256 1399 -295 1358 c 1
 -220 1217 l 1
 -278 1178 l 1
 -344 1324 l 1
 -367 1316 -390 1311 -401 1311 c 0
 -499 1311 -565 1400 -565 1503 c 256
 -565 1603 -501 1696 -401 1696 c 256
EndSplineSet
Validated: 1
LCarets2: 1 -59 
EndChar

StartChar: yerahbenyomo
Encoding: 1450 1450 32
Width: 0
GlyphClass: 4
Flags: W
HStem: -596 421
VStem: -152 72<-368.656 -175> -36 73<-596 -454.122> 81 72<-367.95 -175>
CounterMasks: 1 70
AnchorPoint: "A-42" -191.175 0 mark 0
AnchorPoint: "A-54" -331.425 0 basemark 0
AnchorPoint: "A-53" -382.425 0 basemark 0
AnchorPoint: "A-52" -382.425 0 basemark 0
AnchorPoint: "A-51" -382.425 0 basemark 0
AnchorPoint: "A-52" 0.0751953 0 mark 0
AnchorPoint: "A-50" -399.425 0 basemark 0
AnchorPoint: "A-49" -339.925 0 basemark 0
AnchorPoint: "A-44" 51.0752 0 mark 0
AnchorPoint: "A-40" 0.0751953 0 mark 0
LayerCount: 2
Fore
SplineSet
153 -249 m 0
 153 -440 62 -460 37 -466 c 1
 37 -596 l 1
 -36 -596 l 1
 -36 -466 l 1
 -122 -447 -152 -372 -152 -257 c 0
 -152 -249 -148 -224 -148 -175 c 1
 -76 -175 l 1
 -76 -190 -80 -205 -80 -243 c 0
 -80 -321 -65 -387 0 -387 c 0
 63 -387 81 -328 81 -249 c 0
 81 -234 81 -212 77 -175 c 1
 149 -175 l 1
 149 -201 153 -220 153 -249 c 0
EndSplineSet
Validated: 1
LCarets2: 1 0 
MultipleSubs2: "Add hairspace after last low mark subtable" yerahbenyomo hairspace
MultipleSubs2: "Add thinspace before narrow letter subtable" yerahbenyomo thinspace
MultipleSubs2: "Add hairspace before low marked Qof" yerahbenyomo hairspace
EndChar

StartChar: ole
Encoding: 1451 1451 33
Width: 0
GlyphClass: 4
Flags: W
HStem: 1223 416
VStem: -86 277
AnchorPoint: "A-55" -51.625 0 mark 0
AnchorPoint: "A-57" -417.125 0 basemark 0
AnchorPoint: "A-56" 7.875 0 basemark 0
AnchorPoint: "A-57" 7.875 0 mark 0
AnchorPoint: "A-23" 7.875 0 mark 0
LayerCount: 2
Fore
SplineSet
191 1295 m 1
 141 1223 l 1
 -86 1431 l 1
 141 1639 l 1
 191 1567 l 1
 28 1434 l 1
 191 1295 l 1
EndSplineSet
Validated: 1
LCarets2: 1 8 
EndChar

StartChar: iluy
Encoding: 1452 1452 34
Width: 0
GlyphClass: 4
Flags: W
HStem: 1203 85<-120 58>
VStem: 58 72<1288 1592>
AnchorPoint: "A-55" -75.75 0 mark 0
AnchorPoint: "A-57" -424.25 0 basemark 0
AnchorPoint: "A-56" 0.75 0 basemark 0
AnchorPoint: "A-57" 0.75 0 mark 0
AnchorPoint: "A-23" 0.75 0 mark 0
LayerCount: 2
Fore
SplineSet
130 1203 m 1
 -120 1203 l 1
 -120 1288 l 1
 58 1288 l 1
 58 1592 l 1
 130 1592 l 1
 130 1203 l 1
EndSplineSet
Validated: 1
LCarets2: 1 1 
EndChar

StartChar: dehi
Encoding: 1453 1453 35
Width: 0
GlyphClass: 4
Flags: W
HStem: -590 410
VStem: 390 75<-466.255 -180>
AnchorPoint: "A-69" 173.625 0 mark 0
AnchorPoint: "A-68" 71.625 0 mark 0
AnchorPoint: "A-67" -13.375 0 mark 0
AnchorPoint: "A-66" 122.625 0 mark 0
AnchorPoint: "A-65" 12.125 0 mark 0
AnchorPoint: "A-64" -98.375 0 mark 0
AnchorPoint: "A-46" 71.625 0 mark 0
AnchorPoint: "A-41" 71.625 0 mark 0
LayerCount: 2
Fore
SplineSet
465 -356 m 1
 465 -445 501 -480 565 -503 c 1
 565 -590 l 1
 462 -565 390 -496 390 -353 c 0
 390 -285 399 -197 401 -180 c 1
 476 -180 l 1
 476 -180 465 -331 465 -356 c 1
EndSplineSet
Validated: 1
LCarets2: 1 72 
MultipleSubs2: "Add hairspace after last low mark subtable" dehi hairspace
MultipleSubs2: "Add thinspace before narrow letter subtable" dehi thinspace
EndChar

StartChar: tsinor
Encoding: 1454 1454 36
Width: 0
GlyphClass: 4
Flags: W
HStem: 1247 80<-426.099 -329.281> 1445 78<-627.533 -531.105>
VStem: -704 71<1321.22 1441.21> -325 71<1331 1449.94>
AnchorPoint: "A-33" -71.8496 0 mark 0
AnchorPoint: "A-28" -71.8496 0 mark 0
LayerCount: 2
Fore
SplineSet
-325 1392 m 0
 -325 1425 -346 1445 -367 1455 c 1
 -367 1544 l 1
 -319 1528 -254 1474 -254 1393 c 1
 -254 1302 -313 1247 -374 1247 c 0
 -448 1247 -482 1312 -506 1360 c 2
 -522 1390 l 2
 -546 1439 -568 1445 -581 1445 c 0
 -610 1445 -633 1418 -633 1379 c 0
 -633 1353 -619 1328 -587 1315 c 1
 -587 1228 l 1
 -658 1252 -704 1313 -704 1378 c 1
 -704 1465 -648 1523 -583 1523 c 0
 -520 1523 -485 1478 -451 1411 c 2
 -435 1380 l 1
 -416 1347 -400 1327 -377 1327 c 0
 -348 1327 -325 1354 -325 1392 c 0
EndSplineSet
Validated: 1
LCarets2: 1 -72 
EndChar

StartChar: masoracircle
Encoding: 1455 1455 37
Width: 0
GlyphClass: 4
Flags: W
HStem: 1306 53<-65.7121 66.204> 1643 53<-66.5625 67.4109>
VStem: -166 50<1413.52 1587.38> 116 50<1412.65 1587.88>
AnchorPoint: "A-55" -76.5 0 mark 0
AnchorPoint: "A-57" -425 0 basemark 0
AnchorPoint: "A-56" 0 0 basemark 0
AnchorPoint: "A-57" 0 0 mark 0
AnchorPoint: "A-24" 0 0 mark 0
LayerCount: 2
Fore
SplineSet
0 1306 m 0
 -93 1306 -166 1394 -166 1501 c 0
 -166 1603 -96 1696 0 1696 c 0
 89 1696 166 1612 166 1501 c 0
 166 1393 92 1306 0 1306 c 0
0 1643 m 0
 -63 1643 -116 1583 -116 1501 c 256
 -116 1419 -62 1359 0 1359 c 0
 60 1359 116 1416 116 1501 c 256
 116 1586 60 1643 0 1643 c 0
EndSplineSet
Validated: 1
LCarets2: 1 0 
EndChar

StartChar: sheva
Encoding: 1456 1456 38
Width: 0
GlyphClass: 4
Flags: W
HStem: -587 164<-192.963 -67.037> -333 164<-192.963 -67.037>
VStem: -200 140<-581.781 -428.219 -327.781 -174.219>
AnchorPoint: "A-17" -172.5 0 mark 0
AnchorPoint: "A-14" -172.5 0 mark 0
AnchorPoint: "A-11" -427.5 0 mark 0
AnchorPoint: "A-8" -278.75 0 mark 0
AnchorPoint: "A-70" -130 0 mark 0
AnchorPoint: "A-50" -130 0 basemark 0
AnchorPoint: "A-49" -342.5 0 basemark 0
AnchorPoint: "A-49" -130 0 mark 0
AnchorPoint: "A-48" -351 0 basemark 0
AnchorPoint: "A-47" -308.5 0 basemark 0
AnchorPoint: "A-46" -283 0 basemark 0
AnchorPoint: "A-45" -385 0 basemark 0
AnchorPoint: "A-44" -385 0 basemark 0
AnchorPoint: "A-43" -385 0 basemark 0
AnchorPoint: "A-4" -130 0 mark 0
LayerCount: 2
Fore
SplineSet
-130 -587 m 256
 -172 -587 -200 -551 -200 -505 c 256
 -200 -456 -169 -423 -130 -423 c 256
 -88 -423 -60 -459 -60 -505 c 256
 -60 -554 -91 -587 -130 -587 c 256
-130 -333 m 256
 -172 -333 -200 -297 -200 -251 c 256
 -200 -202 -169 -169 -130 -169 c 256
 -88 -169 -60 -205 -60 -251 c 256
 -60 -300 -91 -333 -130 -333 c 256
EndSplineSet
Validated: 1
LCarets2: 1 0 
MultipleSubs2: "Add hairspace after last low mark subtable" sheva hairspace
MultipleSubs2: "Add thinspace before narrow letter subtable" sheva thinspace
MultipleSubs2: "Add hairspace before low marked Qof" sheva hairspace
EndChar

StartChar: hatafsegol
Encoding: 1457 1457 39
Width: 0
GlyphClass: 4
Flags: W
HStem: -587 164<-177.617 -53.4088 172.037 296.617> -333 164<-295.617 -171.037 -59.963 64.6173 172.037 296.617>
VStem: -303 139<-327.781 -174.219> -185 139<-581.781 -428.219> -67 139<-327.781 -174.219> 165 139<-581.781 -428.219 -327.781 -174.219>
AnchorPoint: "A-19" -42.4248 0 mark 0
AnchorPoint: "A-16" -42.4248 0 mark 0
AnchorPoint: "A-13" -297.425 0 mark 0
AnchorPoint: "A-10" -148.675 0 mark 0
AnchorPoint: "A-73" 0.0751953 0 mark 0
AnchorPoint: "A-50" 0.0751953 0 basemark 0
AnchorPoint: "A-49" -475.925 0 basemark 0
AnchorPoint: "A-48" -450.425 0 basemark 0
AnchorPoint: "A-47" 34.0752 0 basemark 0
AnchorPoint: "A-46" 68.0752 0 basemark 0
AnchorPoint: "A-45" -467.425 0 basemark 0
AnchorPoint: "A-44" -467.425 0 basemark 0
AnchorPoint: "A-43" -467.425 0 basemark 0
AnchorPoint: "A-6" 0.0751953 0 mark 0
LayerCount: 2
Fore
SplineSet
235 -587 m 256xc4
 193 -587 165 -551 165 -505 c 256
 165 -456 196 -423 235 -423 c 256
 276 -423 304 -459 304 -505 c 256
 304 -554 274 -587 235 -587 c 256xc4
235 -333 m 256
 193 -333 165 -297 165 -251 c 256
 165 -202 196 -169 235 -169 c 256
 276 -169 304 -205 304 -251 c 256
 304 -300 274 -333 235 -333 c 256
3 -169 m 256
 44 -169 72 -205 72 -251 c 256
 72 -300 42 -333 3 -333 c 256
 -39 -333 -67 -297 -67 -251 c 256xcc
 -67 -202 -36 -169 3 -169 c 256
-116 -423 m 256
 -74 -423 -46 -459 -46 -505 c 256
 -46 -554 -76 -587 -116 -587 c 256
 -157 -587 -185 -551 -185 -505 c 256xd4
 -185 -456 -155 -423 -116 -423 c 256
-234 -169 m 256
 -192 -169 -164 -205 -164 -251 c 256
 -164 -300 -195 -333 -234 -333 c 256
 -275 -333 -303 -297 -303 -251 c 256xe4
 -303 -202 -273 -169 -234 -169 c 256
EndSplineSet
Validated: 1
LCarets2: 1 0 
MultipleSubs2: "Add hairspace after last low mark subtable" hatafsegol hairspace
MultipleSubs2: "Add thinspace before narrow letter subtable" hatafsegol thinspace
MultipleSubs2: "Add hairspace before low marked Qof" hatafsegol hairspace
EndChar

StartChar: hatafpatah
Encoding: 1458 1458 40
Width: 0
GlyphClass: 4
Flags: W
HStem: -587 164<139.383 263.963> -333 164<139.383 263.963> -288 94<-263 35>
VStem: 132 139<-581.781 -428.219 -327.781 -174.219>
AnchorPoint: "A-19" -41.9004 0 mark 0
AnchorPoint: "A-16" -41.9004 0 mark 0
AnchorPoint: "A-13" -296.9 0 mark 0
AnchorPoint: "A-10" -148.15 0 mark 0
AnchorPoint: "A-73" 0.599609 0 mark 0
AnchorPoint: "A-50" 0.599609 0 basemark 0
AnchorPoint: "A-49" -432.9 0 basemark 0
AnchorPoint: "A-48" -415.9 0 basemark 0
AnchorPoint: "A-47" 34.5996 0 basemark 0
AnchorPoint: "A-46" 51.5996 0 basemark 0
AnchorPoint: "A-45" -449.9 0 basemark 0
AnchorPoint: "A-44" -441.4 0 basemark 0
AnchorPoint: "A-43" -449.9 0 basemark 0
AnchorPoint: "A-6" 0.599609 0 mark 0
LayerCount: 2
Fore
SplineSet
35 -288 m 1xb0
 -263 -288 l 1
 -263 -194 l 1
 35 -194 l 1
 35 -288 l 1xb0
201 -587 m 256
 160 -587 132 -551 132 -505 c 256
 132 -456 162 -423 201 -423 c 256
 243 -423 271 -459 271 -505 c 256
 271 -554 240 -587 201 -587 c 256
201 -333 m 256xd0
 160 -333 132 -297 132 -251 c 256
 132 -202 162 -169 201 -169 c 256
 243 -169 271 -205 271 -251 c 256
 271 -300 240 -333 201 -333 c 256xd0
EndSplineSet
Validated: 1
LCarets2: 1 1 
MultipleSubs2: "Add hairspace after last low mark subtable" hatafpatah hairspace
MultipleSubs2: "Add thinspace before narrow letter subtable" hatafpatah thinspace
MultipleSubs2: "Add hairspace before low marked Qof" hatafpatah hairspace
EndChar

StartChar: hatafqamats
Encoding: 1459 1459 41
Width: 0
GlyphClass: 4
Flags: W
HStem: -587 164<132.383 256.963> -333 164<132.383 256.963> -288 94<-269 -143 -101 27>
VStem: -143 42<-426.875 -288> 125 139<-581.781 -428.219 -327.781 -174.219>
AnchorPoint: "A-19" -42.875 0 mark 0
AnchorPoint: "A-16" -42.875 0 mark 0
AnchorPoint: "A-13" -297.875 0 mark 0
AnchorPoint: "A-10" -149.125 0 mark 0
AnchorPoint: "A-73" -0.375 0 mark 0
AnchorPoint: "A-50" -0.375 0 basemark 0
AnchorPoint: "A-49" -450.875 0 basemark 0
AnchorPoint: "A-48" -433.875 0 basemark 0
AnchorPoint: "A-47" 25.125 0 basemark 0
AnchorPoint: "A-46" 33.625 0 basemark 0
AnchorPoint: "A-45" -467.875 0 basemark 0
AnchorPoint: "A-44" -467.875 0 basemark 0
AnchorPoint: "A-43" -467.875 0 basemark 0
AnchorPoint: "A-6" -0.375 0 mark 0
LayerCount: 2
Fore
SplineSet
-143 -288 m 1xb8
 -269 -288 l 1
 -269 -194 l 1
 27 -194 l 1
 27 -288 l 1
 -101 -288 l 1
 -101 -322 l 1
 -101 -324 l 0
 -101 -356 -96 -386 -87 -410 c 9
 -51 -500 l 17
 -63 -530 -75 -558 -101 -584 c 1
 -116 -588 -130 -588 -143 -584 c 1
 -169 -562 -181 -532 -191 -500 c 9
 -155 -410 l 17
 -147 -392 -143 -338 -143 -326 c 0
 -143 -322 l 9
 -143 -322 -143 -300 -143 -288 c 1xb8
194 -587 m 256
 153 -587 125 -551 125 -505 c 256
 125 -456 155 -423 194 -423 c 256
 236 -423 264 -459 264 -505 c 256
 264 -554 233 -587 194 -587 c 256
194 -333 m 256xd8
 153 -333 125 -297 125 -251 c 256
 125 -202 155 -169 194 -169 c 256
 236 -169 264 -205 264 -251 c 256
 264 -300 233 -333 194 -333 c 256xd8
EndSplineSet
Validated: 1
LCarets2: 1 0 
MultipleSubs2: "Add hairspace after last low mark subtable" hatafqamats hairspace
MultipleSubs2: "Add thinspace before narrow letter subtable" hatafqamats thinspace
MultipleSubs2: "Add hairspace before low marked Qof" hatafqamats hairspace
EndChar

StartChar: hiriq
Encoding: 1460 1460 42
Width: 0
GlyphClass: 4
Flags: W
HStem: -333 164<-330.963 -205.037>
VStem: -338 140<-327.781 -174.219>
AnchorPoint: "A-59" -37.6504 0 mark 0
AnchorPoint: "A-17" -310.5 0 mark 0
AnchorPoint: "A-14" -310.5 0 mark 0
AnchorPoint: "A-11" -565.5 0 mark 0
AnchorPoint: "A-8" -416.75 0 mark 0
AnchorPoint: "A-70" -268 0 mark 0
AnchorPoint: "A-50" -268 0 basemark 0
AnchorPoint: "A-49" -480.5 0 basemark 0
AnchorPoint: "A-49" -268 0 mark 0
AnchorPoint: "A-48" -472 0 basemark 0
AnchorPoint: "A-47" -446.5 0 basemark 0
AnchorPoint: "A-46" -429.5 0 basemark 0
AnchorPoint: "A-45" -523 0 basemark 0
AnchorPoint: "A-44" -523 0 basemark 0
AnchorPoint: "A-43" -523 0 basemark 0
AnchorPoint: "A-4" -268 0 mark 0
LayerCount: 2
Fore
SplineSet
-268 -333 m 256
 -310 -333 -338 -297 -338 -251 c 256
 -338 -202 -307 -169 -268 -169 c 256
 -226 -169 -198 -205 -198 -251 c 256
 -198 -300 -229 -333 -268 -333 c 256
EndSplineSet
Validated: 1
LCarets2: 1 -40 
MultipleSubs2: "Add hairspace after last low mark subtable" hiriq hairspace
MultipleSubs2: "Add thinspace before narrow letter subtable" hiriq thinspace
MultipleSubs2: "Add hairspace before low marked Qof" hiriq hairspace
EndChar

StartChar: tsere
Encoding: 1461 1461 43
Width: 0
GlyphClass: 4
Flags: W
HStem: -333 164<-170.963 -45.037 45.037 170.963>
VStem: -178 140<-327.781 -174.219> 38 140<-327.781 -174.219>
AnchorPoint: "A-18" -42.5 0 mark 0
AnchorPoint: "A-15" -42.5 0 mark 0
AnchorPoint: "A-12" -297.5 0 mark 0
AnchorPoint: "A-9" -148.75 0 mark 0
AnchorPoint: "A-71" 0 0 mark 0
AnchorPoint: "A-50" 0 0 basemark 0
AnchorPoint: "A-49" -348.5 0 basemark 0
AnchorPoint: "A-48" -331.5 0 basemark 0
AnchorPoint: "A-47" -85 0 basemark 0
AnchorPoint: "A-46" -68 0 basemark 0
AnchorPoint: "A-45" -365.5 0 basemark 0
AnchorPoint: "A-44" -340 0 basemark 0
AnchorPoint: "A-43" -365.5 0 basemark 0
AnchorPoint: "A-5" 0 0 mark 0
LayerCount: 2
Fore
SplineSet
178 -251 m 256
 178 -300 147 -333 108 -333 c 256
 66 -333 38 -297 38 -251 c 256
 38 -202 69 -169 108 -169 c 256
 150 -169 178 -205 178 -251 c 256
-38 -251 m 256
 -38 -300 -69 -333 -108 -333 c 256
 -150 -333 -178 -297 -178 -251 c 256
 -178 -202 -147 -169 -108 -169 c 256
 -66 -169 -38 -205 -38 -251 c 256
EndSplineSet
Validated: 1
LCarets2: 1 0 
MultipleSubs2: "Add hairspace after last low mark subtable" tsere hairspace
MultipleSubs2: "Add thinspace before narrow letter subtable" tsere thinspace
MultipleSubs2: "Add hairspace before low marked Qof" tsere hairspace
EndChar

StartChar: segol
Encoding: 1462 1462 44
Width: 0
GlyphClass: 4
Flags: W
HStem: -577 164<-62.963 62.963> -333 164<-180.963 -55.037 55.037 180.963>
VStem: -188 140<-327.781 -174.219> -70 140<-571.781 -418.219> 48 140<-327.781 -174.219>
AnchorPoint: "A-18" -42.5 0 mark 0
AnchorPoint: "A-15" -42.5 0 mark 0
AnchorPoint: "A-12" -297.5 0 mark 0
AnchorPoint: "A-9" -148.75 0 mark 0
AnchorPoint: "A-71" 0 0 mark 0
AnchorPoint: "A-50" 0 0 basemark 0
AnchorPoint: "A-49" -348.5 0 basemark 0
AnchorPoint: "A-48" -331.5 0 basemark 0
AnchorPoint: "A-47" -85 0 basemark 0
AnchorPoint: "A-46" -42.5 0 basemark 0
AnchorPoint: "A-45" -365.5 0 basemark 0
AnchorPoint: "A-44" -355 0 basemark 0
AnchorPoint: "A-43" -365.5 0 basemark 0
AnchorPoint: "A-5" 0 0 mark 0
LayerCount: 2
Fore
SplineSet
118 -169 m 256xc8
 160 -169 188 -205 188 -251 c 256
 188 -300 157 -333 118 -333 c 256
 76 -333 48 -297 48 -251 c 256
 48 -202 79 -169 118 -169 c 256xc8
0 -413 m 256
 42 -413 70 -449 70 -495 c 256
 70 -544 39 -577 0 -577 c 256
 -42 -577 -70 -541 -70 -495 c 256xd0
 -70 -446 -39 -413 0 -413 c 256
-118 -169 m 256
 -76 -169 -48 -205 -48 -251 c 256
 -48 -300 -79 -333 -118 -333 c 256
 -160 -333 -188 -297 -188 -251 c 256xe0
 -188 -202 -157 -169 -118 -169 c 256
EndSplineSet
Validated: 1
LCarets2: 1 0 
MultipleSubs2: "Add hairspace after last low mark subtable" segol hairspace
MultipleSubs2: "Add thinspace before narrow letter subtable" segol thinspace
MultipleSubs2: "Add hairspace before low marked Qof" segol hairspace
EndChar

StartChar: patah
Encoding: 1463 1463 45
Width: 0
GlyphClass: 4
Flags: W
HStem: -288 94<-150 149>
VStem: -150 299<-288 -194>
AnchorPoint: "A-18" -42.5752 0 mark 0
AnchorPoint: "A-15" -42.5752 0 mark 0
AnchorPoint: "A-12" -297.575 0 mark 0
AnchorPoint: "A-9" -148.825 0 mark 0
AnchorPoint: "A-71" -0.0751953 0 mark 0
AnchorPoint: "A-50" -0.0751953 0 basemark 0
AnchorPoint: "A-49" -323.075 0 basemark 0
AnchorPoint: "A-50" -0.0751953 0 mark 0
AnchorPoint: "A-48" -289.075 0 basemark 0
AnchorPoint: "A-47" -93.5752 0 basemark 0
AnchorPoint: "A-46" -76.5752 0 basemark 0
AnchorPoint: "A-45" -340.075 0 basemark 0
AnchorPoint: "A-44" -314.575 0 basemark 0
AnchorPoint: "A-43" -340.075 0 basemark 0
AnchorPoint: "A-5" -0.0751953 0 mark 0
LayerCount: 2
Fore
SplineSet
149 -288 m 1
 -150 -288 l 1
 -150 -194 l 1
 149 -194 l 1
 149 -288 l 1
EndSplineSet
Validated: 1
LCarets2: 1 0 
MultipleSubs2: "Add hairspace after last low mark subtable" patah hairspace
MultipleSubs2: "Add thinspace before narrow letter subtable" patah thinspace
MultipleSubs2: "Add hairspace before low marked Qof" patah hairspace
EndChar

StartChar: qamats
Encoding: 1464 1464 46
Width: 0
GlyphClass: 4
Flags: W
HStem: -288 94<-148 -21 21 149>
VStem: -21 42<-429.688 -288>
AnchorPoint: "A-18" -42.4248 0 mark 0
AnchorPoint: "A-15" -42.4248 0 mark 0
AnchorPoint: "A-12" -297.425 0 mark 0
AnchorPoint: "A-9" -148.675 0 mark 0
AnchorPoint: "A-71" 0.0751953 0 mark 0
AnchorPoint: "A-50" 0.0751953 0 basemark 0
AnchorPoint: "A-49" -322.925 0 basemark 0
AnchorPoint: "A-48" -288.925 0 basemark 0
AnchorPoint: "A-47" -93.4248 0 basemark 0
AnchorPoint: "A-46" -59.4248 0 basemark 0
AnchorPoint: "A-45" -339.925 0 basemark 0
AnchorPoint: "A-44" -305.925 0 basemark 0
AnchorPoint: "A-43" -339.925 0 basemark 0
AnchorPoint: "A-5" 0.0751953 0 mark 0
LayerCount: 2
Fore
SplineSet
-21 -288 m 1
 -148 -288 l 1
 -148 -194 l 1
 149 -194 l 1
 149 -288 l 1
 21 -288 l 1
 21 -322 l 1
 21 -323 21 -324 21 -325 c 0
 21 -357 26 -386 34 -410 c 9
 70 -500 l 17
 59 -530 46 -559 20 -585 c 1
 6 -588 -8 -588 -21 -584 c 1
 -48 -562 -59 -532 -69 -500 c 9
 -34 -410 l 17
 -25 -393 -21 -339 -21 -326 c 0
 -21 -323 l 9
 -21 -323 -21 -301 -21 -288 c 1
EndSplineSet
Validated: 1
LCarets2: 1 0 
MultipleSubs2: "Add hairspace after last low mark subtable" qamats hairspace
MultipleSubs2: "Add thinspace before narrow letter subtable" qamats thinspace
MultipleSubs2: "Add hairspace before low marked Qof" qamats hairspace
EndChar

StartChar: holam
Encoding: 1465 1465 47
Width: 0
GlyphClass: 4
Flags: W
HStem: 1222 164<-292.963 -167.037>
VStem: -300 140<1227.22 1380.78>
AnchorPoint: "A-35" -570 0 basemark 0
AnchorPoint: "A-34" 229 0 basemark 0
AnchorPoint: "A-33" -30.25 200 basemark 0
AnchorPoint: "A-22" -442.5 0 mark 0
AnchorPoint: "A-21" -442.5 0 mark 0
AnchorPoint: "A-20" -442.5 0 mark 0
LayerCount: 2
Fore
SplineSet
-230 1222 m 256
 -272 1222 -300 1258 -300 1304 c 256
 -300 1353 -269 1386 -230 1386 c 256
 -188 1386 -160 1350 -160 1304 c 256
 -160 1255 -191 1222 -230 1222 c 256
EndSplineSet
Validated: 1
LCarets2: 1 -18 
Position2: "Move Holam to Left subtable" dx=-162 dy=0 dh=0 dv=0
EndChar

StartChar: holamhaser
Encoding: 1466 1466 48
Width: 0
GlyphClass: 4
Flags: W
HStem: 1222 164<-292.963 -167.037>
VStem: -300 140<1227.22 1380.78>
AnchorPoint: "A-35" -570 0 basemark 0
AnchorPoint: "A-34" -102.5 0 basemark 0
AnchorPoint: "A-33" -30.25 200 basemark 0
LayerCount: 2
Fore
SplineSet
-230 1222 m 256
 -272 1222 -300 1258 -300 1304 c 256
 -300 1353 -269 1386 -230 1386 c 256
 -188 1386 -160 1350 -160 1304 c 256
 -160 1255 -191 1222 -230 1222 c 256
EndSplineSet
Validated: 1
EndChar

StartChar: qubuts
Encoding: 1467 1467 49
Width: 0
GlyphClass: 4
Flags: W
HStem: -591 159<96.7726 218.015> -457 159<-60.2274 61.0153> -323 159<-218.227 -96.9847>
VStem: -225 135<-318.136 -168.875> -67 135<-452.136 -302.875> 90 135<-586.584 -436.875>
AnchorPoint: "A-18" -42.5 0 mark 0
AnchorPoint: "A-15" -42.5 0 mark 0
AnchorPoint: "A-12" -297.5 0 mark 0
AnchorPoint: "A-9" -148.75 0 mark 0
AnchorPoint: "A-72" 0 0 mark 0
AnchorPoint: "A-50" 0 0 basemark 0
AnchorPoint: "A-49" -374 0 basemark 0
AnchorPoint: "A-48" -357 0 basemark 0
AnchorPoint: "A-47" -59.5 0 basemark 0
AnchorPoint: "A-46" -25.5 0 basemark 0
AnchorPoint: "A-45" -382.5 0 basemark 0
AnchorPoint: "A-44" -382.5 0 basemark 0
AnchorPoint: "A-43" -382.5 0 basemark 0
AnchorPoint: "A-5" 0 0 mark 0
LayerCount: 2
Fore
SplineSet
-158 -323 m 256x3c
 -198 -323 -225 -287 -225 -244 c 256
 -225 -200 -198 -164 -158 -164 c 256
 -118 -164 -90 -200 -90 -244 c 256
 -90 -291 -121 -323 -158 -323 c 256x3c
157 -591 m 256x9c
 117 -591 90 -555 90 -512 c 256
 90 -468 117 -432 157 -432 c 256
 197 -432 225 -468 225 -512 c 256
 225 -559 195 -591 157 -591 c 256x9c
0 -457 m 256x5c
 -40 -457 -67 -421 -67 -378 c 256
 -67 -334 -40 -298 0 -298 c 256
 40 -298 68 -334 68 -378 c 256
 68 -425 37 -457 0 -457 c 256x5c
EndSplineSet
Validated: 1
LCarets2: 1 0 
MultipleSubs2: "Add hairspace after last low mark subtable" qubuts hairspace
MultipleSubs2: "Add thinspace before narrow letter subtable" qubuts thinspace
MultipleSubs2: "Add hairspace before low marked Qof" qubuts hairspace
EndChar

StartChar: dagesh
Encoding: 1468 1468 50
Width: 0
GlyphClass: 4
Flags: W
HStem: 437 164<-62.963 62.963>
VStem: -70 140<442.219 595.781>
AnchorPoint: "A-3" 0 0 mark 0
LayerCount: 2
Fore
SplineSet
0 437 m 256
 -42 437 -70 473 -70 519 c 256
 -70 568 -39 601 0 601 c 256
 42 601 70 565 70 519 c 256
 70 470 39 437 0 437 c 256
EndSplineSet
Validated: 1
LCarets2: 1 0 
EndChar

StartChar: meteg
Encoding: 1469 1469 51
Width: 0
GlyphClass: 4
Flags: W
HStem: -572 390<-150 -77>
VStem: -150 73<-572 -182>
AnchorPoint: "A-63" -266.925 0 mark 0
AnchorPoint: "A-62" -385.925 0 mark 0
AnchorPoint: "A-61" -496.425 0 mark 0
AnchorPoint: "A-17" -156.425 0 mark 0
AnchorPoint: "A-11" -432.675 0 mark 0
AnchorPoint: "A-8" -283.925 0 mark 0
AnchorPoint: "A-73" -538.925 0 basemark 0
AnchorPoint: "A-72" -453.925 0 basemark 0
AnchorPoint: "A-71" -419.925 0 basemark 0
AnchorPoint: "A-70" -351.925 0 basemark 0
AnchorPoint: "A-54" -368.925 0 basemark 0
AnchorPoint: "A-53" -411.425 0 basemark 0
AnchorPoint: "A-52" -411.425 0 basemark 0
AnchorPoint: "A-51" -411.425 0 basemark 0
AnchorPoint: "A-54" -139.425 0 mark 0
AnchorPoint: "A-50" -402.925 0 basemark 0
AnchorPoint: "A-49" -326.425 0 basemark 0
AnchorPoint: "A-48" -368.925 0 basemark 0
AnchorPoint: "A-47" -300.925 0 basemark 0
AnchorPoint: "A-46" -317.925 0 basemark 0
AnchorPoint: "A-45" -394.425 0 basemark 0
AnchorPoint: "A-44" -394.425 0 basemark 0
AnchorPoint: "A-43" -368.925 0 basemark 0
AnchorPoint: "A-48" -139.425 0 mark 0
AnchorPoint: "A-4" -113.925 0 mark 0
LayerCount: 2
Fore
SplineSet
-77 -572 m 1
 -150 -572 l 1
 -150 -182 l 1
 -77 -182 l 1
 -77 -572 l 1
EndSplineSet
Validated: 1
LCarets2: 1 0 
MultipleSubs2: "Add hairspace after last low mark subtable" meteg hairspace
MultipleSubs2: "Add thinspace before narrow letter subtable" meteg thinspace
MultipleSubs2: "Add hairspace before low marked Qof" meteg hairspace
EndChar

StartChar: makaf
Encoding: 1470 1470 52
Width: 631
GlyphClass: 2
Flags: W
HStem: 828 222<93.6062 517.182>
VStem: 39 543<902.306 991.61>
AnchorPoint: "A-32" 320.02 0 basechar 0
AnchorPoint: "A-31" 320.02 0 basechar 0
AnchorPoint: "A-30" 405.02 0 basechar 0
AnchorPoint: "A-29" 405.02 0 basechar 0
AnchorPoint: "A-28" 473.02 0 basechar 0
AnchorPoint: "A-27" 48.0195 0 basechar 0
AnchorPoint: "A-26" 473.02 0 basechar 0
AnchorPoint: "A-25" 48.0195 0 basechar 0
AnchorPoint: "A-24" 320.02 0 basechar 0
AnchorPoint: "A-23" 320.02 0 basechar 0
LayerCount: 2
Fore
SplineSet
527 1050 m 1
 560 1050 582 1033 582 1005 c 0
 582 993 579 980 570 965 c 1
 554 925 518 865 478 828 c 1
 100 828 l 1
 53 828 39 863 39 887 c 0
 39 900 43 911 47 914 c 1
 68 980 101 1015 127 1050 c 1
 527 1050 l 1
EndSplineSet
Validated: 1
EndChar

StartChar: rafe
Encoding: 1471 1471 53
Width: 0
GlyphClass: 4
Flags: W
HStem: 1224 94<-194 194>
VStem: -194 388<1224 1318>
AnchorPoint: "A-24" 0 0 mark 0
LayerCount: 2
Fore
SplineSet
194 1224 m 1
 -194 1224 l 1
 -194 1318 l 1
 194 1318 l 1
 194 1224 l 1
EndSplineSet
Validated: 1
LCarets2: 1 0 
EndChar

StartChar: paseq
Encoding: 1472 1472 54
Width: 589
GlyphClass: 2
Flags: W
VStem: 207 123<-163 1230>
LayerCount: 2
Fore
SplineSet
330 -163 m 1
 207 -163 l 1
 207 1230 l 1
 330 1230 l 1
 330 -163 l 1
EndSplineSet
Validated: 1
EndChar

StartChar: shindot
Encoding: 1473 1473 55
Width: 0
GlyphClass: 4
Flags: W
HStem: 1222 164<325.037 450.963>
VStem: 318 140<1227.22 1380.78>
AnchorPoint: "A-60" 58.2002 0 mark 0
LayerCount: 2
Fore
SplineSet
388 1222 m 256
 346 1222 318 1258 318 1304 c 256
 318 1353 349 1386 388 1386 c 256
 430 1386 458 1350 458 1304 c 256
 458 1255 427 1222 388 1222 c 256
EndSplineSet
Validated: 1
EndChar

StartChar: sindot
Encoding: 1474 1474 56
Width: 0
GlyphClass: 4
Flags: W
HStem: 1222 164<-482.963 -357.037>
VStem: -490 140<1227.22 1380.78>
AnchorPoint: "A-60" -63 0 mark 0
LayerCount: 2
Fore
SplineSet
-420 1222 m 256
 -462 1222 -490 1258 -490 1304 c 256
 -490 1353 -459 1386 -420 1386 c 256
 -378 1386 -350 1350 -350 1304 c 256
 -350 1255 -381 1222 -420 1222 c 256
EndSplineSet
Validated: 1
EndChar

StartChar: sofpasuq
Encoding: 1475 1475 57
Width: 490
GlyphClass: 2
Flags: W
VStem: 80 265
LayerCount: 2
Fore
SplineSet
197 973 m 1
 299 864 345 864 345 844 c 0
 345 840 345 835 343 832 c 2
 293 751 l 1
 247 668 l 1
 245 665 242 663 238 663 c 0
 208 663 114 744 80 783 c 0
 75 789 76 795 80 802 c 0
 111 859 143 917 178 970 c 0
 181 975 190 978 197 973 c 1
197 292 m 1
 299 183 343 183 345 164 c 0
 346 158 345 154 343 151 c 2
 293 70 l 1
 247 -13 l 1
 245 -16 242 -18 238 -18 c 0
 208 -18 114 63 80 102 c 0
 75 108 76 114 80 121 c 0
 111 178 143 236 178 289 c 0
 181 294 190 297 197 292 c 1
EndSplineSet
Validated: 1
EndChar

StartChar: upperdot
Encoding: 1476 1476 58
Width: 0
GlyphClass: 4
Flags: W
HStem: 1674 323
VStem: -134 266
AnchorPoint: "A-58" -0.150391 0 mark 0
LayerCount: 2
Fore
SplineSet
132 1831 m 1
 0 1674 l 1
 -134 1835 l 1
 -4 1997 l 1
 132 1831 l 1
EndSplineSet
Validated: 1
LCarets2: 1 0 
EndChar

StartChar: lowerdot
Encoding: 1477 1477 59
Width: 0
GlyphClass: 4
Flags: W
HStem: -943 323
VStem: -134 266
AnchorPoint: "A-58" -0.150391 0 mark 0
LayerCount: 2
Fore
SplineSet
132 -786 m 1
 0 -943 l 1
 -134 -782 l 1
 -4 -620 l 1
 132 -786 l 1
EndSplineSet
Validated: 1
LCarets2: 1 0 
EndChar

StartChar: nunhapukha
Encoding: 1478 1478 60
Width: 651
GlyphClass: 2
Flags: W
HStem: -52 220<342.625 555.711> 818 21G<190 216.5> 846 215<349.855 511.461>
VStem: 208 99<430.617 784.424>
AnchorPoint: "A-32" 355.725 0 basechar 0
AnchorPoint: "A-31" 355.725 0 basechar 0
AnchorPoint: "A-30" 500.225 0 basechar 0
AnchorPoint: "A-29" 500.225 0 basechar 0
AnchorPoint: "A-28" 500.225 0 basechar 0
AnchorPoint: "A-27" 202.725 0 basechar 0
AnchorPoint: "A-26" 466.225 0 basechar 0
AnchorPoint: "A-25" 32.7246 0 basechar 0
AnchorPoint: "A-24" 355.725 0 basechar 0
AnchorPoint: "A-23" 355.725 0 basechar 0
AnchorPoint: "A-2" 355.725 0 basechar 0
AnchorPoint: "A-1" 355.725 0 basechar 0
AnchorPoint: "A-0" 355.725 0 basechar 0
LayerCount: 2
Fore
SplineSet
532 1116 m 1
 532 1011 526 910 496 846 c 1
 486 846 477 846 468 846 c 0
 429 846 402 842 331 789 c 1
 309 691 307 618 307 549 c 0
 307 534 307 519 307 504 c 0
 307 461 306 416 300 366 c 9
 283 239 l 17
 364 189 445 168 526 168 c 1
 561 126 576 85 576 46 c 0
 576 12 566 -20 550 -52 c 1
 412 -23 272 -8 139 76 c 1
 119 105 101 203 101 203 c 17
 131 353 208 518 208 690 c 0
 208 716 250 790 250 821 c 0
 250 823 250 824 250 825 c 1
 249 822 229 818 204 818 c 0
 176 818 142 823 115 840 c 1
 127 840 127 1020 166 1083 c 1
 168 1084 171 1085 175 1085 c 0
 201 1085 267 1060 297 1060 c 0
 302 1060 306 1060 309 1062 c 1
 336 1062 363 1061 388 1061 c 0
 447 1061 500 1068 532 1116 c 1
EndSplineSet
Validated: 1
EndChar

StartChar: qamatsqatan
Encoding: 1479 1479 61
Width: 0
GlyphClass: 4
Flags: W
HStem: -255 71<-148 -18 20 148>
VStem: -54 111<-632.963 -505.509> -18 38<-493.75 -255>
AnchorPoint: "A-18" -42.5 0 mark 0
AnchorPoint: "A-15" -42.5 0 mark 0
AnchorPoint: "A-12" -297.5 0 mark 0
AnchorPoint: "A-9" -148.75 0 mark 0
AnchorPoint: "A-50" 0 0 basemark 0
AnchorPoint: "A-49" -323 0 basemark 0
AnchorPoint: "A-48" -289 0 basemark 0
AnchorPoint: "A-47" 0 0 basemark 0
AnchorPoint: "A-46" 0 0 basemark 0
AnchorPoint: "A-45" 0 0 basemark 0
AnchorPoint: "A-44" 0 0 basemark 0
AnchorPoint: "A-43" 0 0 basemark 0
AnchorPoint: "A-5" 0 0 mark 0
LayerCount: 2
Back
SplineSet
-23 -278 m 1
 -148 -278 l 1
 -148 -184 l 1
 148 -184 l 1
 148 -278 l 1
 24 -278 l 1
 24 -320 l 1
 24 -322 24 -322 24 -324 c 0
 24 -356 26 -436 35 -460 c 9
 71 -550 l 17
 60 -580 47 -610 21 -636 c 1
 7 -638 -10 -638 -23 -634 c 1
 -49 -612 -59 -582 -68 -550 c 9
 -33 -460 l 17
 -25 -444 -23 -338 -23 -326 c 0
 -23 -322 l 9
 -23 -322 -23 -292 -23 -278 c 1
EndSplineSet
Fore
SplineSet
-18 -255 m 1xa0
 -148 -255 l 1
 -148 -184 l 1
 148 -184 l 1
 148 -255 l 1
 20 -255 l 1
 20 -320 l 1
 20 -322 20 -322 20 -324 c 0xa0
 20 -356 21 -436 28 -460 c 9
 57 -550 l 17xc0
 48 -580 38 -610 17 -636 c 1
 6 -638 -8 -638 -18 -634 c 1xa0
 -39 -612 -47 -582 -54 -550 c 9xc0
 -26 -460 l 17
 -20 -444 -18 -338 -18 -326 c 0
 -18 -322 l 9
 -18 -322 -18 -269 -18 -255 c 1xa0
EndSplineSet
Validated: 1
MultipleSubs2: "Add hairspace after last low mark subtable" qamatsqatan hairspace
MultipleSubs2: "Add thinspace before narrow letter subtable" qamatsqatan thinspace
MultipleSubs2: "Add hairspace before low marked Qof" qamatsqatan hairspace
EndChar

StartChar: alef
Encoding: 1488 1488 62
Width: 1115
GlyphClass: 2
Flags: W
HStem: 51 209<349.794 518.229>
VStem: 169 108<332.728 595.224> 819 86<616.394 773.211>
AnchorPoint: "A-69" 628.975 0 basechar 0
AnchorPoint: "A-68" 628.975 0 basechar 0
AnchorPoint: "A-67" 628.975 0 basechar 0
AnchorPoint: "A-66" 628.975 0 basechar 0
AnchorPoint: "A-65" 628.975 0 basechar 0
AnchorPoint: "A-64" 628.975 0 basechar 0
AnchorPoint: "A-63" 628.975 0 basechar 0
AnchorPoint: "A-62" 628.975 0 basechar 0
AnchorPoint: "A-61" 628.975 0 basechar 0
AnchorPoint: "A-59" 123.225 0 basechar 0
AnchorPoint: "A-55" 922.225 0 basechar 0
AnchorPoint: "A-42" 650.225 0 basechar 0
AnchorPoint: "A-39" 628.975 0 basechar 0
AnchorPoint: "A-36" 628.975 0 basechar 0
AnchorPoint: "A-21" -242.275 0 basechar 0
AnchorPoint: "A-16" 628.975 0 basechar 0
AnchorPoint: "A-15" 628.975 0 basechar 0
AnchorPoint: "A-14" 628.975 0 basechar 0
AnchorPoint: "A-13" 628.975 0 basechar 0
AnchorPoint: "A-12" 628.975 0 basechar 0
AnchorPoint: "A-11" 628.975 0 basechar 0
AnchorPoint: "A-10" 628.975 0 basechar 0
AnchorPoint: "A-9" 628.975 0 basechar 0
AnchorPoint: "A-8" 628.975 0 basechar 0
AnchorPoint: "A-58" 628.975 0 basechar 0
AnchorPoint: "A-41" 628.975 0 basechar 0
AnchorPoint: "A-40" 628.975 0 basechar 0
AnchorPoint: "A-32" 628.975 0 basechar 0
AnchorPoint: "A-31" 628.975 0 basechar 0
AnchorPoint: "A-30" 628.975 0 basechar 0
AnchorPoint: "A-29" 628.975 0 basechar 0
AnchorPoint: "A-28" 535.475 0 basechar 0
AnchorPoint: "A-27" 628.975 0 basechar 0
AnchorPoint: "A-26" 922.225 0 basechar 0
AnchorPoint: "A-25" 250.725 0 basechar 0
AnchorPoint: "A-24" 628.975 0 basechar 0
AnchorPoint: "A-23" 628.975 0 basechar 0
AnchorPoint: "A-20" 157.225 0 basechar 0
AnchorPoint: "A-7" 628.975 0 basechar 0
AnchorPoint: "A-6" 628.975 0 basechar 0
AnchorPoint: "A-5" 628.975 0 basechar 0
AnchorPoint: "A-4" 628.975 0 basechar 0
AnchorPoint: "A-2" 628.975 0 basechar 0
AnchorPoint: "A-1" 628.975 0 basechar 0
AnchorPoint: "A-0" 628.975 0 basechar 0
LayerCount: 2
Fore
SplineSet
797 458 m 1
 885 355 945 305 1053 219 c 1
 1034 112 985 -9 981 -9 c 1
 740 212 596 384 461 594 c 1
 454 604 443 640 399 650 c 1
 346 650 277 569 277 447 c 1
 277 324 398 260 467 260 c 0
 491 260 520 268 550 287 c 1
 526 127 510 51 510 51 c 17
 405 51 316 1 226 -49 c 9
 206 -5 l 17
 221 58 256 98 288 141 c 1
 223 201 169 302 169 383 c 1
 169 564 242 707 320 827 c 1
 235 924 l 9
 375 1092 l 17
 451 895 591 710 715 552 c 1
 802 616 819 697 819 760 c 1
 819 817 792 866 737 903 c 1
 766 975 793 1046 841 1123 c 1
 901 1044 976 989 1057 943 c 1
 1032 872 1001 807 953 767 c 9
 905 775 l 17
 905 653 870 523 797 458 c 1
EndSplineSet
Validated: 1
LCarets2: 1 90 
MultipleSubs2: "Add hairspace before low marked Qof" alef hairspace
Substitution2: "'jalt' Wide Letter Alternatives in Hebrew subtable" alef.wide
EndChar

StartChar: bet
Encoding: 1489 1489 63
Width: 995
GlyphClass: 2
Flags: W
HStem: -75 226<173.364 608.104> 828 214<344.347 678.574>
VStem: 694 127<246.378 817.65>
AnchorPoint: "A-69" 532.55 0 basechar 0
AnchorPoint: "A-68" 532.55 0 basechar 0
AnchorPoint: "A-67" 532.55 0 basechar 0
AnchorPoint: "A-66" 532.55 0 basechar 0
AnchorPoint: "A-65" 532.55 0 basechar 0
AnchorPoint: "A-64" 532.55 0 basechar 0
AnchorPoint: "A-63" 532.55 0 basechar 0
AnchorPoint: "A-62" 532.55 0 basechar 0
AnchorPoint: "A-61" 532.55 0 basechar 0
AnchorPoint: "A-59" 103.3 0 basechar 0
AnchorPoint: "A-55" 757.8 0 basechar 0
AnchorPoint: "A-42" 532.55 0 basechar 0
AnchorPoint: "A-39" 528.3 0 basechar 0
AnchorPoint: "A-36" 532.55 0 basechar 0
AnchorPoint: "A-21" -262.2 0 basechar 0
AnchorPoint: "A-16" 532.55 0 basechar 0
AnchorPoint: "A-15" 532.55 0 basechar 0
AnchorPoint: "A-14" 532.55 0 basechar 0
AnchorPoint: "A-13" 532.55 0 basechar 0
AnchorPoint: "A-12" 532.55 0 basechar 0
AnchorPoint: "A-11" 532.55 0 basechar 0
AnchorPoint: "A-10" 541.05 0 basechar 0
AnchorPoint: "A-9" 541.05 0 basechar 0
AnchorPoint: "A-8" 532.55 0 basechar 0
AnchorPoint: "A-58" 528.3 0 basechar 0
AnchorPoint: "A-41" 532.55 0 basechar 0
AnchorPoint: "A-40" 532.55 0 basechar 0
AnchorPoint: "A-32" 528.3 0 basechar 0
AnchorPoint: "A-31" 528.3 0 basechar 0
AnchorPoint: "A-30" 528.3 0 basechar 0
AnchorPoint: "A-29" 545.3 0 basechar 0
AnchorPoint: "A-28" 515.55 0 basechar 0
AnchorPoint: "A-27" 511.3 0 basechar 0
AnchorPoint: "A-26" 757.8 0 basechar 0
AnchorPoint: "A-25" 162.8 0 basechar 0
AnchorPoint: "A-24" 532.55 0 basechar 0
AnchorPoint: "A-23" 528.3 0 basechar 0
AnchorPoint: "A-20" 86.2998 0 basechar 0
AnchorPoint: "A-7" 532.55 0 basechar 0
AnchorPoint: "A-6" 532.55 0 basechar 0
AnchorPoint: "A-5" 532.55 0 basechar 0
AnchorPoint: "A-4" 532.55 0 basechar 0
AnchorPoint: "A-2" 528.3 0 basechar 0
AnchorPoint: "A-1" 528.3 0 basechar 0
AnchorPoint: "A-0" 528.3 0 basechar 0
LayerCount: 2
Fore
SplineSet
694 210 m 1
 694 722 l 1
 694 753 681 808 632 828 c 9
 252 828 l 25
 220 928 l 25
 192 956 l 17
 212 1034 247 1099 288 1140 c 1
 319 1106 378 1042 460 1042 c 1
 486 1042 509 1042 530 1042 c 0
 591 1042 632 1043 688 1052 c 1
 816 1052 821 859 821 648 c 0
 821 629 821 609 821 590 c 0
 821 454 821 335 856 242 c 9
 970 262 l 17
 957 185 945 89 904 12 c 1
 656 -22 436 -75 132 -75 c 1
 132 9 153 81 178 154 c 1
 196 152 216 151 240 151 c 0
 338 151 485 171 694 210 c 1
EndSplineSet
Validated: 1
LCarets2: 1 81 
MultipleSubs2: "Add hairspace before low marked Qof" bet hairspace
EndChar

StartChar: gimel
Encoding: 1490 1490 64
Width: 672
GlyphClass: 2
Flags: W
VStem: 196 364<854.154 995.615> 363 109<470.238 810.994>
AnchorPoint: "A-69" 358.3 0 basechar 0
AnchorPoint: "A-68" 332.8 0 basechar 0
AnchorPoint: "A-67" 358.3 0 basechar 0
AnchorPoint: "A-66" 358.3 0 basechar 0
AnchorPoint: "A-65" 358.3 0 basechar 0
AnchorPoint: "A-64" 358.3 0 basechar 0
AnchorPoint: "A-63" 358.3 0 basechar 0
AnchorPoint: "A-62" 358.3 0 basechar 0
AnchorPoint: "A-61" 358.3 0 basechar 0
AnchorPoint: "A-59" 52.2998 0 basechar 0
AnchorPoint: "A-55" 524.05 0 basechar 0
AnchorPoint: "A-42" 358.3 0 basechar 0
AnchorPoint: "A-39" 430.55 0 basechar 0
AnchorPoint: "A-36" 428 0 basechar 0
AnchorPoint: "A-22" -75.2002 0 basechar 0
AnchorPoint: "A-21" -313.2 0 basechar 0
AnchorPoint: "A-16" 358.3 0 basechar 0
AnchorPoint: "A-15" 358.3 0 basechar 0
AnchorPoint: "A-14" 358.3 0 basechar 0
AnchorPoint: "A-13" 358.3 0 basechar 0
AnchorPoint: "A-12" 358.3 0 basechar 0
AnchorPoint: "A-11" 358.3 0 basechar 0
AnchorPoint: "A-10" 358.3 0 basechar 0
AnchorPoint: "A-9" 358.3 0 basechar 0
AnchorPoint: "A-8" 358.3 0 basechar 0
AnchorPoint: "A-58" 430.55 0 basechar 0
AnchorPoint: "A-41" 222.3 10 basechar 0
AnchorPoint: "A-40" 358.3 0 basechar 0
AnchorPoint: "A-32" 430.55 0 basechar 0
AnchorPoint: "A-31" 430.55 0 basechar 0
AnchorPoint: "A-30" 583.55 0 basechar 0
AnchorPoint: "A-29" 583.55 0 basechar 0
AnchorPoint: "A-28" 464.55 0 basechar 0
AnchorPoint: "A-27" 277.55 0 basechar 0
AnchorPoint: "A-26" 524.05 0 basechar 0
AnchorPoint: "A-25" 154.3 0 basechar 0
AnchorPoint: "A-24" 428 0 basechar 0
AnchorPoint: "A-23" 430.55 0 basechar 0
AnchorPoint: "A-20" 128.8 0 basechar 0
AnchorPoint: "A-7" 358.3 0 basechar 0
AnchorPoint: "A-6" 358.3 0 basechar 0
AnchorPoint: "A-5" 358.3 0 basechar 0
AnchorPoint: "A-4" 358.3 0 basechar 0
AnchorPoint: "A-2" 430.55 0 basechar 0
AnchorPoint: "A-1" 430.55 0 basechar 0
AnchorPoint: "A-0" 430.55 0 basechar 0
LayerCount: 2
Fore
SplineSet
363 1050 m 1x40
 437 1028 560 1015 560 914 c 1x80
 560 876 511 802 484 756 c 1
 475 729 472 706 472 684 c 0
 472 645 483 612 488 574 c 1
 521 459 543 330 614 307 c 1
 648 277 648 213 648 165 c 1
 648 93 640 69 620 7 c 1
 583 -38 579 -37 564 -52 c 1
 499 101 421 182 346 182 c 0
 240 182 198 83 108 -49 c 1
 76 -11 l 1
 76 233 169 323 410 391 c 1
 386 453 363 568 363 631 c 0x40
 363 698 368 771 376 824 c 1
 319 836 279 835 196 868 c 1
 196 962 l 1
 196 1001 l 1x80
 219 1064 253 1097 298 1128 c 1
 299 1119 338 1071 363 1050 c 1x40
EndSplineSet
Validated: 1
LCarets2: 1 54 
MultipleSubs2: "Add hairspace before narrowletter subtable subtable" hairspace gimel
MultipleSubs2: "Add hairspace before low marked Qof" gimel hairspace
EndChar

StartChar: dalet
Encoding: 1491 1491 65
Width: 925
GlyphClass: 2
Flags: W
HStem: 827 209<243.665 616.192>
VStem: 592 129<415.393 785> 656 130<75.3828 448.121>
AnchorPoint: "A-69" 581.25 0 basechar 0
AnchorPoint: "A-68" 513.25 0 basechar 0
AnchorPoint: "A-67" 411.25 0 basechar 0
AnchorPoint: "A-66" 581.25 0 basechar 0
AnchorPoint: "A-65" 496.25 0 basechar 0
AnchorPoint: "A-64" 411.25 0 basechar 0
AnchorPoint: "A-63" 581.25 0 basechar 0
AnchorPoint: "A-62" 496.25 0 basechar 0
AnchorPoint: "A-61" 411.25 0 basechar 0
AnchorPoint: "A-59" 96.75 0 basechar 0
AnchorPoint: "A-55" 776.75 -10 basechar 0
AnchorPoint: "A-42" 509 0 basechar 0
AnchorPoint: "A-39" 513.25 0 basechar 0
AnchorPoint: "A-36" 518.35 0 basechar 0
AnchorPoint: "A-21" -268.75 0 basechar 0
AnchorPoint: "A-19" 419.75 0 basechar 0
AnchorPoint: "A-18" 551.5 0 basechar 0
AnchorPoint: "A-17" 551.5 0 basechar 0
AnchorPoint: "A-16" 419.75 0 basechar 0
AnchorPoint: "A-15" 551.5 0 basechar 0
AnchorPoint: "A-14" 551.5 0 basechar 0
AnchorPoint: "A-13" 419.75 0 basechar 0
AnchorPoint: "A-12" 551.5 0 basechar 0
AnchorPoint: "A-11" 551.5 0 basechar 0
AnchorPoint: "A-10" 419.75 0 basechar 0
AnchorPoint: "A-9" 551.5 0 basechar 0
AnchorPoint: "A-8" 551.5 0 basechar 0
AnchorPoint: "A-58" 487.75 0 basechar 0
AnchorPoint: "A-41" 377.25 0 basechar 0
AnchorPoint: "A-40" 674.75 0 basechar 0
AnchorPoint: "A-32" 513.25 0 basechar 0
AnchorPoint: "A-31" 513.25 0 basechar 0
AnchorPoint: "A-30" 513.25 0 basechar 0
AnchorPoint: "A-29" 513.25 0 basechar 0
AnchorPoint: "A-28" 509 0 basechar 0
AnchorPoint: "A-27" 513.25 0 basechar 0
AnchorPoint: "A-26" 776.75 -10 basechar 0
AnchorPoint: "A-25" 79.75 0 basechar 0
AnchorPoint: "A-24" 518.35 0 basechar 0
AnchorPoint: "A-23" 513.25 0 basechar 0
AnchorPoint: "A-20" 11.75 0 basechar 0
AnchorPoint: "A-7" 504.75 0 basechar 0
AnchorPoint: "A-6" 560 0 basechar 0
AnchorPoint: "A-5" 679 0 basechar 0
AnchorPoint: "A-4" 679 0 basechar 0
AnchorPoint: "A-2" 513.25 0 basechar 0
AnchorPoint: "A-1" 513.25 0 basechar 0
AnchorPoint: "A-0" 513.25 0 basechar 0
LayerCount: 2
Fore
SplineSet
621 841 m 5xc0
 535 828 460 827 374 827 c 5
 220 827 169 842 159 847 c 13
 128 944 l 29
 100 972 l 21
 120 1050 155 1099 196 1140 c 5
 227 1106 236 1061 316 1046 c 5
 394 1038 377 1036 460 1036 c 4
 559 1036 720 1042 822 1056 c 5
 854 997 870 927 870 852 c 5
 786 832 721 749 721 685 c 4xc0
 721 567 786 386 786 244 c 4
 786 220 784 196 779 173 c 5
 768 116 733 51 680 -22 c 13
 656 0 l 21xa0
 656 169 652 298 604 482 c 5
 604 506 592 588 592 609 c 4
 592 633 592 656 592 679 c 4
 592 730 596 780 621 841 c 5xc0
EndSplineSet
Validated: 1
LCarets2: 1 73 
MultipleSubs2: "Add hairspace before low marked Qof" dalet hairspace
Substitution2: "'jalt' Wide Letter Alternatives in Hebrew subtable" dalet.wide
EndChar

StartChar: he
Encoding: 1492 1492 66
Width: 1099
GlyphClass: 2
Flags: W
HStem: 832 192<371.847 845.79> 850 200<673.641 849 971.35 977.294>
VStem: 247 122<246.166 522.391> 810 128<413.254 817.963>
AnchorPoint: "A-69" 613.925 0 basechar 0
AnchorPoint: "A-68" 613.925 0 basechar 0
AnchorPoint: "A-67" 613.925 0 basechar 0
AnchorPoint: "A-66" 613.925 0 basechar 0
AnchorPoint: "A-65" 613.925 0 basechar 0
AnchorPoint: "A-64" 613.925 0 basechar 0
AnchorPoint: "A-63" 613.925 0 basechar 0
AnchorPoint: "A-62" 613.925 0 basechar 0
AnchorPoint: "A-61" 613.925 0 basechar 0
AnchorPoint: "A-59" 116.675 0 basechar 0
AnchorPoint: "A-55" 898.675 0 basechar 0
AnchorPoint: "A-42" 613.925 0 basechar 0
AnchorPoint: "A-39" 618.175 0 basechar 0
AnchorPoint: "A-36" 612.225 0 basechar 0
AnchorPoint: "A-21" -248.825 0 basechar 0
AnchorPoint: "A-16" 613.925 0 basechar 0
AnchorPoint: "A-15" 613.925 0 basechar 0
AnchorPoint: "A-14" 613.925 0 basechar 0
AnchorPoint: "A-13" 613.925 0 basechar 0
AnchorPoint: "A-12" 613.925 0 basechar 0
AnchorPoint: "A-11" 613.925 0 basechar 0
AnchorPoint: "A-10" 613.925 0 basechar 0
AnchorPoint: "A-9" 613.925 0 basechar 0
AnchorPoint: "A-8" 613.925 0 basechar 0
AnchorPoint: "A-58" 618.175 0 basechar 0
AnchorPoint: "A-41" 584.175 0 basechar 0
AnchorPoint: "A-40" 613.925 0 basechar 0
AnchorPoint: "A-32" 618.175 0 basechar 0
AnchorPoint: "A-31" 618.175 0 basechar 0
AnchorPoint: "A-30" 618.175 0 basechar 0
AnchorPoint: "A-29" 618.175 0 basechar 0
AnchorPoint: "A-28" 528.925 0 basechar 0
AnchorPoint: "A-27" 618.175 0 basechar 0
AnchorPoint: "A-26" 898.675 0 basechar 0
AnchorPoint: "A-25" 184.675 0 basechar 0
AnchorPoint: "A-24" 612.225 0 basechar 0
AnchorPoint: "A-23" 618.175 0 basechar 0
AnchorPoint: "A-20" 116.675 0 basechar 0
AnchorPoint: "A-7" 613.925 0 basechar 0
AnchorPoint: "A-6" 613.925 0 basechar 0
AnchorPoint: "A-5" 613.925 0 basechar 0
AnchorPoint: "A-4" 613.925 0 basechar 0
AnchorPoint: "A-2" 618.175 0 basechar 0
AnchorPoint: "A-1" 618.175 0 basechar 0
AnchorPoint: "A-0" 618.175 0 basechar 0
LayerCount: 2
Fore
SplineSet
429 224 m 5x30
 404 148 360 18 327 -36 c 13
 279 -12 l 21
 265 67 247 187 247 268 c 4
 247 439 309 622 417 746 c 5
 393 634 369 547 369 462 c 4
 369 438 l 4
 369 355 371 292 429 224 c 5x30
849 850 m 5x70
 763 837 678 832 592 832 c 4xb0
 480 832 368 850 256 850 c 13x70
 224 952 l 29
 196 980 l 21
 216 1058 251 1107 292 1148 c 5
 323 1114 348 1063 428 1048 c 5
 506 1031 586 1024 669 1024 c 4xb0
 768 1024 868 1036 970 1050 c 5
 1002 991 1023 931 1023 856 c 5
 959 813 938 757 938 693 c 4
 938 575 1003 380 1003 238 c 4
 1003 214 1001 190 996 167 c 5
 985 110 950 45 897 -28 c 13
 873 -7 l 21
 854 159 848 369 810 550 c 5
 810 574 810 596 810 617 c 4
 810 696 813 762 849 850 c 5x70
EndSplineSet
Validated: 1
LCarets2: 1 88 
MultipleSubs2: "Add hairspace before low marked Qof" he hairspace
Substitution2: "'jalt' Wide Letter Alternatives in Hebrew subtable" he.wide
EndChar

StartChar: vav
Encoding: 1493 1493 67
Width: 500
GlyphClass: 2
Flags: W
VStem: 307 128<280.712 826.287> 325 108<62 503.204>
AnchorPoint: "A-69" 276.25 0 basechar 0
AnchorPoint: "A-68" 263.5 0 basechar 0
AnchorPoint: "A-67" 310.25 0 basechar 0
AnchorPoint: "A-66" 276.25 0 basechar 0
AnchorPoint: "A-65" 208.25 0 basechar 0
AnchorPoint: "A-64" 276.25 0 basechar 0
AnchorPoint: "A-63" 276.25 0 basechar 0
AnchorPoint: "A-62" 208.25 0 basechar 0
AnchorPoint: "A-61" 276.25 0 basechar 0
AnchorPoint: "A-59" 68 0 basechar 0
AnchorPoint: "A-55" 399.5 0 basechar 0
AnchorPoint: "A-42" 361.25 0 basechar 0
AnchorPoint: "A-39" 306 0 basechar 0
AnchorPoint: "A-36" 306 0 basechar 0
AnchorPoint: "A-21" 170 0 basechar 0
AnchorPoint: "A-16" 306 0 basechar 0
AnchorPoint: "A-15" 314.5 0 basechar 0
AnchorPoint: "A-14" 344.25 0 basechar 0
AnchorPoint: "A-13" 314.5 0 basechar 0
AnchorPoint: "A-12" 361.25 0 basechar 0
AnchorPoint: "A-11" 361.25 0 basechar 0
AnchorPoint: "A-10" 314.5 0 basechar 0
AnchorPoint: "A-9" 361.25 0 basechar 0
AnchorPoint: "A-8" 361.25 0 basechar 0
AnchorPoint: "A-58" 306 0 basechar 0
AnchorPoint: "A-41" 68 0 basechar 0
AnchorPoint: "A-40" 301.75 0 basechar 0
AnchorPoint: "A-32" 306 0 basechar 0
AnchorPoint: "A-31" 306 0 basechar 0
AnchorPoint: "A-30" 442 0 basechar 0
AnchorPoint: "A-29" 493 0 basechar 0
AnchorPoint: "A-28" 480.25 0 basechar 0
AnchorPoint: "A-27" 153 0 basechar 0
AnchorPoint: "A-26" 399.5 0 basechar 0
AnchorPoint: "A-25" 85 0 basechar 0
AnchorPoint: "A-24" 306 0 basechar 0
AnchorPoint: "A-23" 306 0 basechar 0
AnchorPoint: "A-20" 170 0 basechar 0
AnchorPoint: "A-7" 314.5 0 basechar 0
AnchorPoint: "A-6" 314.5 0 basechar 0
AnchorPoint: "A-5" 361.25 0 basechar 0
AnchorPoint: "A-4" 361.25 0 basechar 0
AnchorPoint: "A-2" 306 0 basechar 0
AnchorPoint: "A-1" 306 0 basechar 0
AnchorPoint: "A-0" 306 0 basechar 0
LayerCount: 2
Fore
SplineSet
325 62 m 1x40
 325 166 307 684 307 747 c 1
 307 787 304 827 251 827 c 9
 147 827 l 25
 115 942 l 25
 87 970 l 17
 107 1048 142 1097 183 1138 c 1
 214 1104 217 1062 297 1047 c 1
 312 1044 l 1
 430 1044 435 807 435 579 c 0
 435 545 435 512 435 479 c 0x80
 435 380 433 273 433 203 c 1
 415 127 402 46 354 -20 c 1
 325 62 l 1x40
EndSplineSet
Validated: 1
LCarets2: 1 39 
MultipleSubs2: "Add hairspace before narrowletter subtable subtable" hairspace vav
MultipleSubs2: "Add hairspace before low marked Qof" vav hairspace
EndChar

StartChar: zain
Encoding: 1494 1494 68
Width: 517
GlyphClass: 2
Flags: W
VStem: 130 143<516.942 715.574>
AnchorPoint: "A-69" 199.139 0 basechar 0
AnchorPoint: "A-68" 182.139 0 basechar 0
AnchorPoint: "A-67" 199.139 0 basechar 0
AnchorPoint: "A-66" 199.139 0 basechar 0
AnchorPoint: "A-65" 199.139 0 basechar 0
AnchorPoint: "A-64" 199.139 0 basechar 0
AnchorPoint: "A-63" 199.139 0 basechar 0
AnchorPoint: "A-62" 199.139 0 basechar 0
AnchorPoint: "A-61" 199.139 0 basechar 0
AnchorPoint: "A-59" 37.6387 0 basechar 0
AnchorPoint: "A-55" 462.639 0 basechar 0
AnchorPoint: "A-42" 292.639 0 basechar 0
AnchorPoint: "A-39" 296.889 0 basechar 0
AnchorPoint: "A-36" 309.639 0 basechar 0
AnchorPoint: "A-22" -183.361 0 basechar 0
AnchorPoint: "A-21" -327.861 0 basechar 0
AnchorPoint: "A-16" 267.139 0 basechar 0
AnchorPoint: "A-15" 233.139 0 basechar 0
AnchorPoint: "A-14" 275.639 0 basechar 0
AnchorPoint: "A-13" 284.139 0 basechar 0
AnchorPoint: "A-12" 292.639 0 basechar 0
AnchorPoint: "A-11" 292.639 0 basechar 0
AnchorPoint: "A-10" 284.139 0 basechar 0
AnchorPoint: "A-9" 292.639 0 basechar 0
AnchorPoint: "A-8" 292.639 0 basechar 0
AnchorPoint: "A-58" 309.639 0 basechar 0
AnchorPoint: "A-41" -13.3613 0 basechar 0
AnchorPoint: "A-40" 241.639 0 basechar 0
AnchorPoint: "A-32" 309.639 0 basechar 0
AnchorPoint: "A-31" 309.639 0 basechar 0
AnchorPoint: "A-30" 411.639 0 basechar 0
AnchorPoint: "A-29" 428.639 0 basechar 0
AnchorPoint: "A-28" 449.889 0 basechar 0
AnchorPoint: "A-27" 224.639 0 basechar 0
AnchorPoint: "A-26" 462.639 0 basechar 0
AnchorPoint: "A-25" 63.1387 0 basechar 0
AnchorPoint: "A-24" 309.639 0 basechar 0
AnchorPoint: "A-23" 296.889 0 basechar 0
AnchorPoint: "A-20" -4.86133 0 basechar 0
AnchorPoint: "A-7" 284.139 0 basechar 0
AnchorPoint: "A-6" 284.139 0 basechar 0
AnchorPoint: "A-5" 292.639 0 basechar 0
AnchorPoint: "A-4" 292.639 0 basechar 0
AnchorPoint: "A-2" 296.889 0 basechar 0
AnchorPoint: "A-1" 296.889 0 basechar 0
AnchorPoint: "A-0" 296.889 0 basechar 0
LayerCount: 2
Fore
SplineSet
146 1167 m 1
 285 1031 368 1004 476 952 c 1
 483 927 485 903 485 878 c 0
 485 824 472 770 456 716 c 9
 313 784 l 17
 308 786 302 788 297 788 c 0
 288 788 280 783 273 768 c 1
 273 703 293 664 293 624 c 1
 324 442 376 409 376 242 c 0
 376 164 368 183 350 106 c 9
 286 -20 l 17
 222 232 190 312 130 484 c 1
 130 494 130 505 130 517 c 0
 130 595 169 699 208 816 c 1
 210 824 211 833 202 839 c 1
 151 870 129 875 94 924 c 1
 94 1005 99 1064 146 1167 c 1
EndSplineSet
Validated: 1
LCarets2: 1 46 
MultipleSubs2: "Add hairspace before narrowletter subtable subtable" hairspace zain
MultipleSubs2: "Add hairspace before low marked Qof" zain hairspace
EndChar

StartChar: het
Encoding: 1495 1495 69
Width: 1142
GlyphClass: 2
Flags: W
HStem: 828 204<423.53 888.969> 846 210<721.642 893 1015.35 1026.21>
VStem: 260 128<253.441 794.274> 281 133<64 650.431> 867 115<463.068 817.194> 913 140<97.3765 527.493>
AnchorPoint: "A-69" 668.325 0 basechar 0
AnchorPoint: "A-68" 668.325 0 basechar 0
AnchorPoint: "A-67" 668.325 0 basechar 0
AnchorPoint: "A-66" 668.325 0 basechar 0
AnchorPoint: "A-65" 668.325 0 basechar 0
AnchorPoint: "A-64" 668.325 0 basechar 0
AnchorPoint: "A-63" 668.325 0 basechar 0
AnchorPoint: "A-62" 668.325 0 basechar 0
AnchorPoint: "A-61" 668.325 0 basechar 0
AnchorPoint: "A-59" 132.825 0 basechar 0
AnchorPoint: "A-55" 957.325 0 basechar 0
AnchorPoint: "A-42" 668.325 0 basechar 0
AnchorPoint: "A-39" 659.825 0 basechar 0
AnchorPoint: "A-36" 659.825 0 basechar 0
AnchorPoint: "A-21" -232.675 0 basechar 0
AnchorPoint: "A-16" 668.325 0 basechar 0
AnchorPoint: "A-15" 668.325 0 basechar 0
AnchorPoint: "A-14" 668.325 0 basechar 0
AnchorPoint: "A-13" 668.325 0 basechar 0
AnchorPoint: "A-12" 668.325 0 basechar 0
AnchorPoint: "A-11" 668.325 0 basechar 0
AnchorPoint: "A-10" 668.325 0 basechar 0
AnchorPoint: "A-9" 668.325 0 basechar 0
AnchorPoint: "A-8" 668.325 0 basechar 0
AnchorPoint: "A-58" 659.825 0 basechar 0
AnchorPoint: "A-41" 625.825 0 basechar 0
AnchorPoint: "A-40" 668.325 0 basechar 0
AnchorPoint: "A-32" 659.825 0 basechar 0
AnchorPoint: "A-31" 659.825 0 basechar 0
AnchorPoint: "A-30" 659.825 0 basechar 0
AnchorPoint: "A-29" 659.825 0 basechar 0
AnchorPoint: "A-28" 545.075 0 basechar 0
AnchorPoint: "A-27" 659.825 0 basechar 0
AnchorPoint: "A-26" 957.325 0 basechar 0
AnchorPoint: "A-25" 200.825 0 basechar 0
AnchorPoint: "A-24" 659.825 0 basechar 0
AnchorPoint: "A-23" 659.825 0 basechar 0
AnchorPoint: "A-20" 132.825 0 basechar 0
AnchorPoint: "A-7" 668.325 0 basechar 0
AnchorPoint: "A-6" 668.325 0 basechar 0
AnchorPoint: "A-5" 668.325 0 basechar 0
AnchorPoint: "A-4" 668.325 0 basechar 0
AnchorPoint: "A-3" 668.325 0 basechar 0
AnchorPoint: "A-2" 659.825 0 basechar 0
AnchorPoint: "A-1" 659.825 0 basechar 0
AnchorPoint: "A-0" 659.825 0 basechar 0
LayerCount: 2
Fore
SplineSet
299 813 m 1xa0
 344 846 l 1x60
 311 846 279 852 251 852 c 9
 219 952 l 25
 191 980 l 17
 211 1058 246 1107 287 1148 c 1
 318 1114 347 1075 427 1060 c 1
 505 1043 634 1032 717 1032 c 0xa0
 816 1032 917 1042 1019 1056 c 1
 1051 997 1067 927 1067 852 c 1
 1003 809 982 753 982 689 c 0x68
 982 571 1053 426 1053 284 c 0
 1053 260 1051 236 1046 213 c 1
 1035 156 989 34 936 -39 c 9
 913 -18 l 17
 913 31 913 77 913 123 c 0x44
 913 236 908 347 877 496 c 1
 877 520 867 584 867 605 c 0
 867 633 867 661 867 689 c 0
 867 739 870 789 893 846 c 1x48
 807 833 722 828 636 828 c 0
 589 828 533 837 476 837 c 1
 412 794 388 720 388 656 c 0xa8
 388 538 414 368 414 226 c 0
 414 202 412 178 407 155 c 1
 396 98 353 34 300 -39 c 9
 276 -18 l 17
 276 97 281 176 281 250 c 0x90
 281 323 279 422 260 513 c 1
 260 537 260 559 260 580 c 0
 260 659 263 725 299 813 c 1xa0
EndSplineSet
Validated: 1
LCarets2: 1 91 
MultipleSubs2: "Add hairspace before low marked Qof" het hairspace
EndChar

StartChar: tet
Encoding: 1496 1496 70
Width: 1083
GlyphClass: 2
Flags: W
HStem: 907 186<624.451 808.353>
VStem: 239 114<444.574 799.037> 257 96<658.746 785.295> 511 71<795 861.166> 875 135<396.669 834.237>
AnchorPoint: "A-69" 574.25 0 basechar 0
AnchorPoint: "A-68" 574.25 0 basechar 0
AnchorPoint: "A-67" 574.25 0 basechar 0
AnchorPoint: "A-66" 574.25 0 basechar 0
AnchorPoint: "A-65" 574.25 0 basechar 0
AnchorPoint: "A-64" 574.25 0 basechar 0
AnchorPoint: "A-63" 574.25 0 basechar 0
AnchorPoint: "A-62" 574.25 0 basechar 0
AnchorPoint: "A-61" 574.25 0 basechar 0
AnchorPoint: "A-59" 72.75 0 basechar 0
AnchorPoint: "A-55" 888.75 0 basechar 0
AnchorPoint: "A-42" 574.25 0 basechar 0
AnchorPoint: "A-39" 574.25 0 basechar 0
AnchorPoint: "A-36" 574.25 0 basechar 0
AnchorPoint: "A-21" -292.75 0 basechar 0
AnchorPoint: "A-16" 574.25 0 basechar 0
AnchorPoint: "A-15" 574.25 0 basechar 0
AnchorPoint: "A-14" 574.25 0 basechar 0
AnchorPoint: "A-13" 574.25 0 basechar 0
AnchorPoint: "A-12" 574.25 0 basechar 0
AnchorPoint: "A-11" 574.25 0 basechar 0
AnchorPoint: "A-10" 574.25 0 basechar 0
AnchorPoint: "A-9" 574.25 0 basechar 0
AnchorPoint: "A-8" 574.25 0 basechar 0
AnchorPoint: "A-58" 574.25 0 basechar 0
AnchorPoint: "A-41" 531.75 0 basechar 0
AnchorPoint: "A-40" 574.25 0 basechar 0
AnchorPoint: "A-32" 574.25 0 basechar 0
AnchorPoint: "A-31" 574.25 0 basechar 0
AnchorPoint: "A-30" 574.25 0 basechar 0
AnchorPoint: "A-29" 574.25 0 basechar 0
AnchorPoint: "A-28" 485 0 basechar 0
AnchorPoint: "A-27" 574.25 0 basechar 0
AnchorPoint: "A-26" 888.75 0 basechar 0
AnchorPoint: "A-25" 123.75 0 basechar 0
AnchorPoint: "A-24" 574.25 0 basechar 0
AnchorPoint: "A-23" 574.25 0 basechar 0
AnchorPoint: "A-20" 55.75 0 basechar 0
AnchorPoint: "A-7" 574.25 0 basechar 0
AnchorPoint: "A-6" 574.25 0 basechar 0
AnchorPoint: "A-5" 574.25 0 basechar 0
AnchorPoint: "A-4" 574.25 0 basechar 0
AnchorPoint: "A-2" 574.25 0 basechar 0
AnchorPoint: "A-1" 574.25 0 basechar 0
AnchorPoint: "A-0" 574.25 0 basechar 0
LayerCount: 2
Fore
SplineSet
356 786 m 1xb8
 354 771 353 754 353 736 c 0
 353 564 456 218 463 218 c 1
 485 218 507 214 528 214 c 0
 651 214 740 309 829 393 c 1
 850 412 875 493 875 601 c 0
 875 732 865 866 740 902 c 1
 732 905 725 907 718 907 c 1
 661 907 594 878 582 776 c 9
 511 795 l 17
 511 969 576 1015 640 1060 c 1
 673 1082 723 1093 766 1093 c 0
 809 1093 857 1080 914 1048 c 1
 1000 985 1010 874 1010 765 c 0
 1010 732 1009 700 1009 671 c 0
 1009 520 988 334 890 190 c 1
 762 72 582 4 374 -18 c 1
 289 125 239 415 239 657 c 1xd8
 247 695 257 684 257 819 c 9
 134 898 l 17
 149 1006 l 1
 134 1039 l 1
 175 1091 204 1138 242 1174 c 1
 249 1132 290 1091 332 1057 c 1
 399 1035 426 1006 426 942 c 1
 426 887 385 826 356 786 c 1xb8
EndSplineSet
Validated: 1
LCarets2: 1 85 
MultipleSubs2: "Add hairspace before low marked Qof" tet hairspace
EndChar

StartChar: yod
Encoding: 1497 1497 71
Width: 491
GlyphClass: 2
Flags: W
HStem: 477 675
VStem: 301 137<608.957 828.073>
AnchorPoint: "A-69" 232.875 0 basechar 0
AnchorPoint: "A-68" 224.375 0 basechar 0
AnchorPoint: "A-67" 232.875 0 basechar 0
AnchorPoint: "A-66" 232.875 0 basechar 0
AnchorPoint: "A-65" 232.875 0 basechar 0
AnchorPoint: "A-64" 232.875 0 basechar 0
AnchorPoint: "A-63" 232.875 0 basechar 0
AnchorPoint: "A-62" 232.875 0 basechar 0
AnchorPoint: "A-61" 232.875 0 basechar 0
AnchorPoint: "A-59" 54.375 0 basechar 0
AnchorPoint: "A-55" 394.375 0 basechar 0
AnchorPoint: "A-42" 258.375 0 basechar 0
AnchorPoint: "A-39" 271.125 0 basechar 0
AnchorPoint: "A-36" 292.375 0 basechar 0
AnchorPoint: "A-22" -192.125 0 basechar 0
AnchorPoint: "A-21" -311.125 0 basechar 0
AnchorPoint: "A-16" 249.875 0 basechar 0
AnchorPoint: "A-15" 249.875 0 basechar 0
AnchorPoint: "A-14" 249.875 0 basechar 0
AnchorPoint: "A-13" 249.875 0 basechar 0
AnchorPoint: "A-12" 249.875 0 basechar 0
AnchorPoint: "A-11" 249.875 0 basechar 0
AnchorPoint: "A-10" 249.875 0 basechar 0
AnchorPoint: "A-9" 266.875 0 basechar 0
AnchorPoint: "A-8" 249.875 0 basechar 0
AnchorPoint: "A-58" 292.375 0 basechar 0
AnchorPoint: "A-41" -13.625 0 basechar 0
AnchorPoint: "A-40" 258.375 0 basechar 0
AnchorPoint: "A-32" 292.375 0 basechar 0
AnchorPoint: "A-31" 292.375 0 basechar 0
AnchorPoint: "A-30" 428.375 0 basechar 0
AnchorPoint: "A-29" 479.375 0 basechar 0
AnchorPoint: "A-28" 466.625 0 basechar 0
AnchorPoint: "A-27" 169.125 0 basechar 0
AnchorPoint: "A-26" 394.375 0 basechar 0
AnchorPoint: "A-25" 54.375 0 basechar 0
AnchorPoint: "A-24" 292.375 0 basechar 0
AnchorPoint: "A-23" 271.125 0 basechar 0
AnchorPoint: "A-20" -5.125 0 basechar 0
AnchorPoint: "A-7" 249.875 0 basechar 0
AnchorPoint: "A-6" 249.875 0 basechar 0
AnchorPoint: "A-5" 249.875 0 basechar 0
AnchorPoint: "A-4" 249.875 0 basechar 0
AnchorPoint: "A-2" 271.125 0 basechar 0
AnchorPoint: "A-1" 271.125 0 basechar 0
AnchorPoint: "A-0" 271.125 0 basechar 0
LayerCount: 2
Fore
SplineSet
129 852 m 9
 93 938 l 25
 67 968 l 17
 87 1046 118 1111 159 1152 c 1
 190 1118 226 1056 306 1041 c 1
 354 1026 346 1035 399 990 c 1
 435 957 438 898 438 840 c 0
 438 825 435 767 432 753 c 0
 408 651 399 622 352 477 c 9
 288 505 l 17
 288 567 297 623 297 669 c 1
 297 693 301 718 301 743 c 0
 301 801 279 852 129 852 c 9
EndSplineSet
Validated: 1
LCarets2: 1 36 
MultipleSubs2: "Add hairspace before narrowletter subtable subtable" hairspace yod
MultipleSubs2: "Add hairspace before low marked Qof" yod hairspace
EndChar

StartChar: finalkaf
Encoding: 1498 1498 72
Width: 909
GlyphClass: 2
Flags: W
HStem: 827 204<230.845 650.932> 845 210<507.642 653 791.969 812.207>
VStem: 571 162<136.363 745.598> 642 128<-302.406 220.965>
AnchorPoint: "A-69" 275.95 0 basechar 0
AnchorPoint: "A-68" 216.45 0 basechar 0
AnchorPoint: "A-67" 114.45 0 basechar 0
AnchorPoint: "A-66" 275.95 0 basechar 0
AnchorPoint: "A-65" 216.45 0 basechar 0
AnchorPoint: "A-64" 114.45 0 basechar 0
AnchorPoint: "A-63" 275.95 0 basechar 0
AnchorPoint: "A-62" 216.45 0 basechar 0
AnchorPoint: "A-61" 114.45 0 basechar 0
AnchorPoint: "A-59" 80.4502 0 basechar 0
AnchorPoint: "A-55" 760.45 0 basechar 0
AnchorPoint: "A-42" 199.45 0 basechar 0
AnchorPoint: "A-39" 496.95 0 basechar 0
AnchorPoint: "A-36" 502.05 0 basechar 0
AnchorPoint: "A-21" -285.05 0 basechar 0
AnchorPoint: "A-16" 122.95 0 basechar 0
AnchorPoint: "A-15" 224.95 0 basechar 0
AnchorPoint: "A-14" 343.95 0 basechar 0
AnchorPoint: "A-13" -21.5498 0 basechar 0
AnchorPoint: "A-12" 80.4502 0 basechar 0
AnchorPoint: "A-11" 199.45 0 basechar 0
AnchorPoint: "A-10" 122.95 0 basechar 0
AnchorPoint: "A-9" 224.95 0 basechar 0
AnchorPoint: "A-8" 343.95 0 basechar 0
AnchorPoint: "A-58" 471.45 0 basechar 0
AnchorPoint: "A-41" 488.45 0 basechar 0
AnchorPoint: "A-40" 386.45 0 basechar 0
AnchorPoint: "A-32" 496.95 0 basechar 0
AnchorPoint: "A-31" 496.95 0 basechar 0
AnchorPoint: "A-30" 496.95 0 basechar 0
AnchorPoint: "A-29" 496.95 0 basechar 0
AnchorPoint: "A-28" 492.7 0 basechar 0
AnchorPoint: "A-27" 496.95 0 basechar 0
AnchorPoint: "A-26" 760.45 0 basechar 0
AnchorPoint: "A-25" 80.4502 0 basechar 0
AnchorPoint: "A-24" 502.05 0 basechar 0
AnchorPoint: "A-23" 496.95 0 basechar 0
AnchorPoint: "A-20" 12.4502 0 basechar 0
AnchorPoint: "A-7" 207.95 0 basechar 0
AnchorPoint: "A-6" 275.95 0 basechar 0
AnchorPoint: "A-5" 369.45 0 basechar 0
AnchorPoint: "A-4" 386.45 0 basechar 0
AnchorPoint: "A-2" 496.95 0 basechar 0
AnchorPoint: "A-1" 496.95 0 basechar 0
AnchorPoint: "A-0" 496.95 0 basechar 0
LayerCount: 2
Fore
SplineSet
262 1055 m 1x60
 340 1038 420 1031 503 1031 c 0xa0
 602 1031 703 1041 805 1055 c 1
 837 996 853 926 853 851 c 1
 789 808 749 761 749 697 c 1
 737 627 733 563 733 502 c 0x60
 733 326 770 183 770 27 c 0
 770 -5 769 -37 765 -70 c 1
 765 -99 764 -126 761 -152 c 1
 761 -176 759 -200 754 -223 c 1
 743 -280 708 -345 655 -418 c 9
 631 -397 l 17
 638 -342 642 -292 642 -246 c 0x50
 642 -24 622 82 571 490 c 1
 571 514 571 536 571 557 c 0
 571 636 617 757 653 845 c 1x60
 567 832 508 827 422 827 c 1xa0
 315 840 249 841 149 870 c 9
 136 935 l 25
 108 963 l 17
 128 1041 163 1090 204 1131 c 1
 213 1121 220 1063 262 1055 c 1x60
EndSplineSet
Validated: 1
LCarets2: 1 72 
MultipleSubs2: "Add hairspace before low marked Qof" finalkaf hairspace
EndChar

StartChar: kaf
Encoding: 1499 1499 73
Width: 953
GlyphClass: 2
Flags: W
HStem: -16 219<173.274 518.313> 827 194<288.796 641.456>
VStem: 756 121<311.686 595.682>
AnchorPoint: "A-69" 463.65 0 basechar 0
AnchorPoint: "A-68" 463.65 0 basechar 0
AnchorPoint: "A-67" 463.65 0 basechar 0
AnchorPoint: "A-66" 463.65 0 basechar 0
AnchorPoint: "A-65" 463.65 0 basechar 0
AnchorPoint: "A-64" 463.65 0 basechar 0
AnchorPoint: "A-63" 463.65 0 basechar 0
AnchorPoint: "A-62" 463.65 0 basechar 0
AnchorPoint: "A-61" 463.65 0 basechar 0
AnchorPoint: "A-59" 72.6504 0 basechar 0
AnchorPoint: "A-55" 718.65 0 basechar 0
AnchorPoint: "A-42" 463.65 0 basechar 0
AnchorPoint: "A-39" 489.15 0 basechar 0
AnchorPoint: "A-36" 489.15 0 basechar 0
AnchorPoint: "A-21" -292.85 0 basechar 0
AnchorPoint: "A-16" 463.65 0 basechar 0
AnchorPoint: "A-15" 463.65 0 basechar 0
AnchorPoint: "A-14" 463.65 0 basechar 0
AnchorPoint: "A-13" 463.65 0 basechar 0
AnchorPoint: "A-12" 463.65 0 basechar 0
AnchorPoint: "A-11" 463.65 0 basechar 0
AnchorPoint: "A-10" 463.65 0 basechar 0
AnchorPoint: "A-9" 463.65 0 basechar 0
AnchorPoint: "A-8" 463.65 0 basechar 0
AnchorPoint: "A-58" 489.15 0 basechar 0
AnchorPoint: "A-41" 395.65 0 basechar 0
AnchorPoint: "A-40" 463.65 0 basechar 0
AnchorPoint: "A-32" 489.15 0 basechar 0
AnchorPoint: "A-31" 489.15 0 basechar 0
AnchorPoint: "A-30" 506.15 0 basechar 0
AnchorPoint: "A-29" 523.15 0 basechar 0
AnchorPoint: "A-28" 484.9 0 basechar 0
AnchorPoint: "A-27" 455.15 0 basechar 0
AnchorPoint: "A-26" 718.65 0 basechar 0
AnchorPoint: "A-25" 123.65 0 basechar 0
AnchorPoint: "A-24" 489.15 0 basechar 0
AnchorPoint: "A-23" 489.15 0 basechar 0
AnchorPoint: "A-20" 38.6504 0 basechar 0
AnchorPoint: "A-7" 463.65 0 basechar 0
AnchorPoint: "A-6" 463.65 0 basechar 0
AnchorPoint: "A-5" 463.65 0 basechar 0
AnchorPoint: "A-4" 463.65 0 basechar 0
AnchorPoint: "A-2" 489.15 0 basechar 0
AnchorPoint: "A-1" 489.15 0 basechar 0
AnchorPoint: "A-0" 489.15 0 basechar 0
LayerCount: 2
Fore
SplineSet
792 913 m 5
 828 740 877 561 877 406 c 4
 877 307 857 217 801 145 c 5
 618 43 444 -16 125 -16 c 5
 139 66 147 129 179 203 c 5
 351 203 624 207 735 334 c 5
 750 351 756 374 756 400 c 4
 756 452 733 517 717 580 c 5
 681 682 681 814 559 827 c 13
 199 827 l 29
 167 927 l 29
 139 955 l 21
 159 1033 194 1082 235 1123 c 5
 266 1089 283 1053 369 1025 c 5
 415 1017 445 1014 489 1014 c 4
 542 1014 593 1021 638 1021 c 4
 712 1021 769 1003 792 913 c 5
EndSplineSet
Validated: 1
LCarets2: 1 74 
MultipleSubs2: "Add hairspace before low marked Qof" kaf hairspace
Substitution2: "'jalt' Wide Letter Alternatives in Hebrew subtable" kaf.wide
EndChar

StartChar: lamed
Encoding: 1500 1500 74
Width: 902
GlyphClass: 2
Flags: W
HStem: 836 210<246.401 675.069>
VStem: 82 200<1480.38 1560.38> 192 36<1180 1434> 475 158<27.8123 237.073> 475 111<131.948 323.547> 691 173<713.608 826.161>
AnchorPoint: "A-69" 369.325 0 basechar 0
AnchorPoint: "A-68" 343.825 0 basechar 0
AnchorPoint: "A-67" 369.325 0 basechar 0
AnchorPoint: "A-66" 369.325 0 basechar 0
AnchorPoint: "A-65" 343.825 0 basechar 0
AnchorPoint: "A-64" 369.325 0 basechar 0
AnchorPoint: "A-63" 369.325 0 basechar 0
AnchorPoint: "A-62" 343.825 0 basechar 0
AnchorPoint: "A-61" 369.325 0 basechar 0
AnchorPoint: "A-59" 105.825 0 basechar 0
AnchorPoint: "A-55" 768.825 0 basechar 0
AnchorPoint: "A-42" 454.325 0 basechar 0
AnchorPoint: "A-39" 573.325 0 basechar 0
AnchorPoint: "A-36" 632.825 0 basechar 0
AnchorPoint: "A-21" -259.675 0 basechar 0
AnchorPoint: "A-16" 454.325 0 basechar 0
AnchorPoint: "A-15" 454.325 0 basechar 0
AnchorPoint: "A-14" 454.325 0 basechar 0
AnchorPoint: "A-13" 454.325 0 basechar 0
AnchorPoint: "A-12" 454.325 0 basechar 0
AnchorPoint: "A-11" 454.325 0 basechar 0
AnchorPoint: "A-10" 462.825 0 basechar 0
AnchorPoint: "A-9" 471.325 0 basechar 0
AnchorPoint: "A-8" 462.825 0 basechar 0
AnchorPoint: "A-58" 488.325 0 basechar 0
AnchorPoint: "A-41" 318.325 0 basechar 0
AnchorPoint: "A-40" 454.325 0 basechar 0
AnchorPoint: "A-32" 811.325 0 basechar 0
AnchorPoint: "A-31" 658.325 0 basechar 0
AnchorPoint: "A-30" 326.825 0 basechar 0
AnchorPoint: "A-29" 301.325 0 basechar 0
AnchorPoint: "A-28" 263.075 0 basechar 0
AnchorPoint: "A-27" 513.825 0 basechar 0
AnchorPoint: "A-26" 768.825 0 basechar 0
AnchorPoint: "A-25" -81.1748 0 basechar 0
AnchorPoint: "A-24" 632.825 0 basechar 0
AnchorPoint: "A-23" 573.325 0 basechar 0
AnchorPoint: "A-20" -183.175 0 basechar 0
AnchorPoint: "A-7" 471.325 0 basechar 0
AnchorPoint: "A-6" 454.325 0 basechar 0
AnchorPoint: "A-5" 471.325 0 basechar 0
AnchorPoint: "A-4" 471.325 0 basechar 0
AnchorPoint: "A-2" 590.325 0 basechar 0
AnchorPoint: "A-1" 513.825 420 basechar 0
AnchorPoint: "A-0" 573.325 0 basechar 0
LayerCount: 2
Fore
SplineSet
737 1046 m 5xa4
 760 1041 775 1037 799 1013 c 5
 837 968 864 904 864 824 c 5
 819 665 627 376 589 266 c 4
 587 260 586 255 586 250 c 4xac
 586 226 607 207 633 200 c 5
 633 110 602 43 570 -16 c 5
 514 11 479 92 479 93 c 5
 479 112 475 137 475 170 c 4
 475 199 478 234 491 276 c 5
 499 317 619 424 691 719 c 5
 692 724 691 729 691 734 c 4
 691 785 653 836 620 836 c 13
 260 836 l 21
 160 836 131 913 131 1012 c 5
 131 1081 134 1154 144 1228 c 5
 152 1278 192 1377 192 1434 c 4xb4
 192 1459 184 1475 162 1475 c 5
 150 1475 136 1472 119 1467 c 5
 101 1467 82 1478 82 1497 c 4
 82 1504 84 1512 89 1520 c 13
 225 1672 l 21
 230 1675 236 1676 241 1676 c 4
 255 1676 269 1668 275 1656 c 5
 280 1634 282 1610 282 1584 c 4xc4
 282 1453 228 1285 228 1180 c 5
 228 1127 241 1052 290 1052 c 5
 392 1052 629 1046 737 1046 c 5xa4
EndSplineSet
Validated: 1
LCarets2: 1 67 
MultipleSubs2: "Add hairspace before low marked Qof" lamed hairspace
MultipleSubs2: "Add thispace after Lamed subtable" lamed thinspace
Substitution2: "'jalt' Wide Letter Alternatives in Hebrew subtable" lamed.wide
EndChar

StartChar: finalmem
Encoding: 1501 1501 75
Width: 1143
GlyphClass: 2
Flags: W
HStem: 838 201<373.344 861.1>
VStem: 262 90<338.453 823.437> 909 111<346.75 790>
AnchorPoint: "A-69" 634.9 0 basechar 0
AnchorPoint: "A-68" 634.9 0 basechar 0
AnchorPoint: "A-67" 634.9 0 basechar 0
AnchorPoint: "A-66" 634.9 0 basechar 0
AnchorPoint: "A-65" 634.9 0 basechar 0
AnchorPoint: "A-64" 634.9 0 basechar 0
AnchorPoint: "A-63" 634.9 0 basechar 0
AnchorPoint: "A-62" 634.9 0 basechar 0
AnchorPoint: "A-61" 634.9 0 basechar 0
AnchorPoint: "A-59" 154.65 0 basechar 0
AnchorPoint: "A-55" 919.65 0 basechar 0
AnchorPoint: "A-42" 634.9 0 basechar 0
AnchorPoint: "A-39" 639.15 0 basechar 0
AnchorPoint: "A-36" 639.15 0 basechar 0
AnchorPoint: "A-21" -210.85 0 basechar 0
AnchorPoint: "A-16" 634.9 0 basechar 0
AnchorPoint: "A-15" 634.9 0 basechar 0
AnchorPoint: "A-14" 634.9 0 basechar 0
AnchorPoint: "A-13" 634.9 0 basechar 0
AnchorPoint: "A-12" 634.9 0 basechar 0
AnchorPoint: "A-11" 634.9 0 basechar 0
AnchorPoint: "A-10" 634.9 0 basechar 0
AnchorPoint: "A-9" 634.9 0 basechar 0
AnchorPoint: "A-8" 634.9 0 basechar 0
AnchorPoint: "A-58" 639.15 0 basechar 0
AnchorPoint: "A-41" 545.65 0 basechar 0
AnchorPoint: "A-40" 634.9 0 basechar 0
AnchorPoint: "A-32" 639.15 0 basechar 0
AnchorPoint: "A-31" 154.65 0 basechar 0
AnchorPoint: "A-30" 639.15 0 basechar 0
AnchorPoint: "A-29" 639.15 0 basechar 0
AnchorPoint: "A-28" 566.9 0 basechar 0
AnchorPoint: "A-27" 639.15 0 basechar 0
AnchorPoint: "A-26" 919.65 0 basechar 0
AnchorPoint: "A-25" 188.65 0 basechar 0
AnchorPoint: "A-24" 639.15 0 basechar 0
AnchorPoint: "A-23" 639.15 0 basechar 0
AnchorPoint: "A-20" 120.65 0 basechar 0
AnchorPoint: "A-7" 634.9 0 basechar 0
AnchorPoint: "A-6" 634.9 0 basechar 0
AnchorPoint: "A-5" 634.9 0 basechar 0
AnchorPoint: "A-4" 634.9 0 basechar 0
AnchorPoint: "A-3" 602 0 basechar 0
AnchorPoint: "A-2" 639.15 0 basechar 0
AnchorPoint: "A-1" 639.15 0 basechar 0
AnchorPoint: "A-0" 639.15 0 basechar 0
LayerCount: 2
Fore
SplineSet
909 310 m 21
 909 360 909 411 909 462 c 4
 909 567 901 650 876 764 c 5
 869 826 752 846 622 846 c 4
 534 846 441 837 370 826 c 5
 354 768 352 729 352 666 c 4
 352 460 418 260 418 260 c 5
 424 219 449 187 488 187 c 4
 499 187 510 189 522 194 c 5
 684 254 909 310 909 310 c 21
208 852 m 9
 180 976 l 25
 152 1004 l 17
 172 1082 207 1131 248 1172 c 1
 279 1138 302 1077 382 1062 c 1
 450 1044 517 1039 584 1039 c 0
 680 1039 776 1050 870 1050 c 1
 972 1050 967 989 978 928 c 1
 1011 717 1020 578 1020 394 c 1
 1025 378 1030 362 1052 346 c 1
 1058 325 1061 306 1061 288 c 0
 1061 240 1044 199 1034 156 c 9
 394 -56 l 17
 336 -56 302 -33 302 116 c 1
 272 290 262 427 262 533 c 0
 262 782 316 838 316 838 c 1
 268 838 l 1
 250 838 211 852 208 852 c 9
EndSplineSet
Validated: 1
LCarets2: 1 83 
MultipleSubs2: "Add hairspace before low marked Qof" finalmem hairspace
Substitution2: "'jalt' Wide Letter Alternatives in Hebrew subtable" finalmem.wide
EndChar

StartChar: mem
Encoding: 1502 1502 76
Width: 1088
GlyphClass: 2
Flags: W
HStem: -42 213<343.021 707.562>
VStem: 878 123<254.372 734.191>
AnchorPoint: "A-69" 564.75 0 basechar 0
AnchorPoint: "A-68" 564.75 0 basechar 0
AnchorPoint: "A-67" 564.75 0 basechar 0
AnchorPoint: "A-66" 564.75 0 basechar 0
AnchorPoint: "A-65" 564.75 0 basechar 0
AnchorPoint: "A-64" 564.75 0 basechar 0
AnchorPoint: "A-63" 564.75 0 basechar 0
AnchorPoint: "A-62" 564.75 0 basechar 0
AnchorPoint: "A-61" 564.75 0 basechar 0
AnchorPoint: "A-59" 80.25 0 basechar 0
AnchorPoint: "A-55" 896.25 0 basechar 0
AnchorPoint: "A-42" 564.75 0 basechar 0
AnchorPoint: "A-39" 590.25 0 basechar 0
AnchorPoint: "A-36" 590.25 0 basechar 0
AnchorPoint: "A-21" -285.25 0 basechar 0
AnchorPoint: "A-16" 564.75 0 basechar 0
AnchorPoint: "A-15" 564.75 0 basechar 0
AnchorPoint: "A-14" 564.75 0 basechar 0
AnchorPoint: "A-13" 564.75 0 basechar 0
AnchorPoint: "A-12" 564.75 0 basechar 0
AnchorPoint: "A-11" 564.75 0 basechar 0
AnchorPoint: "A-10" 564.75 0 basechar 0
AnchorPoint: "A-9" 564.75 0 basechar 0
AnchorPoint: "A-8" 564.75 0 basechar 0
AnchorPoint: "A-58" 590.25 0 basechar 0
AnchorPoint: "A-41" 547.75 0 basechar 0
AnchorPoint: "A-40" 564.75 0 basechar 0
AnchorPoint: "A-32" 590.25 10 basechar 0
AnchorPoint: "A-31" 590.25 0 basechar 0
AnchorPoint: "A-30" 590.25 0 basechar 0
AnchorPoint: "A-29" 590.25 0 basechar 0
AnchorPoint: "A-28" 492.5 0 basechar 0
AnchorPoint: "A-27" 590.25 0 basechar 0
AnchorPoint: "A-26" 896.25 0 basechar 0
AnchorPoint: "A-25" 182.25 0 basechar 0
AnchorPoint: "A-24" 590.25 0 basechar 0
AnchorPoint: "A-23" 590.25 0 basechar 0
AnchorPoint: "A-20" 114.25 0 basechar 0
AnchorPoint: "A-7" 564.75 0 basechar 0
AnchorPoint: "A-6" 564.75 0 basechar 0
AnchorPoint: "A-5" 564.75 0 basechar 0
AnchorPoint: "A-4" 564.75 0 basechar 0
AnchorPoint: "A-2" 590.25 0 basechar 0
AnchorPoint: "A-1" 590.25 0 basechar 0
AnchorPoint: "A-0" 590.25 0 basechar 0
LayerCount: 2
Fore
SplineSet
309 1130 m 1
 332 1062 324 1045 458 955 c 1
 476 943 480 916 480 894 c 0
 480 877 477 866 476 863 c 0
 568 959 681 1037 795 1088 c 1
 1000 1088 1001 669 1001 393 c 0
 1001 385 l 0
 1001 337 1001 292 1001 252 c 1
 1001 -6 650 -9 335 -42 c 1
 323 -19 318 4 318 27 c 0
 318 75 340 123 365 171 c 1
 492 171 623 176 758 207 c 1
 829 230 878 282 878 400 c 0
 878 413 878 431 878 451 c 0
 878 519 876 619 855 692 c 1
 839 742 817 788 774 824 c 1
 434 725 411 488 300 230 c 1
 278 207 255 184 186 149 c 1
 186 299 278 499 366 719 c 1
 368 724 368 729 368 735 c 0
 368 773 338 848 199 880 c 1
 218 949 l 1
 218 950 218 950 218 951 c 0
 218 960 208 969 208 977 c 0
 208 978 208 978 208 979 c 1
 247 1064 268 1087 309 1130 c 1
EndSplineSet
Validated: 1
LCarets2: 1 89 
MultipleSubs2: "Add hairspace before low marked Qof" mem hairspace
EndChar

StartChar: finalnun
Encoding: 1503 1503 77
Width: 459
GlyphClass: 2
Flags: W
VStem: 166 143<242.984 718.921> 256 144<-191.3 204.664>
AnchorPoint: "A-69" -145.2 0 basechar 0
AnchorPoint: "A-68" -221.7 0 basechar 0
AnchorPoint: "A-67" -332.2 0 basechar 0
AnchorPoint: "A-66" -145.2 0 basechar 0
AnchorPoint: "A-65" -221.7 0 basechar 0
AnchorPoint: "A-64" -332.2 0 basechar 0
AnchorPoint: "A-63" -145.2 0 basechar 0
AnchorPoint: "A-62" -221.7 0 basechar 0
AnchorPoint: "A-61" -332.2 0 basechar 0
AnchorPoint: "A-59" 50.2998 0 basechar 0
AnchorPoint: "A-55" 381.8 0 basechar 0
AnchorPoint: "A-42" -187.7 0 basechar 0
AnchorPoint: "A-39" 288.3 0 basechar 0
AnchorPoint: "A-36" 288.3 0 basechar 0
AnchorPoint: "A-21" -315.2 0 basechar 0
AnchorPoint: "A-16" -315.2 0 basechar 0
AnchorPoint: "A-15" -221.7 0 basechar 0
AnchorPoint: "A-14" -98.4502 0 basechar 0
AnchorPoint: "A-13" -459.7 0 basechar 0
AnchorPoint: "A-12" -340.7 0 basechar 0
AnchorPoint: "A-11" -242.95 0 basechar 0
AnchorPoint: "A-10" -315.2 0 basechar 0
AnchorPoint: "A-9" -221.7 0 basechar 0
AnchorPoint: "A-8" -98.4502 0 basechar 0
AnchorPoint: "A-58" 288.3 0 basechar 0
AnchorPoint: "A-41" 75.7998 0 basechar 0
AnchorPoint: "A-40" -9.2002 0 basechar 0
AnchorPoint: "A-32" 288.3 0 basechar 0
AnchorPoint: "A-31" 288.3 0 basechar 0
AnchorPoint: "A-30" 441.3 0 basechar 0
AnchorPoint: "A-29" 492.3 0 basechar 0
AnchorPoint: "A-28" 462.55 0 basechar 0
AnchorPoint: "A-27" 118.3 0 basechar 0
AnchorPoint: "A-26" 381.8 0 basechar 0
AnchorPoint: "A-25" 50.2998 0 basechar 0
AnchorPoint: "A-24" 288.3 0 basechar 0
AnchorPoint: "A-23" 288.3 0 basechar 0
AnchorPoint: "A-20" -9.2002 0 basechar 0
AnchorPoint: "A-7" -204.7 0 basechar 0
AnchorPoint: "A-6" -170.7 0 basechar 0
AnchorPoint: "A-5" -60.2002 0 basechar 0
AnchorPoint: "A-4" 50.2998 0 basechar 0
AnchorPoint: "A-3" 50.2998 0 basechar 0
AnchorPoint: "A-2" 288.3 0 basechar 0
AnchorPoint: "A-1" 288.3 0 basechar 0
AnchorPoint: "A-0" 288.3 0 basechar 0
LayerCount: 2
Fore
SplineSet
222 151 m 1x40
 198 285 166 364 166 503 c 24
 166 611 181 686 241 770 c 1
 204 806 75 915 75 915 c 17
 114 1011 l 1
 99 1044 l 1
 122 1107 162 1148 207 1179 c 1
 214 1137 226 1095 268 1061 c 1
 339 1017 298 1041 380 999 c 1
 408 983 417 952 417 931 c 1
 404 860 385 790 317 720 c 1
 313 697 311 673 311 647 c 0
 311 607 309 557 309 510 c 0x80
 309 477 310 445 313 419 c 0
 331 260 400 166 400 -10 c 0
 400 -65 367 -217 274 -337 c 9
 274 -337 230 -372 217 -394 c 1
 217 -375 256 -287 256 -178 c 1
 256 -76 230 86 222 151 c 1x40
EndSplineSet
Validated: 1
LCarets2: 1 36 
MultipleSubs2: "Add hairspace before narrowletter subtable subtable" hairspace finalnun
MultipleSubs2: "Add hairspace before low marked Qof" finalnun hairspace
EndChar

StartChar: nun
Encoding: 1504 1504 78
Width: 609
GlyphClass: 2
Flags: W
HStem: -46 220<89.2891 302.375>
VStem: 69 475<83.4093 166.137>
AnchorPoint: "A-69" 223.825 0 basechar 0
AnchorPoint: "A-68" 223.825 0 basechar 0
AnchorPoint: "A-67" 223.825 0 basechar 0
AnchorPoint: "A-66" 223.825 0 basechar 0
AnchorPoint: "A-65" 223.825 0 basechar 0
AnchorPoint: "A-64" 223.825 0 basechar 0
AnchorPoint: "A-63" 223.825 0 basechar 0
AnchorPoint: "A-62" 223.825 0 basechar 0
AnchorPoint: "A-61" 223.825 0 basechar 0
AnchorPoint: "A-59" 11.3252 0 basechar 0
AnchorPoint: "A-55" 478.825 0 basechar 0
AnchorPoint: "A-42" 283.325 0 basechar 0
AnchorPoint: "A-39" 334.325 0 basechar 0
AnchorPoint: "A-36" 351.325 0 basechar 0
AnchorPoint: "A-22" -141.675 0 basechar 0
AnchorPoint: "A-21" -332.925 0 basechar 0
AnchorPoint: "A-16" 283.325 0 basechar 0
AnchorPoint: "A-15" 283.325 0 basechar 0
AnchorPoint: "A-14" 283.325 0 basechar 0
AnchorPoint: "A-13" 283.325 0 basechar 0
AnchorPoint: "A-12" 283.325 0 basechar 0
AnchorPoint: "A-11" 283.325 0 basechar 0
AnchorPoint: "A-10" 283.325 0 basechar 0
AnchorPoint: "A-9" 283.325 0 basechar 0
AnchorPoint: "A-8" 283.325 0 basechar 0
AnchorPoint: "A-58" 351.325 0 basechar 0
AnchorPoint: "A-41" 79.3252 0 basechar 0
AnchorPoint: "A-40" 283.325 0 basechar 0
AnchorPoint: "A-32" 351.325 0 basechar 0
AnchorPoint: "A-31" 351.325 0 basechar 0
AnchorPoint: "A-30" 478.825 0 basechar 0
AnchorPoint: "A-29" 495.825 0 basechar 0
AnchorPoint: "A-28" 423.575 0 basechar 0
AnchorPoint: "A-27" 232.325 0 basechar 0
AnchorPoint: "A-26" 478.825 0 basechar 0
AnchorPoint: "A-25" 113.325 0 basechar 0
AnchorPoint: "A-24" 351.325 0 basechar 0
AnchorPoint: "A-23" 334.325 0 basechar 0
AnchorPoint: "A-20" 62.3252 0 basechar 0
AnchorPoint: "A-7" 283.325 0 basechar 0
AnchorPoint: "A-6" 283.325 0 basechar 0
AnchorPoint: "A-5" 283.325 0 basechar 0
AnchorPoint: "A-4" 283.325 0 basechar 0
AnchorPoint: "A-2" 334.325 0 basechar 0
AnchorPoint: "A-1" 334.325 0 basechar 0
AnchorPoint: "A-0" 334.325 0 basechar 0
LayerCount: 2
Fore
SplineSet
336 1068 m 1
 452 1001 476 930 476 930 c 17
 464 861 441 859 441 810 c 1
 437 782 435 756 435 729 c 0
 435 557 514 359 544 209 c 9
 544 209 526 111 506 82 c 1
 373 -2 233 -17 95 -46 c 1
 79 -14 69 18 69 52 c 0
 69 91 84 132 119 174 c 1
 200 174 281 195 362 245 c 9
 345 372 l 17
 327 520 349 631 308 813 c 1
 246 868 216 881 154 912 c 1
 178 986 l 1
 163 1019 l 1
 186 1082 231 1127 276 1158 c 1
 283 1116 294 1102 336 1068 c 1
EndSplineSet
Validated: 1
LCarets2: 1 47 
MultipleSubs2: "Add hairspace before narrowletter subtable subtable" hairspace nun
MultipleSubs2: "Add hairspace before low marked Qof" nun hairspace
EndChar

StartChar: samekh
Encoding: 1505 1505 79
Width: 1077
GlyphClass: 2
Flags: W
HStem: 806 220<378.301 823.731>
VStem: 254 101<390.704 726.108> 913 88<407.013 668.726>
AnchorPoint: "A-69" 614.7 0 basechar 0
AnchorPoint: "A-68" 614.7 0 basechar 0
AnchorPoint: "A-67" 614.7 0 basechar 0
AnchorPoint: "A-66" 614.7 0 basechar 0
AnchorPoint: "A-65" 614.7 0 basechar 0
AnchorPoint: "A-64" 614.7 0 basechar 0
AnchorPoint: "A-63" 614.7 0 basechar 0
AnchorPoint: "A-62" 614.7 0 basechar 0
AnchorPoint: "A-61" 614.7 0 basechar 0
AnchorPoint: "A-59" 121.7 0 basechar 0
AnchorPoint: "A-55" 903.7 0 basechar 0
AnchorPoint: "A-42" 614.7 0 basechar 0
AnchorPoint: "A-39" 606.2 0 basechar 0
AnchorPoint: "A-36" 614.7 0 basechar 0
AnchorPoint: "A-21" -235.3 0 basechar 0
AnchorPoint: "A-16" 614.7 0 basechar 0
AnchorPoint: "A-15" 614.7 0 basechar 0
AnchorPoint: "A-14" 614.7 0 basechar 0
AnchorPoint: "A-13" 614.7 0 basechar 0
AnchorPoint: "A-12" 614.7 0 basechar 0
AnchorPoint: "A-11" 614.7 0 basechar 0
AnchorPoint: "A-10" 614.7 0 basechar 0
AnchorPoint: "A-9" 614.7 0 basechar 0
AnchorPoint: "A-8" 614.7 0 basechar 0
AnchorPoint: "A-58" 606.2 0 basechar 0
AnchorPoint: "A-41" 546.7 0 basechar 0
AnchorPoint: "A-40" 614.7 0 basechar 0
AnchorPoint: "A-32" 606.2 0 basechar 0
AnchorPoint: "A-31" 606.2 0 basechar 0
AnchorPoint: "A-30" 606.2 0 basechar 0
AnchorPoint: "A-29" 606.2 0 basechar 0
AnchorPoint: "A-28" 533.95 0 basechar 0
AnchorPoint: "A-27" 606.2 0 basechar 0
AnchorPoint: "A-26" 903.7 0 basechar 0
AnchorPoint: "A-25" 172.7 0 basechar 0
AnchorPoint: "A-24" 614.7 0 basechar 0
AnchorPoint: "A-23" 606.2 0 basechar 0
AnchorPoint: "A-20" 121.7 0 basechar 0
AnchorPoint: "A-7" 614.7 0 basechar 0
AnchorPoint: "A-6" 614.7 0 basechar 0
AnchorPoint: "A-5" 614.7 0 basechar 0
AnchorPoint: "A-4" 614.7 0 basechar 0
AnchorPoint: "A-2" 606.2 0 basechar 0
AnchorPoint: "A-1" 606.2 0 basechar 0
AnchorPoint: "A-0" 606.2 0 basechar 0
LayerCount: 2
Fore
SplineSet
770 823 m 1
 660 807 525 806 415 806 c 1
 380 784 355 714 355 686 c 1
 355 523 356 407 512 200 c 1
 682 200 848 330 913 483 c 1
 913 633 803 818 770 823 c 1
379 1034 m 16
 425 1028 474 1026 522 1026 c 0
 652 1026 801 1040 852 1040 c 1
 934 919 1001 787 1001 543 c 1
 1001 372 975 342 931 216 c 1
 825 76 675 29 532 -42 c 9
 491 -35 l 17
 344 130 254 354 254 553 c 0
 254 589 257 623 263 658 c 1
 263 685 325 760 351 810 c 1
 293 818 275 823 222 838 c 9
 206 916 l 25
 178 944 l 17
 198 1022 233 1071 274 1112 c 1
 290 1070 328 1041 379 1034 c 16
EndSplineSet
Validated: 1
LCarets2: 1 87 
MultipleSubs2: "Add hairspace before low marked Qof" samekh hairspace
EndChar

StartChar: ayin
Encoding: 1506 1506 80
Width: 984
GlyphClass: 2
Flags: W
VStem: 129 704<11 780> 242 107<564.883 754.688>
AnchorPoint: "A-69" 498.125 0 basechar 0
AnchorPoint: "A-68" 498.125 0 basechar 0
AnchorPoint: "A-67" 498.125 0 basechar 0
AnchorPoint: "A-66" 498.125 0 basechar 0
AnchorPoint: "A-65" 498.125 0 basechar 0
AnchorPoint: "A-64" 498.125 0 basechar 0
AnchorPoint: "A-63" 498.125 0 basechar 0
AnchorPoint: "A-62" 498.125 0 basechar 0
AnchorPoint: "A-61" 498.125 0 basechar 0
AnchorPoint: "A-59" 64.625 0 basechar 0
AnchorPoint: "A-55" 855.125 0 basechar 0
AnchorPoint: "A-42" 498.125 0 basechar 0
AnchorPoint: "A-39" 523.625 0 basechar 0
AnchorPoint: "A-36" 523.625 0 basechar 0
AnchorPoint: "A-21" -300.875 0 basechar 0
AnchorPoint: "A-16" 532.125 0 basechar 0
AnchorPoint: "A-15" 498.125 0 basechar 0
AnchorPoint: "A-14" 498.125 0 basechar 0
AnchorPoint: "A-13" 532.125 0 basechar 0
AnchorPoint: "A-12" 498.125 0 basechar 0
AnchorPoint: "A-11" 498.125 0 basechar 0
AnchorPoint: "A-10" 532.125 0 basechar 0
AnchorPoint: "A-9" 498.125 0 basechar 0
AnchorPoint: "A-8" 498.125 0 basechar 0
AnchorPoint: "A-58" 523.625 0 basechar 0
AnchorPoint: "A-41" 362.125 0 basechar 0
AnchorPoint: "A-40" 498.125 0 basechar 0
AnchorPoint: "A-32" 523.625 0 basechar 0
AnchorPoint: "A-31" 523.625 0 basechar 0
AnchorPoint: "A-30" 523.625 0 basechar 0
AnchorPoint: "A-29" 523.625 0 basechar 0
AnchorPoint: "A-28" 476.875 0 basechar 0
AnchorPoint: "A-27" 523.625 0 basechar 0
AnchorPoint: "A-26" 855.125 0 basechar 0
AnchorPoint: "A-25" 124.125 0 basechar 0
AnchorPoint: "A-24" 523.625 0 basechar 0
AnchorPoint: "A-23" 523.625 0 basechar 0
AnchorPoint: "A-20" 47.625 0 basechar 0
AnchorPoint: "A-7" 464.125 0 basechar 0
AnchorPoint: "A-6" 532.125 0 basechar 0
AnchorPoint: "A-5" 498.125 0 basechar 0
AnchorPoint: "A-4" 498.125 0 basechar 0
AnchorPoint: "A-3" 552 60 basechar 0
AnchorPoint: "A-2" 523.625 0 basechar 0
AnchorPoint: "A-1" 523.625 0 basechar 0
AnchorPoint: "A-0" 523.625 0 basechar 0
LayerCount: 2
Fore
SplineSet
257 756 m 1x40
 196 784 186 760 125 844 c 1
 125 956 147 1035 193 1096 c 1
 262 1040 343 998 433 964 c 1
 387 872 360 805 349 760 c 1x40
 349 565 483 436 483 305 c 0
 483 289 481 272 477 254 c 1
 625 314 715 569 745 788 c 1
 685 819 633 818 593 892 c 1
 587 910 585 929 585 948 c 0
 585 1014 617 1084 677 1128 c 1
 755 1017 850 1004 938 960 c 1
 873 796 l 9
 833 780 l 17
 833 179 509 11 149 -144 c 1
 139 -91 129 -38 129 11 c 0x80
 129 52 135 90 153 124 c 1
 266 139 354 160 425 222 c 1
 378 346 242 530 242 673 c 0
 242 700 247 728 257 756 c 1x40
EndSplineSet
Validated: 1
LCarets2: 1 78 
Substitution2: "Automatic Alternate Ayin Subtable" ayin.alt
MultipleSubs2: "Add hairspace before low marked Qof" ayin hairspace
Substitution2: "'salt' Stylistic Alternatives in Hebrew subtable" ayin.alt
EndChar

StartChar: finalpe
Encoding: 1507 1507 81
Width: 907
GlyphClass: 2
Flags: W
HStem: 400 218<262.922 394.373>
VStem: 141 282<422.877 617.542> 151 86<641.643 864.726> 725 137<-241.166 632.357> 769 95<-305.531 159.258>
AnchorPoint: "A-69" 406.35 0 basechar 0
AnchorPoint: "A-68" 312.85 0 basechar 0
AnchorPoint: "A-67" 219.35 0 basechar 0
AnchorPoint: "A-66" 406.35 0 basechar 0
AnchorPoint: "A-65" 312.85 0 basechar 0
AnchorPoint: "A-64" 219.35 0 basechar 0
AnchorPoint: "A-63" 406.35 0 basechar 0
AnchorPoint: "A-62" 312.85 0 basechar 0
AnchorPoint: "A-61" 219.35 0 basechar 0
AnchorPoint: "A-59" 117.35 0 basechar 0
AnchorPoint: "A-55" 754.85 0 basechar 0
AnchorPoint: "A-42" 338.35 0 basechar 0
AnchorPoint: "A-39" 542.35 0 basechar 0
AnchorPoint: "A-36" 542.35 0 basechar 0
AnchorPoint: "A-21" -248.15 0 basechar 0
AnchorPoint: "A-16" 193.85 0 basechar 0
AnchorPoint: "A-15" 321.35 0 basechar 0
AnchorPoint: "A-14" 431.85 0 basechar 0
AnchorPoint: "A-13" 83.3496 0 basechar 0
AnchorPoint: "A-12" 185.35 0 basechar 0
AnchorPoint: "A-11" 304.35 0 basechar 0
AnchorPoint: "A-10" 193.85 0 basechar 0
AnchorPoint: "A-9" 321.35 0 basechar 0
AnchorPoint: "A-8" 431.85 0 basechar 0
AnchorPoint: "A-58" 542.35 0 basechar 0
AnchorPoint: "A-41" 601.85 0 basechar 0
AnchorPoint: "A-40" 508.35 0 basechar 0
AnchorPoint: "A-32" 542.35 0 basechar 0
AnchorPoint: "A-31" 542.35 0 basechar 0
AnchorPoint: "A-30" 576.35 0 basechar 0
AnchorPoint: "A-29" 593.35 0 basechar 0
AnchorPoint: "A-28" 529.6 0 basechar 0
AnchorPoint: "A-27" 491.35 0 basechar 0
AnchorPoint: "A-26" 754.85 0 basechar 0
AnchorPoint: "A-25" 193.85 0 basechar 0
AnchorPoint: "A-24" 542.35 0 basechar 0
AnchorPoint: "A-23" 542.35 0 basechar 0
AnchorPoint: "A-20" 117.35 0 basechar 0
AnchorPoint: "A-7" 338.35 0 basechar 0
AnchorPoint: "A-6" 389.35 0 basechar 0
AnchorPoint: "A-5" 482.85 0 basechar 0
AnchorPoint: "A-4" 508.35 0 basechar 0
AnchorPoint: "A-2" 542.35 0 basechar 0
AnchorPoint: "A-1" 542.35 0 basechar 0
AnchorPoint: "A-0" 542.35 0 basechar 0
LayerCount: 2
Fore
SplineSet
372 1184 m 1xa0
 393 1116 436 1089 476 1056 c 1
 559 1015 692 1019 764 942 c 1
 858 845 862 507 862 166 c 0xb0
 862 31 864 -123 864 -247 c 1
 852 -329 828 -363 763 -382 c 1
 768 -350 769 -331 769 -309 c 0
 769 -298 769 -285 769 -269 c 1x88
 769 -127 725 38 725 230 c 0
 725 269 731 309 731 352 c 1
 731 584 707 746 631 795 c 1
 545 872 470 901 370 901 c 1
 266 887 250 833 237 778 c 1xb0
 237 693 265 618 339 618 c 0
 358 618 382 624 409 636 c 1
 418 606 423 578 423 549 c 0
 423 504 411 461 390 421 c 1
 358 410 320 400 278 400 c 0
 248 400 217 405 184 419 c 1
 184 419 141 481 141 549 c 0xc0
 141 578 148 607 170 632 c 1
 161 672 151 710 151 750 c 0
 151 810 174 872 252 935 c 9
 227 1001 l 17
 261 1092 303 1165 372 1184 c 1xa0
EndSplineSet
Validated: 1
LCarets2: 1 73 
MultipleSubs2: "Add hairspace before low marked Qof" finalpe hairspace
EndChar

StartChar: pe
Encoding: 1508 1508 82
Width: 982
GlyphClass: 2
Flags: W
HStem: -40 213<159.581 584.361> 394 188<288.126 396.884> 869 287<290.454 460.5>
VStem: 122 308<417.314 581.038> 143 108<606.354 841.5> 223 143<996 1080.5> 780 118<266.076 689.677>
AnchorPoint: "A-69" 485.65 0 basechar 0
AnchorPoint: "A-68" 485.65 0 basechar 0
AnchorPoint: "A-67" 485.65 0 basechar 0
AnchorPoint: "A-66" 485.65 0 basechar 0
AnchorPoint: "A-65" 485.65 0 basechar 0
AnchorPoint: "A-64" 485.65 0 basechar 0
AnchorPoint: "A-63" 485.65 0 basechar 0
AnchorPoint: "A-62" 485.65 0 basechar 0
AnchorPoint: "A-61" 485.65 0 basechar 0
AnchorPoint: "A-59" 69.1504 0 basechar 0
AnchorPoint: "A-55" 783.15 0 basechar 0
AnchorPoint: "A-42" 485.65 0 basechar 0
AnchorPoint: "A-39" 553.65 0 basechar 0
AnchorPoint: "A-36" 554.5 0 basechar 0
AnchorPoint: "A-21" -296.35 0 basechar 0
AnchorPoint: "A-16" 494.15 0 basechar 0
AnchorPoint: "A-15" 494.15 0 basechar 0
AnchorPoint: "A-14" 494.15 0 basechar 0
AnchorPoint: "A-13" 494.15 0 basechar 0
AnchorPoint: "A-12" 494.15 0 basechar 0
AnchorPoint: "A-11" 494.15 0 basechar 0
AnchorPoint: "A-10" 494.15 0 basechar 0
AnchorPoint: "A-9" 494.15 0 basechar 0
AnchorPoint: "A-8" 494.15 0 basechar 0
AnchorPoint: "A-58" 553.65 0 basechar 0
AnchorPoint: "A-41" 417.65 0 basechar 0
AnchorPoint: "A-40" 485.65 0 basechar 0
AnchorPoint: "A-32" 553.65 0 basechar 0
AnchorPoint: "A-31" 553.65 0 basechar 0
AnchorPoint: "A-30" 596.15 0 basechar 0
AnchorPoint: "A-29" 613.15 0 basechar 0
AnchorPoint: "A-28" 481.4 0 basechar 0
AnchorPoint: "A-27" 494.15 0 basechar 0
AnchorPoint: "A-26" 783.15 0 basechar 0
AnchorPoint: "A-25" 196.65 0 basechar 0
AnchorPoint: "A-24" 554.5 0 basechar 0
AnchorPoint: "A-23" 553.65 0 basechar 0
AnchorPoint: "A-20" 137.15 0 basechar 0
AnchorPoint: "A-7" 494.15 0 basechar 0
AnchorPoint: "A-6" 494.15 0 basechar 0
AnchorPoint: "A-5" 494.15 0 basechar 0
AnchorPoint: "A-4" 494.15 0 basechar 0
AnchorPoint: "A-2" 553.65 0 basechar 0
AnchorPoint: "A-1" 553.65 0 basechar 0
AnchorPoint: "A-0" 553.65 0 basechar 0
LayerCount: 2
Fore
SplineSet
780 972 m 1xe6
 876 890 898 639 898 536 c 0
 898 393 889 268 865 141 c 1
 856 88 836 74 812 38 c 1
 644 -30 326 -40 108 -40 c 1
 108 18 121 112 168 173 c 1
 397 173 619 210 780 282 c 1
 780 540 752 723 682 784 c 0
 606 850 543 869 378 869 c 1
 302 869 251 822 251 739 c 0xea
 251 696 264 625 287 608 c 0
 311 591 336 582 358 582 c 0
 382 582 403 591 423 608 c 1
 428 587 430 565 430 544 c 0
 430 492 399 444 374 394 c 1
 203 394 l 1
 148 416 122 426 122 492 c 0xf2
 122 526 135 562 163 602 c 1
 150 642 143 678 143 710 c 0xea
 143 808 195 855 248 905 c 1
 223 962 l 1
 223 964 223 966 223 969 c 0
 223 1017 298 1156 354 1156 c 0
 358 1156 362 1156 366 1154 c 1
 366 996 669 1052 780 972 c 1xe6
EndSplineSet
Validated: 1
LCarets2: 1 75 
MultipleSubs2: "Add hairspace before low marked Qof" pe hairspace
EndChar

StartChar: finaltsadi
Encoding: 1509 1509 83
Width: 894
GlyphClass: 2
Flags: W
VStem: 257 89<568.787 783> 364 121<-165.199 185.729>
AnchorPoint: "A-69" 582.75 0 basechar 0
AnchorPoint: "A-68" 625.25 0 basechar 0
AnchorPoint: "A-67" 625.25 0 basechar 0
AnchorPoint: "A-66" 582.75 0 basechar 0
AnchorPoint: "A-65" 625.25 0 basechar 0
AnchorPoint: "A-64" 625.25 0 basechar 0
AnchorPoint: "A-63" 582.75 0 basechar 0
AnchorPoint: "A-62" 625.25 0 basechar 0
AnchorPoint: "A-61" 625.25 0 basechar 0
AnchorPoint: "A-59" 132.25 0 basechar 0
AnchorPoint: "A-55" 829.25 0 basechar 0
AnchorPoint: "A-42" 710.25 0 basechar 0
AnchorPoint: "A-39" 540.25 0 basechar 0
AnchorPoint: "A-36" 540.25 0 basechar 0
AnchorPoint: "A-21" -233.25 0 basechar 0
AnchorPoint: "A-16" 888.75 0 basechar 0
AnchorPoint: "A-15" 795.25 0 basechar 0
AnchorPoint: "A-14" 676.25 0 basechar 0
AnchorPoint: "A-13" 888.75 0 basechar 0
AnchorPoint: "A-12" 795.25 0 basechar 0
AnchorPoint: "A-11" 676.25 0 basechar 0
AnchorPoint: "A-10" 888.75 0 basechar 0
AnchorPoint: "A-9" 795.25 0 basechar 0
AnchorPoint: "A-8" 676.25 0 basechar 0
AnchorPoint: "A-58" 540.25 0 basechar 0
AnchorPoint: "A-41" 446.75 0 basechar 0
AnchorPoint: "A-40" 684.75 0 basechar 0
AnchorPoint: "A-32" 540.25 0 basechar 0
AnchorPoint: "A-31" 540.25 0 basechar 0
AnchorPoint: "A-30" 540.25 0 basechar 0
AnchorPoint: "A-29" 540.25 0 basechar 0
AnchorPoint: "A-28" 544.5 0 basechar 0
AnchorPoint: "A-27" 506.25 0 basechar 0
AnchorPoint: "A-26" 829.25 0 basechar 0
AnchorPoint: "A-25" 132.25 0 basechar 0
AnchorPoint: "A-24" 540.25 0 basechar 0
AnchorPoint: "A-23" 540.25 0 basechar 0
AnchorPoint: "A-20" 72.75 0 basechar 0
AnchorPoint: "A-7" 871.75 0 basechar 0
AnchorPoint: "A-6" 820.75 0 basechar 0
AnchorPoint: "A-5" 718.75 0 basechar 0
AnchorPoint: "A-4" 625.25 0 basechar 0
AnchorPoint: "A-3" 157.75 0 basechar 0
AnchorPoint: "A-2" 540.25 0 basechar 0
AnchorPoint: "A-1" 540.25 0 basechar 0
AnchorPoint: "A-0" 540.25 0 basechar 0
LayerCount: 2
Fore
SplineSet
439 984 m 1
 415 858 390 835 364 776 c 1
 364 776 347 779 347 783 c 1
 347 753 346 768 346 735 c 0
 346 724 346 713 346 703 c 0
 346 643 349 593 387 565 c 1
 414 666 487 786 587 848 c 9
 525 927 l 17
 552 1051 594 1134 662 1145 c 1
 709 1076 769 986 859 951 c 1
 831 888 820 841 769 762 c 1
 758 762 741 780 724 780 c 0
 711 780 698 782 685 782 c 0
 672 782 659 780 647 772 c 1
 583 747 545 717 507 658 c 24
 456 580 427 527 427 434 c 24
 427 303 453 248 476 102 c 1
 476 53 485 9 485 -31 c 0
 485 -150 448 -318 358 -390 c 1
 362 -352 364 -313 364 -274 c 1
 364 -153 361 120 323 291 c 1
 283 452 257 646 257 828 c 1
 201 862 142 892 101 946 c 1
 121 1014 131 1068 210 1163 c 1
 247 1090 383 1086 439 984 c 1
EndSplineSet
Validated: 1
LCarets2: 1 71 
MultipleSubs2: "Add hairspace before low marked Qof" finaltsadi hairspace
EndChar

StartChar: tsadi
Encoding: 1510 1510 84
Width: 958
GlyphClass: 2
Flags: W
HStem: -18 198<182.613 304.485>
VStem: 294 110<784 818.703> 294 75<653.49 791.672>
AnchorPoint: "A-69" 467.625 0 basechar 0
AnchorPoint: "A-68" 467.625 0 basechar 0
AnchorPoint: "A-67" 467.625 0 basechar 0
AnchorPoint: "A-66" 467.625 0 basechar 0
AnchorPoint: "A-65" 467.625 0 basechar 0
AnchorPoint: "A-64" 467.625 0 basechar 0
AnchorPoint: "A-63" 467.625 0 basechar 0
AnchorPoint: "A-62" 467.625 0 basechar 0
AnchorPoint: "A-61" 467.625 0 basechar 0
AnchorPoint: "A-59" 76.625 0 basechar 0
AnchorPoint: "A-55" 799.125 0 basechar 0
AnchorPoint: "A-42" 467.625 0 basechar 0
AnchorPoint: "A-39" 501.625 0 basechar 0
AnchorPoint: "A-36" 501.625 0 basechar 0
AnchorPoint: "A-21" -288.875 0 basechar 0
AnchorPoint: "A-16" 467.625 0 basechar 0
AnchorPoint: "A-15" 467.625 0 basechar 0
AnchorPoint: "A-14" 467.625 0 basechar 0
AnchorPoint: "A-13" 467.625 0 basechar 0
AnchorPoint: "A-12" 467.625 0 basechar 0
AnchorPoint: "A-11" 467.625 0 basechar 0
AnchorPoint: "A-10" 467.625 0 basechar 0
AnchorPoint: "A-9" 467.625 0 basechar 0
AnchorPoint: "A-8" 467.625 0 basechar 0
AnchorPoint: "A-58" 501.625 0 basechar 0
AnchorPoint: "A-41" 348.625 0 basechar 0
AnchorPoint: "A-40" 467.625 0 basechar 0
AnchorPoint: "A-32" 501.625 0 basechar 0
AnchorPoint: "A-31" 501.625 0 basechar 0
AnchorPoint: "A-30" 501.625 0 basechar 0
AnchorPoint: "A-29" 518.625 0 basechar 0
AnchorPoint: "A-28" 488.875 0 basechar 0
AnchorPoint: "A-27" 467.625 0 basechar 0
AnchorPoint: "A-26" 799.125 0 basechar 0
AnchorPoint: "A-25" 110.625 0 basechar 0
AnchorPoint: "A-24" 501.625 0 basechar 0
AnchorPoint: "A-23" 501.625 0 basechar 0
AnchorPoint: "A-20" 25.625 0 basechar 0
AnchorPoint: "A-7" 467.625 0 basechar 0
AnchorPoint: "A-6" 467.625 0 basechar 0
AnchorPoint: "A-5" 467.625 0 basechar 0
AnchorPoint: "A-4" 467.625 0 basechar 0
AnchorPoint: "A-2" 501.625 0 basechar 0
AnchorPoint: "A-1" 501.625 0 basechar 0
AnchorPoint: "A-0" 501.625 0 basechar 0
LayerCount: 2
Fore
SplineSet
589 479 m 9xa0
 589 479 780 334 780 210 c 1
 761 68 592 50 451 24 c 1
 300 0 263 -1 126 -18 c 1
 145 79 148 78 188 180 c 1
 221 180 274 188 306 188 c 0
 404 188 494 202 610 252 c 9
 572 294 551 318 513 360 c 24
 468 410 434 433 399 490 c 1
 342 582 294 681 294 771 c 0xa0
 294 781 294 790 294 800 c 1
 228 825 192 851 141 922 c 9
 141 922 189 1126 242 1147 c 1
 281 1048 386 1000 448 980 c 1
 442 922 404 813 404 784 c 1xc0
 370 792 l 1
 369 785 369 778 369 771 c 0
 369 685 424 609 499 564 c 1
 522 655 584 784 645 846 c 1
 628 885 617 860 576 923 c 1
 609 965 621 1039 715 1123 c 1
 776 1046 840 1005 919 930 c 1
 903 895 831 767 829 767 c 1
 796 767 790 783 757 793 c 1
 600 702 617 671 583 589 c 1
 575 565 571 545 571 528 c 0
 571 508 577 492 589 479 c 9xa0
EndSplineSet
Validated: 1
LCarets2: 1 75 
MultipleSubs2: "Add hairspace before low marked Qof" tsadi hairspace
EndChar

StartChar: kof
Encoding: 1511 1511 85
Width: 1011
GlyphClass: 2
Flags: W
HStem: 830 205<383.061 789.931>
VStem: 275 103<182.641 743.405> 303 157<-261.284 195.5>
AnchorPoint: "A-69" 572.825 0 basechar 0
AnchorPoint: "A-68" 572.825 0 basechar 0
AnchorPoint: "A-67" 572.825 0 basechar 0
AnchorPoint: "A-66" 572.825 0 basechar 0
AnchorPoint: "A-65" 572.825 0 basechar 0
AnchorPoint: "A-64" 572.825 0 basechar 0
AnchorPoint: "A-63" 572.825 0 basechar 0
AnchorPoint: "A-62" 572.825 0 basechar 0
AnchorPoint: "A-61" 572.825 0 basechar 0
AnchorPoint: "A-59" 113.825 0 basechar 0
AnchorPoint: "A-55" 895.825 0 basechar 0
AnchorPoint: "A-42" 768.325 0 basechar 0
AnchorPoint: "A-39" 598.325 0 basechar 0
AnchorPoint: "A-36" 598.325 0 basechar 0
AnchorPoint: "A-21" -251.675 0 basechar 0
AnchorPoint: "A-16" 802.325 0 basechar 0
AnchorPoint: "A-15" 708.825 0 basechar 0
AnchorPoint: "A-14" 606.825 0 basechar 0
AnchorPoint: "A-13" 802.325 0 basechar 0
AnchorPoint: "A-12" 708.825 0 basechar 0
AnchorPoint: "A-11" 606.825 0 basechar 0
AnchorPoint: "A-10" 810.825 0 basechar 0
AnchorPoint: "A-9" 802.325 0 basechar 0
AnchorPoint: "A-8" 742.825 0 basechar 0
AnchorPoint: "A-58" 598.325 0 basechar 0
AnchorPoint: "A-41" 453.825 0 basechar 0
AnchorPoint: "A-40" 623.825 0 basechar 0
AnchorPoint: "A-32" 598.325 0 basechar 0
AnchorPoint: "A-31" 598.325 0 basechar 0
AnchorPoint: "A-30" 598.325 0 basechar 0
AnchorPoint: "A-29" 598.325 0 basechar 0
AnchorPoint: "A-28" 526.075 0 basechar 0
AnchorPoint: "A-27" 598.325 0 basechar 0
AnchorPoint: "A-26" 895.825 0 basechar 0
AnchorPoint: "A-25" 156.325 0 basechar 0
AnchorPoint: "A-24" 598.325 0 basechar 0
AnchorPoint: "A-23" 598.325 0 basechar 0
AnchorPoint: "A-20" 96.8252 0 basechar 0
AnchorPoint: "A-7" 802.325 0 basechar 0
AnchorPoint: "A-6" 751.325 0 basechar 0
AnchorPoint: "A-5" 674.825 0 basechar 0
AnchorPoint: "A-4" 572.825 0 basechar 0
AnchorPoint: "A-2" 598.325 0 basechar 0
AnchorPoint: "A-1" 598.325 0 basechar 0
AnchorPoint: "A-0" 598.325 0 basechar 0
LayerCount: 2
Fore
SplineSet
240 1144 m 1xc0
 278 1052 434 1035 539 1035 c 0
 554 1035 568 1035 583 1035 c 0
 675 1035 773 1044 875 1059 c 1
 926 973 950 815 950 694 c 0
 950 608 933 515 895 420 c 1
 727 360 638 238 563 106 c 1
 549 110 532 142 532 185 c 0
 532 194 533 202 534 211 c 1
 554 272 579 300 599 332 c 9
 841 589 l 17
 829 658 814 772 761 830 c 1
 654 830 485 824 378 803 c 9
 378 487 l 17xc0
 378 245 460 109 460 -114 c 1
 460 -260 343 -352 281 -411 c 1
 299 -315 303 -221 303 -106 c 0xa0
 303 134 275 399 275 621 c 1
 275 692 347 784 361 818 c 1
 290 840 229 848 166 897 c 1
 166 1037 182 1076 240 1144 c 1xc0
EndSplineSet
Validated: 1
LCarets2: 1 85 
MultipleSubs2: "Add hairspace before low marked Qof" kof hairspace
EndChar

StartChar: resh
Encoding: 1512 1512 86
Width: 931
GlyphClass: 2
Flags: W
HStem: 6 21G<731 814> 827 225<236.977 694.812>
VStem: 771 104<85.4585 650.25>
AnchorPoint: "A-69" 691.2 0 basechar 0
AnchorPoint: "A-68" 606.2 0 basechar 0
AnchorPoint: "A-67" 521.2 0 basechar 0
AnchorPoint: "A-66" 691.2 0 basechar 0
AnchorPoint: "A-65" 606.2 0 basechar 0
AnchorPoint: "A-64" 521.2 0 basechar 0
AnchorPoint: "A-63" 691.2 0 basechar 0
AnchorPoint: "A-62" 606.2 0 basechar 0
AnchorPoint: "A-61" 521.2 0 basechar 0
AnchorPoint: "A-59" 104.7 0 basechar 0
AnchorPoint: "A-55" 767.7 0 basechar 0
AnchorPoint: "A-42" 614.7 0 basechar 0
AnchorPoint: "A-39" 487.2 0 basechar 0
AnchorPoint: "A-36" 487.2 0 basechar 0
AnchorPoint: "A-21" -260.8 0 basechar 0
AnchorPoint: "A-19" 538.2 0 basechar 0
AnchorPoint: "A-18" 614.7 0 basechar 0
AnchorPoint: "A-17" 657.2 0 basechar 0
AnchorPoint: "A-16" 538.2 0 basechar 0
AnchorPoint: "A-15" 614.7 0 basechar 0
AnchorPoint: "A-14" 657.2 0 basechar 0
AnchorPoint: "A-13" 512.7 0 basechar 0
AnchorPoint: "A-12" 589.2 0 basechar 0
AnchorPoint: "A-11" 631.7 0 basechar 0
AnchorPoint: "A-10" 538.2 0 basechar 0
AnchorPoint: "A-9" 614.7 0 basechar 0
AnchorPoint: "A-8" 657.2 0 basechar 0
AnchorPoint: "A-58" 487.2 0 basechar 0
AnchorPoint: "A-41" 487.2 0 basechar 0
AnchorPoint: "A-40" 699.7 0 basechar 0
AnchorPoint: "A-32" 487.2 0 basechar 0
AnchorPoint: "A-31" 487.2 0 basechar 0
AnchorPoint: "A-30" 487.2 0 basechar 0
AnchorPoint: "A-29" 487.2 0 basechar 0
AnchorPoint: "A-28" 516.95 0 basechar 0
AnchorPoint: "A-27" 487.2 0 basechar 0
AnchorPoint: "A-26" 767.7 0 basechar 0
AnchorPoint: "A-25" 104.7 0 basechar 0
AnchorPoint: "A-24" 487.2 0 basechar 0
AnchorPoint: "A-23" 487.2 0 basechar 0
AnchorPoint: "A-20" 28.2002 0 basechar 0
AnchorPoint: "A-7" 576.45 0 basechar 0
AnchorPoint: "A-6" 631.7 0 basechar 0
AnchorPoint: "A-5" 750.7 0 basechar 0
AnchorPoint: "A-4" 784.7 0 basechar 0
AnchorPoint: "A-2" 487.2 0 basechar 0
AnchorPoint: "A-1" 487.2 0 basechar 0
AnchorPoint: "A-0" 487.2 0 basechar 0
LayerCount: 2
Fore
SplineSet
720 690 m 1
 709 742 700 807 651 827 c 9
 158 827 l 25
 126 927 l 25
 98 955 l 17
 118 1033 152 1100 193 1141 c 1
 224 1107 253 1067 333 1052 c 1
 706 1052 l 1
 839 1052 875 814 875 571 c 1
 875 374 l 1
 875 235 854 66 774 6 c 9
 731 22 l 17
 760 83 771 155 771 234 c 1
 771 372 756 517 720 690 c 1
EndSplineSet
Validated: 1
LCarets2: 1 72 
MultipleSubs2: "Add hairspace before low marked Qof" resh hairspace
Substitution2: "'jalt' Wide Letter Alternatives in Hebrew subtable" resh.wide
EndChar

StartChar: shin
Encoding: 1513 1513 87
Width: 1324
GlyphClass: 2
Flags: W
VStem: 273 57<544.484 797.577>
AnchorPoint: "A-69" 688.575 0 basechar 0
AnchorPoint: "A-68" 688.575 0 basechar 0
AnchorPoint: "A-67" 688.575 0 basechar 0
AnchorPoint: "A-66" 688.575 0 basechar 0
AnchorPoint: "A-65" 688.575 0 basechar 0
AnchorPoint: "A-64" 688.575 0 basechar 0
AnchorPoint: "A-63" 688.575 0 basechar 0
AnchorPoint: "A-62" 688.575 0 basechar 0
AnchorPoint: "A-61" 688.575 0 basechar 0
AnchorPoint: "A-59" 123.325 0 basechar 0
AnchorPoint: "A-55" 1185.83 0 basechar 0
AnchorPoint: "A-42" 688.575 0 basechar 0
AnchorPoint: "A-39" 709.825 0 basechar 0
AnchorPoint: "A-36" 709.825 0 basechar 0
AnchorPoint: "A-21" -242.175 0 basechar 0
AnchorPoint: "A-16" 688.575 0 basechar 0
AnchorPoint: "A-15" 688.575 0 basechar 0
AnchorPoint: "A-14" 688.575 0 basechar 0
AnchorPoint: "A-13" 688.575 0 basechar 0
AnchorPoint: "A-12" 688.575 0 basechar 0
AnchorPoint: "A-11" 688.575 0 basechar 0
AnchorPoint: "A-10" 688.575 0 basechar 0
AnchorPoint: "A-9" 688.575 0 basechar 0
AnchorPoint: "A-8" 688.575 0 basechar 0
AnchorPoint: "A-58" 709.825 0 basechar 0
AnchorPoint: "A-41" 688.575 0 basechar 0
AnchorPoint: "A-40" 688.575 0 basechar 0
AnchorPoint: "A-32" 709.825 0 basechar 0
AnchorPoint: "A-31" 709.825 0 basechar 0
AnchorPoint: "A-30" 548.325 0 basechar 0
AnchorPoint: "A-29" 633.325 0 basechar 0
AnchorPoint: "A-28" 535.575 0 basechar 0
AnchorPoint: "A-27" 786.325 0 basechar 0
AnchorPoint: "A-26" 1185.83 0 basechar 0
AnchorPoint: "A-25" 165.825 0 basechar 0
AnchorPoint: "A-24" 709.825 0 basechar 0
AnchorPoint: "A-23" 709.825 0 basechar 0
AnchorPoint: "A-20" 55.3252 0 basechar 0
AnchorPoint: "A-7" 688.575 0 basechar 0
AnchorPoint: "A-6" 688.575 0 basechar 0
AnchorPoint: "A-5" 688.575 0 basechar 0
AnchorPoint: "A-4" 688.575 0 basechar 0
AnchorPoint: "A-2" 709.825 0 basechar 0
AnchorPoint: "A-1" 709.825 0 basechar 0
AnchorPoint: "A-0" 709.825 0 basechar 0
LayerCount: 2
Fore
SplineSet
317 1082 m 1
 461 966 l 1
 463 959 l 1
 463 930 392 819 359 799 c 1
 343 772 330 741 330 700 c 0
 330 621 345 592 360 536 c 0
 375 481 406 336 442 270 c 0
 451 252 463 241 476 241 c 0
 488 241 498 250 501 272 c 0
 514 345 533 516 564 619 c 0
 597 722 629 773 666 846 c 1
 571 908 l 1
 598 995 600 1026 720 1125 c 1
 720 1043 829 983 897 920 c 1
 886 877 853 797 829 768 c 1
 821 772 813 774 806 774 c 0
 785 774 772 759 765 755 c 1
 726 724 679 674 661 595 c 2
 574 208 l 1
 598 205 620 203 643 203 c 0
 754 203 850 324 887 398 c 2
 1089 802 l 1
 972 925 l 1
 1003 999 1005 1066 1097 1130 c 1
 1100 1130 1132 1035 1160 1012 c 2
 1291 902 l 1
 1269 820 1258 802 1198 726 c 1
 1180 726 1162 722 1134 696 c 0
 1120 683 1106 677 1093 637 c 2
 973 262 l 1
 928 238 l 1
 787 135 648 26 517 -20 c 1
 500 -31 485 -32 469 -30 c 1
 431 -30 399 -10 390 31 c 2
 248 588 l 1
 248 597 248 610 248 624 c 0
 248 663 249 713 261 728 c 1
 267 749 273 771 273 792 c 0
 273 809 270 826 261 842 c 1
 143 926 l 1
 151 955 168 1086 285 1169 c 1
 285 1117 317 1082 317 1082 c 1
EndSplineSet
Validated: 1
LCarets2: 1 104 
MultipleSubs2: "Add hairspace before low marked Qof" shin hairspace
EndChar

StartChar: tav
Encoding: 1514 1514 88
Width: 1116
GlyphClass: 2
Flags: W
HStem: 827 225<482.861 835.938>
VStem: 303 109<307.423 698.218> 951 111<42.2664 332.184>
AnchorPoint: "A-69" 655.6 0 basechar 0
AnchorPoint: "A-68" 655.6 0 basechar 0
AnchorPoint: "A-67" 655.6 0 basechar 0
AnchorPoint: "A-66" 655.6 0 basechar 0
AnchorPoint: "A-65" 655.6 0 basechar 0
AnchorPoint: "A-64" 655.6 0 basechar 0
AnchorPoint: "A-63" 655.6 0 basechar 0
AnchorPoint: "A-62" 655.6 0 basechar 0
AnchorPoint: "A-61" 655.6 0 basechar 0
AnchorPoint: "A-59" 107.35 0 basechar 0
AnchorPoint: "A-55" 965.85 0 basechar 0
AnchorPoint: "A-42" 655.6 0 basechar 0
AnchorPoint: "A-39" 676.85 0 basechar 0
AnchorPoint: "A-36" 690.45 0 basechar 0
AnchorPoint: "A-21" -236.9 0 basechar 0
AnchorPoint: "A-16" 655.6 0 basechar 0
AnchorPoint: "A-15" 655.6 0 basechar 0
AnchorPoint: "A-14" 655.6 0 basechar 0
AnchorPoint: "A-13" 655.6 0 basechar 0
AnchorPoint: "A-12" 655.6 0 basechar 0
AnchorPoint: "A-11" 655.6 0 basechar 0
AnchorPoint: "A-10" 655.6 0 basechar 0
AnchorPoint: "A-9" 655.6 0 basechar 0
AnchorPoint: "A-8" 655.6 0 basechar 0
AnchorPoint: "A-58" 676.85 0 basechar 0
AnchorPoint: "A-41" 634.35 0 basechar 0
AnchorPoint: "A-40" 655.6 0 basechar 0
AnchorPoint: "A-32" 676.85 0 basechar 0
AnchorPoint: "A-31" 676.85 0 basechar 0
AnchorPoint: "A-30" 676.85 0 basechar 0
AnchorPoint: "A-29" 676.85 0 basechar 0
AnchorPoint: "A-28" 519.6 0 basechar 0
AnchorPoint: "A-27" 676.85 0 basechar 0
AnchorPoint: "A-26" 965.85 0 basechar 0
AnchorPoint: "A-25" 209.35 0 basechar 0
AnchorPoint: "A-24" 690.45 0 basechar 0
AnchorPoint: "A-23" 676.85 0 basechar 0
AnchorPoint: "A-20" 141.35 0 basechar 0
AnchorPoint: "A-7" 655.6 0 basechar 0
AnchorPoint: "A-6" 655.6 0 basechar 0
AnchorPoint: "A-5" 655.6 0 basechar 0
AnchorPoint: "A-4" 655.6 0 basechar 0
AnchorPoint: "A-2" 676.85 0 basechar 0
AnchorPoint: "A-1" 676.85 0 basechar 0
AnchorPoint: "A-0" 676.85 0 basechar 0
LayerCount: 2
Fore
SplineSet
446 1052 m 13
 837 1052 l 21
 949 1052 954 905 974 811 c 13
 1062 239 l 21
 1062 140 1033 62 1002 -11 c 13
 946 41 l 21
 949 68 951 96 951 125 c 4
 951 315 889 554 842 771 c 5
 827 802 803 827 762 827 c 13
 548 827 l 21
 528 827 498 809 478 775 c 5
 441 709 412 631 412 533 c 4
 412 459 429 373 470 271 c 13
 518 271 l 29
 518 79 l 21
 413 22 308 -32 182 -63 c 5
 173 -10 153 37 153 93 c 4
 153 111 155 129 160 149 c 5
 227 176 291 190 362 241 c 5
 321 344 303 431 303 506 c 4
 303 646 364 744 438 827 c 13
 240 863 l 21
 236 885 234 906 234 926 c 4
 234 1000 258 1081 303 1126 c 5
 344 1056 387 1052 446 1052 c 13
EndSplineSet
Validated: 1
LCarets2: 1 91 
MultipleSubs2: "Add hairspace before low marked Qof" tav hairspace
Substitution2: "'jalt' Wide Letter Alternatives in Hebrew subtable" tav.wide
EndChar

StartChar: geresh
Encoding: 1523 1523 92
Width: 396
GlyphClass: 2
Flags: W
HStem: 685 452
VStem: 98 258
LayerCount: 2
Fore
SplineSet
356 1100 m 1
 358 1086 358 1076 358 1060 c 1
 246 874 l 1
 140 685 l 1
 125 685 111 691 98 698 c 1
 125 840 155 976 189 1112 c 0
 193 1129 202 1137 217 1137 c 0
 221 1137 228 1136 236 1134 c 2
 356 1100 l 1
EndSplineSet
Validated: 1
EndChar

StartChar: zerononjoin
Encoding: 8204 8204 96
Width: 0
GlyphClass: 2
Flags: W
HStem: 1613 281
VStem: -141 281
LayerCount: 2
Fore
SplineSet
-108 1894 m 1
 0 1786 l 1
 106 1893 l 1
 140 1860 l 1
 33 1753 l 1
 140 1646 l 1
 106 1613 l 1
 0 1719 l 1
 -108 1612 l 1
 -141 1646 l 1
 -34 1753 l 1
 -141 1860 l 1
 -108 1894 l 1
EndSplineSet
Validated: 1
EndChar

StartChar: zerojoin
Encoding: 8205 8205 97
Width: 0
GlyphClass: 2
Flags: W
HStem: 1637 140<-203 -156 157 204> 1730 47<-156 157>
VStem: -203 47<1637 1730> 157 47<1637 1730>
LayerCount: 2
Fore
SplineSet
157 1637 m 1xb0
 157 1730 l 1
 -156 1730 l 1x70
 -156 1637 l 1
 -203 1637 l 1
 -203 1777 l 1
 204 1777 l 1
 204 1637 l 1
 157 1637 l 1xb0
EndSplineSet
Validated: 1
EndChar

StartChar: lrm
Encoding: 8206 8206 98
Width: 0
GlyphClass: 2
Flags: W
HStem: 1730 47<-154 104>
VStem: -154 349
LayerCount: 2
Fore
SplineSet
21 1860 m 1
 54 1894 l 1
 195 1753 l 1
 54 1612 l 1
 21 1646 l 1
 105 1730 l 1
 -154 1730 l 1
 -154 1777 l 1
 104 1777 l 1
 21 1860 l 1
EndSplineSet
Validated: 1
EndChar

StartChar: rlm
Encoding: 8207 8207 99
Width: 0
GlyphClass: 2
Flags: W
HStem: 1730 47<-103 155>
VStem: -194 349
LayerCount: 2
Fore
SplineSet
-20 1647 m 1
 -53 1613 l 1
 -194 1754 l 1
 -53 1895 l 1
 -20 1861 l 1
 -104 1777 l 1
 155 1777 l 1
 155 1730 l 1
 -103 1730 l 1
 -20 1647 l 1
EndSplineSet
Validated: 1
EndChar

StartChar: quoteleft
Encoding: 8216 8216 100
Width: 422
GlyphClass: 2
Flags: W
HStem: 936 545<178.009 247.946>
VStem: 117 190<1286.93 1471.67>
LayerCount: 2
Fore
SplineSet
307 1397 m 1
 248 944 l 2
 247 939 236 936 213 936 c 0
 190 936 178 939 178 944 c 0
 178 975 172 1005 169 1032 c 2
 117 1366 l 1
 117 1379 117 1389 117 1395 c 0
 117 1452 149 1481 213 1481 c 0
 276 1481 307 1453 307 1397 c 1
EndSplineSet
Validated: 1
EndChar

StartChar: quoteright
Encoding: 8217 8217 101
Width: 422
GlyphClass: 2
Flags: W
HStem: 936 545<178.009 247.946>
VStem: 117 190<1286.93 1471.67>
LayerCount: 2
Fore
SplineSet
307 1397 m 1
 248 944 l 2
 247 939 236 936 213 936 c 0
 190 936 178 939 178 944 c 0
 178 975 172 1005 169 1032 c 2
 117 1366 l 1
 117 1379 117 1389 117 1395 c 0
 117 1452 149 1481 213 1481 c 0
 276 1481 307 1453 307 1397 c 1
EndSplineSet
Validated: 1
EndChar

StartChar: quotesinglbase
Encoding: 8218 8218 102
Width: 422
GlyphClass: 2
Flags: W
HStem: -302 545<176.009 245.946>
VStem: 115 190<48.9287 233.668>
LayerCount: 2
Fore
SplineSet
305 159 m 1
 246 -294 l 2
 245 -299 234 -302 211 -302 c 0
 188 -302 176 -299 176 -294 c 0
 176 -263 170 -233 167 -206 c 2
 115 128 l 1
 115 141 115 151 115 157 c 0
 115 214 147 243 211 243 c 0
 274 243 305 215 305 159 c 1
EndSplineSet
Validated: 1
EndChar

StartChar: newshekel
Encoding: 8362 8362 106
Width: 1389
VWidth: 2008
GlyphClass: 2
Flags: W
HStem: -64 283<731.801 868.738> 827 195<327.981 694.643> 1022 20G<817 864.222>
VStem: 178 131<323.74 825.014> 233 136<197.881 470.912> 369 238<566.702 673.336> 685 122<509.018 838.446> 924 263<849.521 971> 1060 127<754.365 798> 1060 54<367 749.613>
LayerCount: 2
Fore
SplineSet
164 1084 m 1xf6
 201 1047 249 1025 292 1025 c 0
 386 1025 481 1022 575 1022 c 0
 675 1022 772 1025 862 1042 c 9
 882 862 l 17
 825 833 807 775 807 702 c 0
 807 564 858 526 873 435 c 9
 748 230 l 17
 748 430 685 554 685 716 c 0
 685 755 688 796 697 840 c 1
 647 830 579 827 512 827 c 0
 457 827 402 827 354 827 c 1
 321 790 309 728 309 656 c 0xf6
 309 492 369 284 369 221 c 1
 330 150 281 84 233 22 c 1xee
 233 218 178 455 178 633 c 0
 178 712 188 780 219 827 c 9
 108 827 l 17
 103 842 101 860 101 882 c 0
 101 962 132 1073 164 1084 c 1xf6
424 777 m 1
 448 734 466 708 607 658 c 9
 588 537 l 17
 566 524 556 517 556 503 c 0
 556 461 558 419 571 384 c 0
 628 242 705 219 748 219 c 2
 854 219 l 2
 870 219 885 232 900 236 c 1
 1021 318 1025 338 1060 385 c 9xe640
 1060 798 l 25xe680
 930 849 l 17
 926 860 924 879 924 904 c 0
 924 969 941 1070 984 1095 c 1
 1000 1067 1038 1042 1093 1016 c 2
 1187 971 l 9xe7
 1187 794 l 17xe680
 1173 782 1147 769 1141 752 c 0
 1121 701 1114 655 1114 606 c 0xe640
 1114 536 1128 462 1128 367 c 9
 1099 286 l 17
 1025 156 970 72 872 -16 c 0
 853 -38 819 -64 787 -64 c 0
 770 -64 754 -56 741 -37 c 0
 642 120 571 143 519 293 c 0
 495 391 509 451 463 536 c 1
 424 552 421 543 375 563 c 1
 371 576 369 594 369 610 c 0
 369 683 395 773 424 777 c 1
EndSplineSet
Validated: 1
EndChar

StartChar: Euro
Encoding: 8364 8364 107
Width: 1127
VWidth: 3029
GlyphClass: 2
Flags: W
HStem: -58 195<580.687 853.016> 194 20G<1001.5 1014> 354 135<498.684 906> 424 87<127.921 181> 584 129<385 824.999> 1049 118<550.801 859.848>
VStem: 181 183<512.908 584> 892 183<884.183 1016.46>
LayerCount: 2
Fore
SplineSet
751 1167 m 0xdf
 823 1167 901 1152 985 1118 c 1
 1067 1045 1075 1001 1075 921 c 0
 1075 903 1075 883 1075 861 c 1
 1044 876 1010 884 976 884 c 0
 942 884 908 876 871 864 c 1
 886 888 892 912 892 933 c 0
 892 1002 827 1049 736 1049 c 0
 727 1049 716 1049 704 1049 c 0
 500 1049 408 896 385 714 c 1
 475 714 564 713 653 713 c 0
 824 713 902 714 1066 738 c 9
 1022 574 l 17
 783 574 621 584 364 584 c 9
 364 521 l 17
 505 494 571 489 708 489 c 0
 796 489 863 487 959 487 c 9
 906 354 l 17xef
 698 354 579 386 371 421 c 1
 416 308 547 137 745 137 c 0
 816 137 893 158 978 211 c 1
 988 211 997 214 1006 214 c 0
 1022 214 1034 209 1034 188 c 0
 1034 180 1033 171 1028 157 c 1
 943 15 811 -58 675 -58 c 0
 476 -58 271 97 194 424 c 9
 127 424 l 17
 127 434 127 442 127 449 c 0
 127 472 129 489 148 511 c 9
 181 511 l 25
 181 591 l 25
 144 591 l 17
 138 611 131 630 131 651 c 0
 131 660 132 670 138 681 c 1
 155 693 172 704 224 714 c 1
 294 935 472 1167 751 1167 c 0xdf
EndSplineSet
Validated: 1
EndChar

StartChar: dottedcircle
Encoding: 9676 9676 108
Width: 1150
GlyphClass: 2
Flags: W
HStem: -12 143<564.871 680.118> 48 143<365.871 481.118 763.871 879.118> 222 143<217.871 333.118 911.871 1027.12> 456 143<166.871 282.118 962.871 1078.12> 690 143<217.871 333.118 911.871 1027.12> 864 143<365.871 481.118 763.871 879.118> 924 143<564.871 680.118>
VStem: 164 121<457.421 597.576> 215 121<223.421 363.576 691.421 831.576> 363 121<49.421 189.576 865.421 1005.58> 562 121<-10.579 129.576 925.421 1065.58> 761 121<49.421 189.576 865.421 1005.58> 909 121<223.421 363.576 691.421 831.576> 960 121<457.421 597.576>
AnchorPoint: "A-69" 656.075 0 basechar 0
AnchorPoint: "A-68" 656.075 0 basechar 0
AnchorPoint: "A-67" 656.075 0 basechar 0
AnchorPoint: "A-66" 656.075 0 basechar 0
AnchorPoint: "A-65" 656.075 0 basechar 0
AnchorPoint: "A-64" 656.075 0 basechar 0
AnchorPoint: "A-63" 656.075 0 basechar 0
AnchorPoint: "A-62" 656.075 0 basechar 0
AnchorPoint: "A-61" 656.075 0 basechar 0
AnchorPoint: "A-59" 93.375 0 basechar 0
AnchorPoint: "A-55" 970.575 0 basechar 0
AnchorPoint: "A-42" 656.075 0 basechar 0
AnchorPoint: "A-39" 622.075 0 basechar 0
AnchorPoint: "A-36" 622.075 0 basechar 0
AnchorPoint: "A-21" -272.125 0 basechar 0
AnchorPoint: "A-16" 622.075 0 basechar 0
AnchorPoint: "A-15" 622.075 0 basechar 0
AnchorPoint: "A-14" 622.075 0 basechar 0
AnchorPoint: "A-13" 622.075 0 basechar 0
AnchorPoint: "A-12" 622.075 0 basechar 0
AnchorPoint: "A-11" 622.075 0 basechar 0
AnchorPoint: "A-10" 622.075 0 basechar 0
AnchorPoint: "A-9" 622.075 0 basechar 0
AnchorPoint: "A-8" 622.075 0 basechar 0
AnchorPoint: "A-60" 622.075 0 basechar 0
AnchorPoint: "A-58" 622.075 0 basechar 0
AnchorPoint: "A-41" 628.875 0 basechar 0
AnchorPoint: "A-40" 656.075 0 basechar 0
AnchorPoint: "A-32" 622.075 0 basechar 0
AnchorPoint: "A-31" 622.075 0 basechar 0
AnchorPoint: "A-30" 518.375 0 basechar 0
AnchorPoint: "A-29" 622.075 0 basechar 0
AnchorPoint: "A-28" 505.625 0 basechar 0
AnchorPoint: "A-27" 622.075 0 basechar 0
AnchorPoint: "A-26" 970.575 0 basechar 0
AnchorPoint: "A-25" 220.875 0 basechar 0
AnchorPoint: "A-24" 622.075 0 basechar 0
AnchorPoint: "A-23" 622.075 0 basechar 0
AnchorPoint: "A-20" 25.375 0 basechar 0
AnchorPoint: "A-7" 622.075 0 basechar 0
AnchorPoint: "A-6" 622.075 0 basechar 0
AnchorPoint: "A-5" 622.075 0 basechar 0
AnchorPoint: "A-4" 622.075 0 basechar 0
AnchorPoint: "A-3" 622.075 0 basechar 0
AnchorPoint: "A-2" 622.075 0 basechar 0
AnchorPoint: "A-1" 622.075 0 basechar 0
AnchorPoint: "A-0" 622.075 0 basechar 0
LayerCount: 2
Fore
SplineSet
164 527 m 0x3970
 164 575 184 599 224 599 c 0
 265 599 285 575 285 527 c 0
 285 480 265 456 224 456 c 0
 184 456 164 480 164 527 c 0x3970
960 527 m 0x3874
 960 575 980 599 1020 599 c 0
 1061 599 1081 575 1081 527 c 0
 1081 480 1061 456 1020 456 c 0
 980 456 960 480 960 527 c 0x3874
562 995 m 0
 562 1043 582 1067 622 1067 c 0
 663 1067 683 1043 683 995 c 0
 683 948 663 924 622 924 c 0x3a70
 582 924 562 948 562 995 c 0
562 59 m 0
 562 107 582 131 622 131 c 0
 663 131 683 107 683 59 c 0
 683 12 663 -12 622 -12 c 0xb870
 582 -12 562 12 562 59 c 0
909 761 m 0x3878
 909 809 929 833 969 833 c 0
 1010 833 1030 809 1030 761 c 0
 1030 714 1010 690 969 690 c 0
 929 690 909 714 909 761 c 0x3878
909 293 m 0
 909 341 929 365 969 365 c 0
 1010 365 1030 341 1030 293 c 0
 1030 246 1010 222 969 222 c 0
 929 222 909 246 909 293 c 0
215 761 m 0x38f0
 215 809 235 833 275 833 c 0
 316 833 336 809 336 761 c 0
 336 714 316 690 275 690 c 0
 235 690 215 714 215 761 c 0x38f0
215 293 m 0
 215 341 235 365 275 365 c 0
 316 365 336 341 336 293 c 0
 336 246 316 222 275 222 c 0
 235 222 215 246 215 293 c 0
363 935 m 0
 363 983 383 1007 423 1007 c 0
 464 1007 484 983 484 935 c 0
 484 888 464 864 423 864 c 0x3c70
 383 864 363 888 363 935 c 0
761 935 m 0
 761 983 781 1007 821 1007 c 0
 862 1007 882 983 882 935 c 0
 882 888 862 864 821 864 c 0
 781 864 761 888 761 935 c 0
363 119 m 0
 363 167 383 191 423 191 c 0
 464 191 484 167 484 119 c 0
 484 72 464 48 423 48 c 0x7870
 383 48 363 72 363 119 c 0
761 119 m 0
 761 167 781 191 821 191 c 0
 862 191 882 167 882 119 c 0
 882 72 862 48 821 48 c 0
 781 48 761 72 761 119 c 0
EndSplineSet
Validated: 1
LCarets2: 1 93 
MultipleSubs2: "Add hairspace before low marked Qof" dottedcircle hairspace
EndChar

StartChar: jsvarika
Encoding: 64286 64286 110
Width: 0
GlyphClass: 4
Flags: W
HStem: 1188 202
VStem: -186 367
AnchorPoint: "A-55" -187 0 mark 0
AnchorPoint: "A-57" -425 0 basemark 0
AnchorPoint: "A-56" 0 0 basemark 0
AnchorPoint: "A-57" 0 0 mark 0
AnchorPoint: "A-24" 0 0 mark 0
LayerCount: 2
Fore
SplineSet
0 1188 m 1
 -43 1215 -100 1301 -186 1361 c 1
 -186 1377 l 1
 -185 1382 -180 1387 -178 1390 c 1
 -168 1387 -67 1324 0 1283 c 1
 64 1322 110 1348 181 1374 c 1
 184 1371 186 1366 186 1361 c 1
 186 1345 l 1
 114 1307 37 1208 0 1188 c 1
EndSplineSet
Validated: 1
LCarets2: 1 0 
EndChar

StartChar: ayin.alt
Encoding: 64288 64288 112
Width: 970
GlyphClass: 2
Flags: W
HStem: -14 198<120.83 452.108>
VStem: 286 107<568.881 780.688> 789 88<482.577 806>
AnchorPoint: "A-69" 493.15 0 basechar 0
AnchorPoint: "A-68" 493.15 0 basechar 0
AnchorPoint: "A-67" 493.15 0 basechar 0
AnchorPoint: "A-66" 493.15 0 basechar 0
AnchorPoint: "A-65" 493.15 0 basechar 0
AnchorPoint: "A-64" 493.15 0 basechar 0
AnchorPoint: "A-63" 493.15 0 basechar 0
AnchorPoint: "A-62" 493.15 0 basechar 0
AnchorPoint: "A-61" 493.15 0 basechar 0
AnchorPoint: "A-59" 76.6504 0 basechar 0
AnchorPoint: "A-55" 875.65 0 basechar 0
AnchorPoint: "A-42" 493.15 0 basechar 0
AnchorPoint: "A-39" 561.15 0 basechar 0
AnchorPoint: "A-36" 561.15 0 basechar 0
AnchorPoint: "A-21" -288.85 0 basechar 0
AnchorPoint: "A-16" 493.15 0 basechar 0
AnchorPoint: "A-15" 493.15 0 basechar 0
AnchorPoint: "A-14" 493.15 0 basechar 0
AnchorPoint: "A-13" 493.15 0 basechar 0
AnchorPoint: "A-12" 493.15 0 basechar 0
AnchorPoint: "A-11" 493.15 0 basechar 0
AnchorPoint: "A-10" 493.15 0 basechar 0
AnchorPoint: "A-9" 493.15 0 basechar 0
AnchorPoint: "A-8" 493.15 0 basechar 0
AnchorPoint: "A-58" 561.15 0 basechar 0
AnchorPoint: "A-41" 374.15 0 basechar 0
AnchorPoint: "A-40" 493.15 0 basechar 0
AnchorPoint: "A-32" 561.15 0 basechar 0
AnchorPoint: "A-31" 76.6504 0 basechar 0
AnchorPoint: "A-30" 561.15 0 basechar 0
AnchorPoint: "A-29" 561.15 0 basechar 0
AnchorPoint: "A-28" 488.9 0 basechar 0
AnchorPoint: "A-27" 561.15 0 basechar 0
AnchorPoint: "A-26" 875.65 0 basechar 0
AnchorPoint: "A-25" 144.65 0 basechar 0
AnchorPoint: "A-24" 561.15 0 basechar 0
AnchorPoint: "A-23" 561.15 0 basechar 0
AnchorPoint: "A-20" 76.6504 0 basechar 0
AnchorPoint: "A-7" 493.15 0 basechar 0
AnchorPoint: "A-6" 493.15 0 basechar 0
AnchorPoint: "A-5" 493.15 0 basechar 0
AnchorPoint: "A-4" 493.15 0 basechar 0
AnchorPoint: "A-3" 600 40 basechar 0
AnchorPoint: "A-2" 561.15 0 basechar 0
AnchorPoint: "A-1" 561.15 0 basechar 0
AnchorPoint: "A-0" 561.15 0 basechar 0
LayerCount: 2
Fore
SplineSet
301 782 m 1
 240 810 230 786 169 870 c 1
 169 982 191 1061 237 1122 c 1
 306 1066 387 1024 477 990 c 1
 431 898 404 831 393 786 c 1
 393 591 511 441 511 310 c 0
 511 299 514 274 514 254 c 0
 514 246 513 239 512 234 c 1
 727 234 789 584 789 814 c 1
 729 845 677 844 637 918 c 1
 631 936 629 955 629 974 c 0
 629 1040 661 1110 721 1154 c 1
 799 1043 894 1030 982 986 c 1
 917 822 l 9
 877 806 l 17
 877 462 794 194 587 71 c 1
 499 16 373 -14 238 -14 c 1
 197 -14 156 -14 114 -14 c 1
 104 39 96 20 96 69 c 0
 96 110 99 190 117 224 c 1
 199 210 262 184 333 184 c 0
 371 184 410 191 456 212 c 1
 409 336 286 556 286 699 c 0
 286 726 291 754 301 782 c 1
EndSplineSet
Validated: 1
LCarets2: 1 77 
MultipleSubs2: "Add hairspace before low marked Qof" ayin.alt hairspace
EndChar

StartChar: alef.wide
Encoding: 64289 64289 113
Width: 1673
GlyphClass: 2
Flags: W
HStem: 52 209<399.794 568.229>
VStem: 219 108<333.728 596.224> 1335 86<642.137 770.211>
AnchorPoint: "A-69" 927.6 0 basechar 0
AnchorPoint: "A-68" 927.6 0 basechar 0
AnchorPoint: "A-67" 927.6 0 basechar 0
AnchorPoint: "A-66" 927.6 0 basechar 0
AnchorPoint: "A-65" 927.6 0 basechar 0
AnchorPoint: "A-64" 927.6 0 basechar 0
AnchorPoint: "A-63" 927.6 0 basechar 0
AnchorPoint: "A-62" 927.6 0 basechar 0
AnchorPoint: "A-61" 927.6 0 basechar 0
AnchorPoint: "A-59" 137.1 0 basechar 0
AnchorPoint: "A-55" 1454.6 0 basechar 0
AnchorPoint: "A-42" 927.6 0 basechar 0
AnchorPoint: "A-39" 910.6 0 basechar 0
AnchorPoint: "A-36" 910.6 0 basechar 0
AnchorPoint: "A-21" -228.4 0 basechar 0
AnchorPoint: "A-16" 927.6 0 basechar 0
AnchorPoint: "A-15" 927.6 0 basechar 0
AnchorPoint: "A-14" 927.6 0 basechar 0
AnchorPoint: "A-13" 927.6 0 basechar 0
AnchorPoint: "A-12" 927.6 0 basechar 0
AnchorPoint: "A-11" 927.6 0 basechar 0
AnchorPoint: "A-10" 927.6 0 basechar 0
AnchorPoint: "A-9" 927.6 0 basechar 0
AnchorPoint: "A-8" 927.6 0 basechar 0
AnchorPoint: "A-58" 910.6 0 basechar 0
AnchorPoint: "A-41" 1182.6 0 basechar 0
AnchorPoint: "A-40" 927.6 0 basechar 0
AnchorPoint: "A-32" 910.6 0 basechar 0
AnchorPoint: "A-31" 910.6 0 basechar 0
AnchorPoint: "A-30" 655.6 0 basechar 0
AnchorPoint: "A-29" 740.6 0 basechar 0
AnchorPoint: "A-28" 549.35 0 basechar 0
AnchorPoint: "A-27" 1080.6 0 basechar 0
AnchorPoint: "A-26" 1454.6 0 basechar 0
AnchorPoint: "A-25" 264.6 0 basechar 0
AnchorPoint: "A-24" 910.6 0 basechar 0
AnchorPoint: "A-23" 910.6 0 basechar 0
AnchorPoint: "A-20" 145.6 0 basechar 0
AnchorPoint: "A-7" 927.6 0 basechar 0
AnchorPoint: "A-6" 927.6 0 basechar 0
AnchorPoint: "A-5" 927.6 0 basechar 0
AnchorPoint: "A-4" 927.6 0 basechar 0
AnchorPoint: "A-3" 944.6 -450 basechar 0
AnchorPoint: "A-2" 910.6 0 basechar 0
AnchorPoint: "A-1" 910.6 0 basechar 0
AnchorPoint: "A-0" 910.6 0 basechar 0
LayerCount: 2
Fore
SplineSet
1313 455 m 1
 1452 378 1490 345 1599 258 c 1
 1580 151 1501 -12 1497 -12 c 1
 1401 219 1195 299 888 435 c 1
 881 445 493 641 449 651 c 1
 396 651 327 570 327 448 c 1
 327 325 448 261 517 261 c 0
 541 261 570 269 600 288 c 1
 576 128 560 52 560 52 c 17
 455 52 366 2 276 -48 c 9
 256 -4 l 17
 271 59 306 99 338 142 c 1
 273 202 219 303 219 384 c 1
 219 565 292 708 370 828 c 1
 285 925 l 9
 428 1144 l 17
 558 734 1014 591 1191 534 c 1
 1278 598 1335 694 1335 757 c 1
 1335 814 1308 863 1253 900 c 1
 1282 972 1309 1043 1357 1120 c 1
 1417 1041 1492 984 1573 938 c 1
 1548 867 1517 804 1469 764 c 9
 1421 772 l 17
 1421 650 1386 520 1313 455 c 1
EndSplineSet
Validated: 1
LCarets2: 1 137 
MultipleSubs2: "Add hairspace before low marked Qof" alef.wide hairspace
EndChar

StartChar: dalet.wide
Encoding: 64290 64290 114
Width: 1550
GlyphClass: 2
Flags: W
HStem: 825 201<291.485 1221.48> 1033 20G<1374 1441>
VStem: 1195 129<412.393 782> 1259 130<72.3828 445.121>
AnchorPoint: "A-69" 1194.22 0 basechar 0
AnchorPoint: "A-68" 1109.22 0 basechar 0
AnchorPoint: "A-67" 1024.22 0 basechar 0
AnchorPoint: "A-66" 1194.22 0 basechar 0
AnchorPoint: "A-65" 1109.22 0 basechar 0
AnchorPoint: "A-64" 1024.22 0 basechar 0
AnchorPoint: "A-63" 1194.22 0 basechar 0
AnchorPoint: "A-62" 1109.22 0 basechar 0
AnchorPoint: "A-61" 1024.22 0 basechar 0
AnchorPoint: "A-59" 123.225 0 basechar 0
AnchorPoint: "A-55" 1296.22 0 basechar 0
AnchorPoint: "A-42" 1092.22 0 basechar 0
AnchorPoint: "A-39" 820.225 0 basechar 0
AnchorPoint: "A-36" 820.225 0 basechar 0
AnchorPoint: "A-21" -242.275 0 basechar 0
AnchorPoint: "A-19" 1015.72 0 basechar 0
AnchorPoint: "A-18" 1143.22 0 basechar 0
AnchorPoint: "A-17" 1134.72 0 basechar 0
AnchorPoint: "A-16" 1015.72 0 basechar 0
AnchorPoint: "A-15" 1143.22 0 basechar 0
AnchorPoint: "A-14" 1134.72 0 basechar 0
AnchorPoint: "A-13" 888.225 0 basechar 0
AnchorPoint: "A-12" 1015.72 0 basechar 0
AnchorPoint: "A-11" 1007.22 0 basechar 0
AnchorPoint: "A-10" 1015.72 0 basechar 0
AnchorPoint: "A-9" 1143.22 0 basechar 0
AnchorPoint: "A-8" 1134.72 0 basechar 0
AnchorPoint: "A-58" 803.225 0 basechar 0
AnchorPoint: "A-41" 973.225 0 basechar 0
AnchorPoint: "A-40" 1279.22 0 basechar 0
AnchorPoint: "A-32" 820.225 0 basechar 0
AnchorPoint: "A-31" 820.225 0 basechar 0
AnchorPoint: "A-30" 565.225 0 basechar 0
AnchorPoint: "A-29" 650.225 0 basechar 0
AnchorPoint: "A-28" 535.475 0 basechar 0
AnchorPoint: "A-27" 990.225 0 basechar 0
AnchorPoint: "A-26" 1296.22 0 basechar 0
AnchorPoint: "A-25" 106.225 0 basechar 0
AnchorPoint: "A-24" 820.225 0 basechar 0
AnchorPoint: "A-23" 820.225 0 basechar 0
AnchorPoint: "A-20" 38.2246 0 basechar 0
AnchorPoint: "A-7" 1104.97 0 basechar 0
AnchorPoint: "A-6" 1160.22 0 basechar 0
AnchorPoint: "A-5" 1287.72 0 basechar 0
AnchorPoint: "A-4" 1287.72 0 basechar 0
AnchorPoint: "A-3" 760.725 0 basechar 0
AnchorPoint: "A-2" 820.225 0 basechar 0
AnchorPoint: "A-1" 820.225 0 basechar 0
AnchorPoint: "A-0" 820.225 0 basechar 0
LayerCount: 2
Fore
SplineSet
1224 838 m 1xe0
 1138 825 498 825 412 825 c 1
 258 825 207 840 197 845 c 9
 166 942 l 25
 138 970 l 17
 158 1048 193 1097 234 1138 c 1
 265 1104 274 1059 354 1044 c 1
 432 1036 721 1026 804 1026 c 0
 903 1026 1323 1039 1425 1053 c 1
 1457 994 1473 924 1473 849 c 1
 1389 829 1324 746 1324 682 c 0xe0
 1324 564 1389 383 1389 241 c 0
 1389 217 1387 193 1382 170 c 1
 1371 113 1336 48 1283 -25 c 9
 1259 -3 l 17xd0
 1259 166 1255 295 1207 479 c 1
 1207 503 1195 585 1195 606 c 0
 1195 630 1195 653 1195 676 c 0
 1195 727 1199 777 1224 838 c 1xe0
EndSplineSet
Validated: 1
LCarets2: 1 123 
MultipleSubs2: "Add hairspace before low marked Qof" dalet.wide hairspace
EndChar

StartChar: he.wide
Encoding: 64291 64291 115
Width: 1655
GlyphClass: 2
Flags: W
HStem: 831 188<376.536 1435.67> 1023 20G<1513 1580>
VStem: 247 122<246.166 522.391> 1404 128<406.254 810.963>
AnchorPoint: "A-69" 918.875 0 basechar 0
AnchorPoint: "A-68" 918.875 0 basechar 0
AnchorPoint: "A-67" 918.875 0 basechar 0
AnchorPoint: "A-66" 918.875 0 basechar 0
AnchorPoint: "A-65" 918.875 0 basechar 0
AnchorPoint: "A-64" 918.875 0 basechar 0
AnchorPoint: "A-63" 918.875 0 basechar 0
AnchorPoint: "A-62" 918.875 0 basechar 0
AnchorPoint: "A-61" 918.875 0 basechar 0
AnchorPoint: "A-59" 136.875 0 basechar 0
AnchorPoint: "A-55" 1479.88 0 basechar 0
AnchorPoint: "A-42" 918.875 0 basechar 0
AnchorPoint: "A-39" 918.875 0 basechar 0
AnchorPoint: "A-36" 918.875 0 basechar 0
AnchorPoint: "A-21" -228.625 0 basechar 0
AnchorPoint: "A-16" 901.875 0 basechar 0
AnchorPoint: "A-15" 901.875 0 basechar 0
AnchorPoint: "A-14" 901.875 0 basechar 0
AnchorPoint: "A-13" 901.875 0 basechar 0
AnchorPoint: "A-12" 901.875 0 basechar 0
AnchorPoint: "A-11" 901.875 0 basechar 0
AnchorPoint: "A-10" 901.875 0 basechar 0
AnchorPoint: "A-9" 901.875 0 basechar 0
AnchorPoint: "A-8" 901.875 0 basechar 0
AnchorPoint: "A-58" 918.875 0 basechar 0
AnchorPoint: "A-41" 1156.88 0 basechar 0
AnchorPoint: "A-40" 918.875 0 basechar 0
AnchorPoint: "A-32" 918.875 0 basechar 0
AnchorPoint: "A-31" 918.875 0 basechar 0
AnchorPoint: "A-30" 663.875 0 basechar 0
AnchorPoint: "A-29" 748.875 0 basechar 0
AnchorPoint: "A-28" 549.125 0 basechar 0
AnchorPoint: "A-27" 1088.88 0 basechar 0
AnchorPoint: "A-26" 1479.88 0 basechar 0
AnchorPoint: "A-25" 204.875 0 basechar 0
AnchorPoint: "A-24" 918.875 0 basechar 0
AnchorPoint: "A-23" 918.875 0 basechar 0
AnchorPoint: "A-20" 136.875 0 basechar 0
AnchorPoint: "A-7" 901.875 0 basechar 0
AnchorPoint: "A-6" 901.875 0 basechar 0
AnchorPoint: "A-5" 901.875 0 basechar 0
AnchorPoint: "A-4" 901.875 0 basechar 0
AnchorPoint: "A-3" 901.875 0 basechar 0
AnchorPoint: "A-2" 918.875 0 basechar 0
AnchorPoint: "A-1" 918.875 0 basechar 0
AnchorPoint: "A-0" 918.875 0 basechar 0
LayerCount: 2
Fore
SplineSet
429 224 m 1
 404 148 360 18 327 -36 c 9
 279 -12 l 17
 265 67 247 187 247 268 c 0
 247 439 309 622 417 746 c 1
 393 634 369 547 369 462 c 0
 369 438 l 0
 369 355 371 292 429 224 c 1
1443 843 m 1
 1368 832 1044 831 903 831 c 0
 881 831 863 831 852 831 c 0
 740 831 393 831 281 831 c 9
 247 933 l 25
 221 961 l 17
 241 1039 276 1088 317 1129 c 1
 348 1095 373 1044 453 1029 c 1
 487 1022 566 1019 651 1019 c 0
 762 1019 882 1023 929 1023 c 0
 1028 1023 1462 1029 1564 1043 c 1
 1596 984 1617 924 1617 849 c 1
 1553 806 1532 750 1532 686 c 0
 1532 568 1597 373 1597 231 c 0
 1597 207 1595 183 1590 160 c 1
 1579 103 1544 38 1491 -35 c 9
 1467 -14 l 17
 1448 152 1442 362 1404 543 c 1
 1404 567 1404 589 1404 610 c 0
 1404 689 1407 755 1443 843 c 1
EndSplineSet
Validated: 1
LCarets2: 1 137 
MultipleSubs2: "Add hairspace before low marked Qof" he.wide hairspace
EndChar

StartChar: kaf.wide
Encoding: 64292 64292 116
Width: 1510
GlyphClass: 2
Flags: W
HStem: -21 219<231.274 722.738> 832 183<367.478 1225.46>
VStem: 1340 121<304.454 600.682>
AnchorPoint: "A-69" 766.525 0 basechar 0
AnchorPoint: "A-68" 766.525 0 basechar 0
AnchorPoint: "A-67" 766.525 0 basechar 0
AnchorPoint: "A-66" 766.525 0 basechar 0
AnchorPoint: "A-65" 766.525 0 basechar 0
AnchorPoint: "A-64" 766.525 0 basechar 0
AnchorPoint: "A-63" 766.525 0 basechar 0
AnchorPoint: "A-62" 766.525 0 basechar 0
AnchorPoint: "A-61" 766.525 0 basechar 0
AnchorPoint: "A-59" 120.525 0 basechar 0
AnchorPoint: "A-55" 1293.53 0 basechar 0
AnchorPoint: "A-42" 766.525 0 basechar 0
AnchorPoint: "A-39" 800.525 0 basechar 0
AnchorPoint: "A-36" 800.525 0 basechar 0
AnchorPoint: "A-21" -244.975 0 basechar 0
AnchorPoint: "A-16" 766.525 0 basechar 0
AnchorPoint: "A-15" 766.525 0 basechar 0
AnchorPoint: "A-14" 766.525 0 basechar 0
AnchorPoint: "A-13" 766.525 0 basechar 0
AnchorPoint: "A-12" 766.525 0 basechar 0
AnchorPoint: "A-11" 766.525 0 basechar 0
AnchorPoint: "A-10" 766.525 0 basechar 0
AnchorPoint: "A-9" 766.525 0 basechar 0
AnchorPoint: "A-8" 766.525 0 basechar 0
AnchorPoint: "A-58" 800.525 0 basechar 0
AnchorPoint: "A-41" 979.025 0 basechar 0
AnchorPoint: "A-40" 766.525 0 basechar 0
AnchorPoint: "A-32" 800.525 0 basechar 0
AnchorPoint: "A-31" 800.525 0 basechar 0
AnchorPoint: "A-30" 630.525 0 basechar 0
AnchorPoint: "A-29" 630.525 0 basechar 0
AnchorPoint: "A-28" 532.775 0 basechar 0
AnchorPoint: "A-27" 970.525 0 basechar 0
AnchorPoint: "A-26" 1293.53 0 basechar 0
AnchorPoint: "A-25" 171.525 0 basechar 0
AnchorPoint: "A-24" 800.525 0 basechar 0
AnchorPoint: "A-23" 800.525 0 basechar 0
AnchorPoint: "A-20" 103.525 0 basechar 0
AnchorPoint: "A-7" 766.525 0 basechar 0
AnchorPoint: "A-6" 766.525 0 basechar 0
AnchorPoint: "A-5" 766.525 0 basechar 0
AnchorPoint: "A-4" 766.525 0 basechar 0
AnchorPoint: "A-3" 783.525 0 basechar 0
AnchorPoint: "A-2" 800.525 0 basechar 0
AnchorPoint: "A-1" 800.525 0 basechar 0
AnchorPoint: "A-0" 800.525 0 basechar 0
LayerCount: 2
Fore
SplineSet
1376 918 m 1
 1412 745 1461 566 1461 411 c 0
 1461 312 1441 222 1385 150 c 1
 1202 48 502 -21 183 -21 c 1
 197 61 205 124 237 198 c 1
 247 198 260 198 274 198 c 0
 501 198 1216 202 1320 321 c 1
 1335 338 1340 379 1340 405 c 0
 1340 457 1317 522 1301 585 c 1
 1265 687 1265 819 1143 832 c 9
 258 832 l 25
 226 934 l 25
 198 962 l 17
 218 1040 253 1089 294 1130 c 1
 325 1096 342 1060 428 1032 c 1
 474 1024 816 1015 860 1015 c 0
 913 1015 1177 1026 1222 1026 c 0
 1296 1026 1353 1008 1376 918 c 1
EndSplineSet
Validated: 1
LCarets2: 1 121 
MultipleSubs2: "Add hairspace before low marked Qof" kaf.wide hairspace
EndChar

StartChar: lamed.wide
Encoding: 64293 64293 117
Width: 1418
GlyphClass: 2
Flags: W
HStem: 812 216<262.072 873.51> 832 210<514.49 1163.07>
VStem: 102 200<1456.38 1536.38> 212 36<1156 1410> 963 158<23.8123 233.073> 963 111<127.948 319.547> 1179 173<709.608 822.161>
AnchorPoint: "A-69" 903.75 0 basechar 0
AnchorPoint: "A-68" 903.75 0 basechar 0
AnchorPoint: "A-67" 903.75 0 basechar 0
AnchorPoint: "A-66" 903.75 0 basechar 0
AnchorPoint: "A-65" 903.75 0 basechar 0
AnchorPoint: "A-64" 903.75 0 basechar 0
AnchorPoint: "A-63" 903.75 0 basechar 0
AnchorPoint: "A-62" 903.75 0 basechar 0
AnchorPoint: "A-61" 903.75 0 basechar 0
AnchorPoint: "A-59" 113.25 0 basechar 0
AnchorPoint: "A-55" 1260.75 0 basechar 0
AnchorPoint: "A-42" 988.75 0 basechar 0
AnchorPoint: "A-39" 776.25 0 basechar 0
AnchorPoint: "A-36" 776.25 0 basechar 0
AnchorPoint: "A-21" -252.25 0 basechar 0
AnchorPoint: "A-16" 988.75 0 basechar 0
AnchorPoint: "A-15" 988.75 0 basechar 0
AnchorPoint: "A-14" 988.75 0 basechar 0
AnchorPoint: "A-13" 861.25 0 basechar 0
AnchorPoint: "A-12" 861.25 0 basechar 0
AnchorPoint: "A-11" 861.25 0 basechar 0
AnchorPoint: "A-10" 988.75 0 basechar 0
AnchorPoint: "A-9" 988.75 0 basechar 0
AnchorPoint: "A-8" 988.75 0 basechar 0
AnchorPoint: "A-58" 750.75 0 basechar 0
AnchorPoint: "A-41" 852.75 0 basechar 0
AnchorPoint: "A-40" 988.75 0 basechar 0
AnchorPoint: "A-32" 835.75 0 basechar 0
AnchorPoint: "A-31" 776.25 0 basechar 0
AnchorPoint: "A-30" 334.25 0 basechar 0
AnchorPoint: "A-29" 308.75 0 basechar 0
AnchorPoint: "A-28" 270.5 0 basechar 0
AnchorPoint: "A-27" 946.25 0 basechar 0
AnchorPoint: "A-26" 1260.75 0 basechar 0
AnchorPoint: "A-25" -73.75 0 basechar 0
AnchorPoint: "A-24" 776.25 0 basechar 0
AnchorPoint: "A-23" 776.25 0 basechar 0
AnchorPoint: "A-20" -174.9 0 basechar 0
AnchorPoint: "A-7" 988.75 0 basechar 0
AnchorPoint: "A-6" 988.75 0 basechar 0
AnchorPoint: "A-5" 988.75 0 basechar 0
AnchorPoint: "A-4" 988.75 0 basechar 0
AnchorPoint: "A-3" 725.25 0 basechar 0
AnchorPoint: "A-2" 776.25 0 basechar 0
AnchorPoint: "A-1" 776.25 0 basechar 0
AnchorPoint: "A-0" 776.25 0 basechar 0
LayerCount: 2
Fore
SplineSet
1225 1042 m 1x52
 1248 1037 1263 1033 1287 1009 c 1
 1325 964 1352 900 1352 820 c 1
 1307 661 1115 372 1077 262 c 0
 1075 256 1074 251 1074 246 c 0x56
 1074 222 1095 203 1121 196 c 1
 1121 106 1090 39 1058 -20 c 1
 1002 7 967 88 967 89 c 1
 967 108 963 133 963 166 c 0
 963 195 966 230 979 272 c 1
 987 313 1107 420 1179 715 c 1
 1180 720 1179 725 1179 730 c 0
 1179 781 1141 832 1108 832 c 9x4a
 280 812 l 17
 180 812 151 889 151 988 c 1
 151 1057 154 1130 164 1204 c 1
 172 1254 212 1353 212 1410 c 0x9a
 212 1435 204 1451 182 1451 c 1
 170 1451 156 1448 139 1443 c 1
 121 1443 102 1454 102 1473 c 0
 102 1480 104 1488 109 1496 c 9
 245 1648 l 17
 250 1651 256 1652 261 1652 c 0
 275 1652 289 1644 295 1632 c 1
 300 1610 302 1586 302 1560 c 0xa2
 302 1429 248 1261 248 1156 c 1
 248 1103 261 1028 310 1028 c 1x92
 412 1028 1117 1042 1225 1042 c 1x52
EndSplineSet
Validated: 1
LCarets2: 1 113 
MultipleSubs2: "Add hairspace before low marked Qof" lamed.wide hairspace
MultipleSubs2: "Add thispace after Lamed subtable" lamed.wide thinspace
EndChar

StartChar: finalmem.wide
Encoding: 64294 64294 118
Width: 1648
GlyphClass: 2
Flags: W
HStem: 841 193<419.258 1257.61>
VStem: 246 90<331.453 816.437> 1437 111<306.75 741.213>
AnchorPoint: "A-69" 880.3 0 basechar 0
AnchorPoint: "A-68" 880.3 0 basechar 0
AnchorPoint: "A-67" 880.3 0 basechar 0
AnchorPoint: "A-66" 880.3 0 basechar 0
AnchorPoint: "A-65" 880.3 0 basechar 0
AnchorPoint: "A-64" 880.3 0 basechar 0
AnchorPoint: "A-63" 880.3 0 basechar 0
AnchorPoint: "A-62" 880.3 0 basechar 0
AnchorPoint: "A-61" 880.3 0 basechar 0
AnchorPoint: "A-59" 132.3 0 basechar 0
AnchorPoint: "A-55" 1458.3 0 basechar 0
AnchorPoint: "A-42" 880.3 0 basechar 0
AnchorPoint: "A-39" 897.3 0 basechar 0
AnchorPoint: "A-36" 897.3 0 basechar 0
AnchorPoint: "A-21" -233.2 0 basechar 0
AnchorPoint: "A-16" 880.3 0 basechar 0
AnchorPoint: "A-15" 880.3 0 basechar 0
AnchorPoint: "A-14" 880.3 0 basechar 0
AnchorPoint: "A-13" 880.3 0 basechar 0
AnchorPoint: "A-12" 880.3 0 basechar 0
AnchorPoint: "A-11" 880.3 0 basechar 0
AnchorPoint: "A-10" 880.3 0 basechar 0
AnchorPoint: "A-9" 880.3 0 basechar 0
AnchorPoint: "A-8" 880.3 0 basechar 0
AnchorPoint: "A-58" 897.3 0 basechar 0
AnchorPoint: "A-41" 1101.3 0 basechar 0
AnchorPoint: "A-40" 880.3 0 basechar 0
AnchorPoint: "A-32" 897.3 0 basechar 0
AnchorPoint: "A-31" 897.3 0 basechar 0
AnchorPoint: "A-30" 642.3 0 basechar 0
AnchorPoint: "A-29" 642.3 0 basechar 0
AnchorPoint: "A-28" 544.55 0 basechar 0
AnchorPoint: "A-27" 1067.3 0 basechar 0
AnchorPoint: "A-26" 1458.3 0 basechar 0
AnchorPoint: "A-25" 166.3 0 basechar 0
AnchorPoint: "A-24" 897.3 0 basechar 0
AnchorPoint: "A-23" 897.3 0 basechar 0
AnchorPoint: "A-20" 98.2998 0 basechar 0
AnchorPoint: "A-7" 880.3 0 basechar 0
AnchorPoint: "A-6" 880.3 0 basechar 0
AnchorPoint: "A-5" 880.3 0 basechar 0
AnchorPoint: "A-4" 880.3 0 basechar 0
AnchorPoint: "A-3" 897.3 0 basechar 0
AnchorPoint: "A-2" 897.3 0 basechar 0
AnchorPoint: "A-1" 897.3 0 basechar 0
AnchorPoint: "A-0" 897.3 0 basechar 0
LayerCount: 2
Fore
SplineSet
1437 270 m 17
 1437 320 1437 371 1437 422 c 0
 1437 527 1429 610 1404 724 c 1
 1397 786 1078 841 948 841 c 0
 860 841 425 830 354 819 c 1
 338 761 336 722 336 659 c 0
 336 453 402 253 402 253 c 1
 408 212 433 180 472 180 c 0
 483 180 494 182 506 187 c 1
 668 247 1437 270 1437 270 c 17
192 845 m 9
 164 969 l 25
 136 997 l 17
 156 1075 191 1124 232 1165 c 1
 263 1131 286 1070 366 1055 c 1
 434 1037 843 1034 910 1034 c 0
 1006 1034 1304 1010 1398 1010 c 1
 1500 1010 1495 949 1506 888 c 1
 1539 677 1548 538 1548 354 c 1
 1553 338 1558 322 1580 306 c 1
 1586 285 1589 266 1589 248 c 0
 1589 200 1572 159 1562 116 c 9
 378 -63 l 17
 320 -63 286 -40 286 109 c 1
 256 283 246 420 246 526 c 0
 246 775 300 831 300 831 c 1
 252 831 l 1
 234 831 195 845 192 845 c 9
EndSplineSet
Validated: 1
LCarets2: 1 132 
MultipleSubs2: "Add hairspace before low marked Qof" finalmem.wide hairspace
EndChar

StartChar: resh.wide
Encoding: 64295 64295 119
Width: 1493
GlyphClass: 2
Flags: W
HStem: 8 21G<1281 1364> 829 225<285.662 1244.81>
VStem: 1321 104<87.4585 652.25>
AnchorPoint: "A-69" 1240.35 0 basechar 0
AnchorPoint: "A-68" 1155.35 0 basechar 0
AnchorPoint: "A-67" 1070.35 0 basechar 0
AnchorPoint: "A-66" 1240.35 0 basechar 0
AnchorPoint: "A-65" 1155.35 0 basechar 0
AnchorPoint: "A-64" 1070.35 0 basechar 0
AnchorPoint: "A-63" 1240.35 0 basechar 0
AnchorPoint: "A-62" 1155.35 0 basechar 0
AnchorPoint: "A-61" 1070.35 0 basechar 0
AnchorPoint: "A-59" 118.35 0 basechar 0
AnchorPoint: "A-55" 1316.85 0 basechar 0
AnchorPoint: "A-42" 1163.85 0 basechar 0
AnchorPoint: "A-39" 772.85 0 basechar 0
AnchorPoint: "A-36" 772.85 0 basechar 0
AnchorPoint: "A-21" -247.15 0 basechar 0
AnchorPoint: "A-19" 1078.85 0 basechar 0
AnchorPoint: "A-18" 1155.35 0 basechar 0
AnchorPoint: "A-17" 1206.35 0 basechar 0
AnchorPoint: "A-16" 1078.85 0 basechar 0
AnchorPoint: "A-15" 1155.35 0 basechar 0
AnchorPoint: "A-14" 1206.35 0 basechar 0
AnchorPoint: "A-13" 951.35 0 basechar 0
AnchorPoint: "A-12" 1027.85 0 basechar 0
AnchorPoint: "A-11" 1078.85 0 basechar 0
AnchorPoint: "A-10" 1078.85 0 basechar 0
AnchorPoint: "A-9" 1155.35 0 basechar 0
AnchorPoint: "A-8" 1206.35 0 basechar 0
AnchorPoint: "A-58" 772.85 0 basechar 0
AnchorPoint: "A-41" 1036.35 0 basechar 0
AnchorPoint: "A-40" 1248.85 0 basechar 0
AnchorPoint: "A-32" 772.85 0 basechar 0
AnchorPoint: "A-31" 772.85 0 basechar 0
AnchorPoint: "A-30" 517.85 0 basechar 0
AnchorPoint: "A-29" 602.85 0 basechar 0
AnchorPoint: "A-28" 530.6 0 basechar 0
AnchorPoint: "A-27" 942.85 0 basechar 0
AnchorPoint: "A-26" 1316.85 0 basechar 0
AnchorPoint: "A-25" 118.35 0 basechar 0
AnchorPoint: "A-24" 772.85 0 basechar 0
AnchorPoint: "A-23" 772.85 0 basechar 0
AnchorPoint: "A-20" 41.8496 0 basechar 0
AnchorPoint: "A-7" 1129.85 0 basechar 0
AnchorPoint: "A-6" 1180.85 0 basechar 0
AnchorPoint: "A-5" 1299.85 0 basechar 0
AnchorPoint: "A-4" 1333.85 0 basechar 0
AnchorPoint: "A-3" 755.85 0 basechar 0
AnchorPoint: "A-2" 772.85 0 basechar 0
AnchorPoint: "A-1" 772.85 0 basechar 0
AnchorPoint: "A-0" 772.85 0 basechar 0
LayerCount: 2
Fore
SplineSet
1270 692 m 1
 1259 744 1250 809 1201 829 c 9
 201 834 l 25
 169 934 l 25
 141 962 l 17
 161 1040 195 1107 236 1148 c 1
 267 1114 296 1074 376 1059 c 1
 1256 1054 l 1
 1389 1054 1425 816 1425 573 c 1
 1425 376 l 1
 1425 237 1404 68 1324 8 c 9
 1281 24 l 17
 1310 85 1321 157 1321 236 c 1
 1321 374 1306 519 1270 692 c 1
EndSplineSet
Validated: 1
LCarets2: 1 118 
MultipleSubs2: "Add hairspace before low marked Qof" resh.wide hairspace
EndChar

StartChar: tav.wide
Encoding: 64296 64296 120
Width: 1763
GlyphClass: 2
Flags: W
HStem: 831 225<513.861 1469.94>
VStem: 334 109<311.423 702.218> 1585 111<47.2664 337.184>
AnchorPoint: "A-69" 1001.67 0 basechar 0
AnchorPoint: "A-68" 1001.67 0 basechar 0
AnchorPoint: "A-67" 1001.67 0 basechar 0
AnchorPoint: "A-66" 1001.67 0 basechar 0
AnchorPoint: "A-65" 1001.67 0 basechar 0
AnchorPoint: "A-64" 1001.67 0 basechar 0
AnchorPoint: "A-63" 1001.67 0 basechar 0
AnchorPoint: "A-62" 1001.67 0 basechar 0
AnchorPoint: "A-61" 1001.67 0 basechar 0
AnchorPoint: "A-59" 143.175 0 basechar 0
AnchorPoint: "A-55" 1596.67 0 basechar 0
AnchorPoint: "A-42" 1001.67 0 basechar 0
AnchorPoint: "A-39" 993.175 0 basechar 0
AnchorPoint: "A-36" 993.175 0 basechar 0
AnchorPoint: "A-21" -201.075 0 basechar 0
AnchorPoint: "A-16" 1001.67 0 basechar 0
AnchorPoint: "A-15" 1001.67 0 basechar 0
AnchorPoint: "A-14" 1001.67 0 basechar 0
AnchorPoint: "A-13" 1001.67 0 basechar 0
AnchorPoint: "A-12" 1001.67 0 basechar 0
AnchorPoint: "A-11" 1001.67 0 basechar 0
AnchorPoint: "A-10" 1001.67 0 basechar 0
AnchorPoint: "A-9" 1001.67 0 basechar 0
AnchorPoint: "A-8" 1001.67 0 basechar 0
AnchorPoint: "A-58" 993.175 0 basechar 0
AnchorPoint: "A-41" 1256.67 0 basechar 0
AnchorPoint: "A-40" 1001.67 0 basechar 0
AnchorPoint: "A-32" 993.175 0 basechar 0
AnchorPoint: "A-31" 993.175 0 basechar 0
AnchorPoint: "A-30" 738.175 0 basechar 0
AnchorPoint: "A-29" 823.175 0 basechar 0
AnchorPoint: "A-28" 555.425 0 basechar 0
AnchorPoint: "A-27" 1163.17 0 basechar 0
AnchorPoint: "A-26" 1596.67 0 basechar 0
AnchorPoint: "A-25" 245.175 0 basechar 0
AnchorPoint: "A-24" 993.175 0 basechar 0
AnchorPoint: "A-23" 993.175 0 basechar 0
AnchorPoint: "A-20" 177.175 0 basechar 0
AnchorPoint: "A-7" 1001.67 0 basechar 0
AnchorPoint: "A-6" 1001.67 0 basechar 0
AnchorPoint: "A-5" 1001.67 0 basechar 0
AnchorPoint: "A-4" 1001.67 0 basechar 0
AnchorPoint: "A-3" 1001.67 0 basechar 0
AnchorPoint: "A-2" 993.175 0 basechar 0
AnchorPoint: "A-1" 993.175 0 basechar 0
AnchorPoint: "A-0" 993.175 0 basechar 0
LayerCount: 2
Fore
SplineSet
477 1056 m 9
 1471 1057 l 17
 1583 1057 1588 910 1608 816 c 9
 1696 244 l 17
 1696 145 1667 67 1636 -6 c 9
 1580 46 l 17
 1583 73 1585 101 1585 130 c 0
 1585 320 1523 559 1476 776 c 1
 1461 807 1437 831 1396 831 c 9
 579 831 l 17
 559 831 529 813 509 779 c 1
 472 713 443 635 443 537 c 0
 443 463 460 377 501 275 c 9
 549 275 l 25
 549 83 l 17
 444 26 339 -28 213 -59 c 1
 204 -6 184 41 184 97 c 0
 184 115 186 133 191 153 c 1
 258 180 322 194 393 245 c 1
 352 348 334 435 334 510 c 0
 334 650 395 748 469 831 c 9
 271 867 l 17
 267 889 265 910 265 930 c 0
 265 1004 289 1085 334 1130 c 1
 375 1060 418 1056 477 1056 c 9
EndSplineSet
Validated: 1
LCarets2: 1 143 
MultipleSubs2: "Add hairspace before low marked Qof" tav.wide hairspace
EndChar

StartChar: hebrewplussign
Encoding: 64297 64297 121
Width: 1016
VWidth: 2008
GlyphClass: 2
Flags: W
HStem: 335 124<-27 401 520 955>
VStem: 401 119<459 905>
LayerCount: 2
Fore
SplineSet
-27 335 m 1
 -27 459 l 1
 401 459 l 1
 401 905 l 1
 520 905 l 1
 520 459 l 1
 955 459 l 1
 955 335 l 1
 -27 335 l 1
EndSplineSet
Validated: 1
EndChar

StartChar: aleflamed
Encoding: 64335 64335 154
Width: 1082
GlyphClass: 3
Flags: W
HStem: 1459 206<57.3622 169.417>
VStem: 167 116<870.322 1345.64> 195 111<1014.31 1434.01>
AnchorPoint: "A-63" 900 0 basechar 0
AnchorPoint: "A-62" 1060 0 basechar 0
AnchorPoint: "A-61" 1120 0 basechar 0
AnchorPoint: "A-20" 180 0 basechar 0
AnchorPoint: "A-7" 662 0 basechar 0
AnchorPoint: "A-6" 760 0 basechar 0
AnchorPoint: "A-5" 710 0 basechar 0
AnchorPoint: "A-4" 660 0 basechar 0
LayerCount: 2
Fore
SplineSet
179 1665 m 1xa0
 259 1587 292 1531 306 1422 c 1xa0
 306 1300 283 1121 283 1031 c 1
 283 823 564 526 643 526 c 1
 685 613 740 737 740 798 c 0
 740 841 726 876 696 900 c 1
 684 904 673 923 673 945 c 1
 672 947 672 949 672 952 c 0
 672 991 724 1114 767 1130 c 1
 842 1043 920 961 1007 945 c 9
 938 769 l 25
 855 794 l 25
 696 473 l 25
 956 244 l 17
 972 198 980 155 980 117 c 0
 980 59 959 12 908 -17 c 1
 674 371 402 385 228 738 c 1
 195 794 172 917 172 917 c 0
 169 939 167 964 167 989 c 0xc0
 167 1080 195 1258 195 1276 c 0
 195 1392 188 1399 138 1449 c 16
 132 1455 125 1459 117 1459 c 1
 113 1460 110 1459 106 1459 c 0
 87 1459 67 1447 41 1428 c 1
 30 1438 20 1464 20 1482 c 1
 20 1629 87 1665 179 1665 c 1xa0
EndSplineSet
Validated: 1
Ligature2: "'ccmp' Alef Lamed Ligature subtable" alef cgj lamed
Ligature2: "'ccmp' Alef Lamed Ligature subtable" alef .null lamed
LCarets2: 2 0 0 
MultipleSubs2: "Add thispace after Lamed subtable" aleflamed thinspace
Ligature2: "'ccmp' Alef Lamed Ligature subtable" alef zerojoin lamed
EndChar

StartChar: hatafsegol_meteg
Encoding: 65547 -1 164
Width: 0
GlyphClass: 4
Flags: W
HStem: -587 164<-235.963 -111.383 229.409 353.617> -333 164<-353.617 -229.409 -117.963 6.61734 229.409 353.617>
VStem: -361 139<-327.781 -174.219> -243 139<-581.781 -428.219> -125 139<-327.781 -174.219> 82 72<-575 -185> 222 139<-581.781 -428.219 -327.781 -174.219>
AnchorPoint: "A-48" 76.5 0 basemark 0
AnchorPoint: "A-47" 76.5 0 basemark 0
AnchorPoint: "A-46" 102 0 basemark 0
AnchorPoint: "A-45" -510 0 basemark 0
AnchorPoint: "A-44" -510 0 basemark 0
AnchorPoint: "A-43" -493 0 basemark 0
AnchorPoint: "A-7" 0 0 mark 0
LayerCount: 2
Fore
SplineSet
154 -575 m 1xc6
 82 -575 l 1
 82 -185 l 1
 154 -185 l 1
 154 -575 l 1xc6
292 -587 m 256
 250 -587 222 -551 222 -505 c 256
 222 -456 252 -423 292 -423 c 256
 333 -423 361 -459 361 -505 c 256
 361 -554 331 -587 292 -587 c 256
292 -333 m 256
 250 -333 222 -297 222 -251 c 256
 222 -202 252 -169 292 -169 c 256
 333 -169 361 -205 361 -251 c 256
 361 -300 331 -333 292 -333 c 256
-55 -169 m 256
 -14 -169 14 -205 14 -251 c 256
 14 -300 -16 -333 -55 -333 c 256
 -97 -333 -125 -297 -125 -251 c 256xce
 -125 -202 -94 -169 -55 -169 c 256
-173 -423 m 256
 -132 -423 -104 -459 -104 -505 c 256
 -104 -554 -134 -587 -173 -587 c 256
 -215 -587 -243 -551 -243 -505 c 256xd6
 -243 -456 -212 -423 -173 -423 c 256
-292 -169 m 256
 -250 -169 -222 -205 -222 -251 c 256
 -222 -300 -252 -333 -292 -333 c 256
 -333 -333 -361 -297 -361 -251 c 256xe6
 -361 -202 -331 -169 -292 -169 c 256
EndSplineSet
Validated: 1
Ligature2: "'ccmp' Hataf CGJ Meteg substitutions subtable" hatafsegol cgj meteg
Ligature2: "'ccmp' Hataf CGJ Meteg substitutions subtable" hatafsegol zerojoin meteg
Ligature2: "'ccmp' Hataf CGJ Meteg substitutions subtable" hatafsegol .null meteg
LCarets2: 1 0 
MultipleSubs2: "Add hairspace after last low mark subtable" hatafsegol_meteg hairspace
MultipleSubs2: "Add thinspace before narrow letter subtable" hatafsegol_meteg thinspace
MultipleSubs2: "Add hairspace before low marked Qof" hatafsegol_meteg hairspace
EndChar

StartChar: hatafpatah_meteg
Encoding: 65548 -1 165
Width: 0
GlyphClass: 4
Flags: W
HStem: -587 164<196.037 321.963> -333 164<196.037 321.963> -286 94<-322 -23>
VStem: 49 72<-575 -185> 189 140<-581.781 -428.219 -327.781 -174.219>
AnchorPoint: "A-48" 43.0254 0 basemark 0
AnchorPoint: "A-47" 43.0254 0 basemark 0
AnchorPoint: "A-46" 68.5254 0 basemark 0
AnchorPoint: "A-45" -492.475 0 basemark 0
AnchorPoint: "A-44" -492.475 0 basemark 0
AnchorPoint: "A-43" -492.475 0 basemark 0
AnchorPoint: "A-7" 0.525391 0 mark 0
LayerCount: 2
Fore
SplineSet
-23 -286 m 1xb8
 -322 -286 l 1
 -322 -192 l 1
 -23 -192 l 1
 -23 -286 l 1xb8
121 -575 m 1
 49 -575 l 1
 49 -185 l 1
 121 -185 l 1
 121 -575 l 1
259 -587 m 256
 217 -587 189 -551 189 -505 c 256
 189 -456 220 -423 259 -423 c 256
 301 -423 329 -459 329 -505 c 256
 329 -554 298 -587 259 -587 c 256
259 -333 m 256xd8
 217 -333 189 -297 189 -251 c 256
 189 -202 220 -169 259 -169 c 256
 301 -169 329 -205 329 -251 c 256
 329 -300 298 -333 259 -333 c 256xd8
EndSplineSet
Validated: 1
Ligature2: "'ccmp' Hataf CGJ Meteg substitutions subtable" hatafpatah cgj meteg
Ligature2: "'ccmp' Hataf CGJ Meteg substitutions subtable" hatafpatah .null meteg
Ligature2: "'ccmp' Hataf CGJ Meteg substitutions subtable" hatafpatah zerojoin meteg
LCarets2: 1 1 
MultipleSubs2: "Add hairspace after last low mark subtable" hatafpatah_meteg hairspace
MultipleSubs2: "Add thinspace before narrow letter subtable" hatafpatah_meteg thinspace
MultipleSubs2: "Add hairspace before low marked Qof" hatafpatah_meteg hairspace
EndChar

StartChar: hatafqamats_meteg
Encoding: 65549 -1 166
Width: 0
GlyphClass: 4
Flags: W
HStem: -587 164<196.037 320.617> -333 164<196.037 320.617> -284 94<-324 -198 -155 -28>
VStem: -198 43<-427.094 -284> 48 72<-576 -186> 189 139<-581.781 -428.219 -327.781 -174.219>
AnchorPoint: "A-48" 42.7998 0 basemark 0
AnchorPoint: "A-47" 42.7998 0 basemark 0
AnchorPoint: "A-46" 68.2998 0 basemark 0
AnchorPoint: "A-45" -492.7 0 basemark 0
AnchorPoint: "A-44" -492.7 0 basemark 0
AnchorPoint: "A-43" -492.7 0 basemark 0
AnchorPoint: "A-7" 0.299805 0 mark 0
LayerCount: 2
Fore
SplineSet
-198 -284 m 1xbc
 -324 -284 l 1
 -324 -190 l 1
 -28 -190 l 1
 -28 -284 l 1
 -155 -284 l 1
 -155 -318 l 1
 -155 -319 -155 -320 -155 -321 c 0
 -155 -353 -151 -382 -142 -406 c 9
 -107 -496 l 17
 -118 -526 -131 -555 -156 -581 c 1
 -171 -584 -185 -584 -198 -580 c 1
 -224 -558 -236 -528 -245 -496 c 9
 -210 -406 l 17
 -202 -389 -198 -335 -198 -322 c 0
 -198 -319 l 9
 -198 -319 -198 -297 -198 -284 c 1xbc
120 -576 m 1
 48 -576 l 1
 48 -186 l 1
 120 -186 l 1
 120 -576 l 1
259 -587 m 256
 217 -587 189 -551 189 -505 c 256
 189 -456 220 -423 259 -423 c 256
 300 -423 328 -459 328 -505 c 256
 328 -554 298 -587 259 -587 c 256
259 -333 m 256xdc
 217 -333 189 -297 189 -251 c 256
 189 -202 220 -169 259 -169 c 256
 300 -169 328 -205 328 -251 c 256
 328 -300 298 -333 259 -333 c 256xdc
EndSplineSet
Validated: 1
Ligature2: "'ccmp' Hataf CGJ Meteg substitutions subtable" hatafqamats cgj meteg
Ligature2: "'ccmp' Hataf CGJ Meteg substitutions subtable" hatafqamats .null meteg
Ligature2: "'ccmp' Hataf CGJ Meteg substitutions subtable" hatafqamats zerojoin meteg
LCarets2: 1 0 
MultipleSubs2: "Add hairspace after last low mark subtable" hatafqamats_meteg hairspace
MultipleSubs2: "Add thinspace before narrow letter subtable" hatafqamats_meteg thinspace
MultipleSubs2: "Add hairspace before low marked Qof" hatafqamats_meteg hairspace
EndChar

StartChar: exclam
Encoding: 33 33 167
Width: 473
Flags: W
HStem: 0 21G<157 174>
VStem: 62 277
LayerCount: 2
Fore
SplineSet
73 1210 m 25
 339 1396 l 25
 307 534 l 25
 151 434 l 25
 73 1210 l 25
222 274 m 17
 245 208 291 155 343 106 c 9
 188 3 l 17
 183 1 177 0 171 0 c 0
 143 0 109 17 87 55 c 1
 73 79 62 100 62 121 c 0
 62 141 73 161 101 185 c 9
 222 274 l 17
EndSplineSet
Validated: 1
EndChar

StartChar: quotedbl
Encoding: 34 34 168
Width: 721
Flags: W
HStem: 982 447
VStem: 80 521
LayerCount: 2
Fore
SplineSet
601 1429 m 1
 513 995 l 1
 407 982 l 1
 428 1407 l 1
 601 1429 l 1
274 1429 m 1
 186 995 l 1
 80 982 l 1
 101 1407 l 1
 274 1429 l 1
EndSplineSet
Validated: 1
EndChar

StartChar: numbersign
Encoding: 35 35 169
Width: 1135
Flags: W
HStem: 0 21G<144 291.268 461 609.268> 403 144<31 230 406 547 720 920> 889 143<134 335 509 650 824 1023>
LayerCount: 2
Fore
SplineSet
1053 1032 m 1
 1023 889 l 1
 793 889 l 1
 720 547 l 1
 949 547 l 1
 920 403 l 1
 691 403 l 1
 605 0 l 1
 461 0 l 1
 547 403 l 1
 373 403 l 1
 287 0 l 1
 144 0 l 1
 230 403 l 1
 0 403 l 1
 31 547 l 1
 261 547 l 1
 335 889 l 1
 105 889 l 1
 134 1032 l 1
 365 1032 l 1
 449 1435 l 1
 593 1435 l 1
 509 1032 l 1
 681 1032 l 1
 767 1435 l 1
 910 1435 l 1
 824 1032 l 1
 1053 1032 l 1
650 889 m 1
 478 889 l 1
 406 547 l 1
 576 547 l 1
 650 889 l 1
EndSplineSet
Validated: 1
EndChar

StartChar: dollar
Encoding: 36 36 170
Width: 1156
Flags: W
HStem: 650 248<415.691 525>
VStem: 71 236<995.414 1108.36> 513 78<126 607 898 1356 1450 1574> 521 88<-158 -8> 798 249<401.867 516.755>
LayerCount: 2
Fore
SplineSet
585 607 m 9xc8
 596 114 l 17
 720 132 798 230 798 380 c 9
 798 501 713 602 585 607 c 9xc8
513 1357 m 17xe8
 502 1357 492 1358 484 1358 c 0
 479 1358 475 1358 470 1357 c 1
 395 1350 307 1256 307 1133 c 0
 307 1123 308 1113 309 1103 c 1
 313 969 457 915 526 898 c 9
 513 1357 l 17xe8
71 934 m 1
 71 1196 322 1333 513 1428 c 9
 513 1574 l 25
 591 1626 l 25xe8
 589 1450 l 17
 633 1458 673 1462 709 1462 c 0
 874 1462 958 1384 981 1322 c 1
 944 1291 898 1267 841 1252 c 9
 841 1252 815 1220 763 1194 c 1
 714 1260 673 1338 593 1356 c 9
 597 858 l 17
 735 814 825 778 947 722 c 1
 998 678 1047 633 1047 548 c 0
 1047 544 1047 540 1047 536 c 1
 1041 352 787 126 609 26 c 9
 609 -158 l 25
 521 -214 l 25xd8
 529 -8 l 17
 492 -19 451 -25 408 -25 c 0
 234 -25 38 63 33 180 c 1
 33 207 39 213 45 218 c 9
 277 358 l 17
 333 185 430 154 527 126 c 9
 525 650 l 17
 400 699 286 711 149 792 c 1
 88 840 73 864 71 934 c 1
EndSplineSet
Validated: 1
EndChar

StartChar: percent
Encoding: 37 37 171
Width: 1886
Flags: W
HStem: 0 21G<388.673 479> 20 78<1208.5 1474.34> 520 78<236.5 502.342> 813 103<1283.04 1554.15> 1313 103<311.042 582.149>
VStem: 11 155<822.241 969.308> 665 140<837.807 1117.15> 983 155<322.241 469.308> 1637 140<337.807 617.153>
LayerCount: 2
Fore
SplineSet
1185 790 m 9x7f80
 1171 810 l 17
 1281 870 1341 916 1461 916 c 27
 1645 916 1777 750 1777 566 c 27
 1777 284 1583 20 1301 20 c 27
 1116 20 983 187 983 372 c 17
 983 375 983 378 983 381 c 0
 983 522 1076 590 1151 678 c 1
 1142 636 1138 594 1138 552 c 0
 1138 314 1272 98 1449 98 c 9
 1570 98 1637 225 1637 346 c 17
 1637 352 1637 359 1637 365 c 0
 1637 377 1637 389 1637 400 c 0
 1637 660 1487 813 1307 813 c 0
 1267 813 1226 805 1185 790 c 9x7f80
213 1290 m 9
 199 1310 l 17
 309 1370 369 1416 489 1416 c 27
 673 1416 805 1250 805 1066 c 27
 805 784 611 520 329 520 c 27
 144 520 11 687 11 872 c 17
 11 875 11 878 11 881 c 0
 11 1022 104 1090 179 1178 c 1
 170 1136 166 1094 166 1052 c 0
 166 814 300 598 477 598 c 9
 598 598 665 725 665 846 c 17
 665 852 665 859 665 865 c 0
 665 877 665 889 665 900 c 0
 665 1160 515 1313 335 1313 c 0
 295 1313 254 1305 213 1290 c 9
1313 1372 m 25
 1407 1394 l 25
 479 16 l 25
 375 0 l 25xbf80
 1313 1372 l 25
EndSplineSet
Validated: 1
EndChar

StartChar: ampersand
Encoding: 38 38 172
Width: 1598
Flags: W
HStem: 0 170<464.732 707.375> 668 143<370.646 926 1149 1333> 1236 101<467.499 665.828>
VStem: 49 215<203 536.5> 65 197<906.432 1044.53> 926 210<404.775 662 822 888>
LayerCount: 2
Fore
SplineSet
655 668 m 2xf4
 385 668 264 624 264 449 c 0
 264 272 503 170 656 170 c 2
 728 170 l 2
 844 184 926 217 926 330 c 2
 926 668 l 1
 655 668 l 2xf4
482 1236 m 0
 409 1236 262 1192 262 1037 c 0xec
 262 997 277 876 413 837 c 0
 496 813 539 811 688 811 c 2
 938 811 l 1
 938 888 l 1
 1149 1012 l 1
 1149 822 l 1
 1504 822 l 1
 1333 668 l 1
 1136 662 l 1
 1136 581 l 2
 1136 439 1081 354 896 189 c 0
 745 54 664 0 536 0 c 0
 401 0 49 91 49 315 c 0xf4
 49 418 136 507 263 599 c 2
 335 650 l 1
 251 693 l 2
 194 725 65 793 65 924 c 0xec
 65 1052 223 1167 356 1243 c 2
 480 1298 l 2
 558 1324 615 1337 682 1337 c 0
 697 1337 713 1336 729 1335 c 0
 914 1330 938 1239 938 1236 c 1
 745 1115 l 1
 681 1202 604 1236 482 1236 c 0
EndSplineSet
Validated: 1
EndChar

StartChar: quotesingle
Encoding: 39 39 173
Width: 394
Flags: W
HStem: 982 447
VStem: 80 194
LayerCount: 2
Fore
SplineSet
274 1429 m 1
 186 995 l 1
 80 982 l 1
 101 1407 l 1
 274 1429 l 1
EndSplineSet
Validated: 1
EndChar

StartChar: parenleft
Encoding: 40 40 174
Width: 609
Flags: W
VStem: 62 176<417.819 1018.63>
LayerCount: 2
Fore
SplineSet
428 1530 m 17
 287 1248 238 994 238 775 c 0
 238 370 406 83 475 -40 c 9
 298 -190 l 17
 127 84 62 369 62 635 c 0
 62 947 151 1234 258 1448 c 9
 428 1530 l 17
EndSplineSet
Validated: 1
EndChar

StartChar: parenright
Encoding: 41 41 175
Width: 506
Flags: W
VStem: 222 176<343.366 944.181>
LayerCount: 2
Fore
SplineSet
32 -168 m 17
 173 114 222 368 222 587 c 0
 222 992 54 1279 -15 1402 c 9
 162 1552 l 17
 333 1278 398 993 398 727 c 0
 398 415 309 128 202 -86 c 9
 32 -168 l 17
EndSplineSet
Validated: 1
EndChar

StartChar: asterisk
Encoding: 42 42 176
Width: 656
Flags: W
HStem: 513 165<18.2623 78.7812> 802 20G<208.839 303>
VStem: 151 163<650.81 793.727>
LayerCount: 2
Fore
SplineSet
242 574 m 1
 194 636 158 705 151 791 c 9
 314 822 l 17
 292 765 281 708 281 648 c 0
 281 626 282 602 286 579 c 1
 330 644 388 700 467 733 c 9
 547 587 l 17
 536 588 526 588 515 588 c 0
 443 588 373 573 308 539 c 1
 383 518 452 483 509 418 c 9
 395 297 l 17
 374 378 335 450 275 510 c 1
 275 505 275 501 275 496 c 0
 275 424 260 351 219 282 c 9
 68 353 l 17
 139 399 196 457 234 533 c 1
 185 516 134 504 80 504 c 0
 54 504 28 507 0 513 c 9
 20 678 l 17
 85 625 158 588 242 574 c 1
EndSplineSet
Validated: 1
EndChar

StartChar: plus
Encoding: 43 43 177
Width: 873
Flags: W
HStem: 522 117<-26 310 428 764>
VStem: 310 118<186 522 639 975>
LayerCount: 2
Fore
SplineSet
764 522 m 1
 428 522 l 1
 428 186 l 1
 310 186 l 1
 310 522 l 1
 -26 522 l 1
 -26 639 l 1
 310 639 l 1
 310 975 l 1
 428 975 l 1
 428 639 l 1
 764 639 l 1
 764 522 l 1
EndSplineSet
Validated: 1
EndChar

StartChar: comma
Encoding: 44 44 178
Width: 374
Flags: W
HStem: -118 409
VStem: 80 168<-2.5 127.759>
LayerCount: 2
Fore
SplineSet
23 -118 m 25
 0 -86 l 17
 32 -69 80 -31 80 26 c 0
 80 69 53 123 -26 188 c 1
 20 229 69 265 125 291 c 1
 188 253 248 206 248 120 c 1
 247 78 207 35 178 10 c 9
 23 -118 l 25
EndSplineSet
Validated: 1
EndChar

StartChar: hyphen
Encoding: 45 45 179
Width: 904
Flags: W
HStem: 522 117<57 847>
LayerCount: 2
Fore
SplineSet
57 522 m 1
 57 639 l 1
 847 639 l 1
 847 522 l 1
 57 522 l 1
EndSplineSet
Validated: 1
EndChar

StartChar: period
Encoding: 46 46 180
Width: 351
Flags: W
HStem: 4 271
VStem: -41 281
LayerCount: 2
Fore
SplineSet
119 275 m 17
 142 209 188 156 240 107 c 9
 85 4 l 17
 80 2 74 0 68 0 c 0
 40 0 6 18 -16 56 c 1
 -30 80 -41 101 -41 122 c 0
 -41 142 -28 162 0 186 c 9
 119 275 l 17
EndSplineSet
Validated: 1
EndChar

StartChar: slash
Encoding: 47 47 181
Width: 1276
Flags: W
LayerCount: 2
Fore
SplineSet
974 1452 m 25
 1142 1452 l 25
 98 -24 l 25
 -67 -24 l 25
 974 1452 l 25
EndSplineSet
Validated: 1
EndChar

StartChar: zero
Encoding: 48 48 182
Width: 1234
VWidth: 2368
Flags: W
HStem: -0 21G<393.5 601.5> 1181 173<501.5 828>
VStem: 94 246<481.634 707.646> 898 230<619.515 754.593>
LayerCount: 2
Fore
SplineSet
397 1120 m 9
 370 1154 l 17
 463 1268 562 1352 714 1354 c 1
 942 1343 1117 1037 1128 768 c 1
 1124 556 721 13 482 -0 c 1
 305 -0 133 245 94 487 c 1
 94 495 94 503 94 510 c 0
 94 775 302 927 411 1005 c 1
 356 887 340 838 340 726 c 17
 340 722 340 717 340 712 c 0
 340 469 476 227 671 227 c 0
 675 227 680 227 685 227 c 1
 801 231 890 366 898 496 c 1
 898 499 l 0
 898 751 721 1181 522 1181 c 0
 481 1181 438 1162 397 1120 c 9
EndSplineSet
Validated: 1
EndChar

StartChar: one
Encoding: 49 49 183
Width: 677
VWidth: 2366
Flags: W
HStem: 1103 250<150.5 492.5>
VStem: 264 262<198 1037.37>
LayerCount: 2
Fore
SplineSet
459 1353 m 1
 526 1353 516 1267 519 1194 c 9
 526 198 l 25
 264 28 l 25
 264 738 l 17
 262 860 240 1103 158 1103 c 0
 143 1103 126 1094 105 1074 c 9
 70 1095 l 17
 123 1153 375 1351 459 1353 c 1
EndSplineSet
Validated: 1
EndChar

StartChar: two
Encoding: 50 50 184
Width: 932
VWidth: 2365
Flags: W
HStem: 24 258<345.621 672.224> 61 212<344 655.656> 1178 192<266.5 574>
VStem: 542 227<822.436 1038.2>
LayerCount: 2
Fore
SplineSet
88 1156 m 17x70
 130 1224 320 1365 461 1370 c 1
 687 1363 769 1164 769 1011 c 0
 769 1009 769 1006 769 1004 c 1
 767 850 695 758 613 671 c 1
 504 519 344 273 344 273 c 25x70
 863 282 l 25
 661 24 l 17xb0
 547 45 432 61 312 61 c 0
 239 61 163 55 86 40 c 9
 31 96 l 17
 162 263 517 470 542 799 c 1
 542 807 542 815 542 825 c 0
 542 949 495 1096 419 1137 c 1
 383 1166 340 1178 298 1178 c 0
 235 1178 174 1155 132 1126 c 9
 88 1156 l 17x70
EndSplineSet
Validated: 1
EndChar

StartChar: three
Encoding: 51 51 185
Width: 887
VWidth: 2373
Flags: W
HStem: 1183 178<222.5 517.5>
VStem: 531 256<319.065 520.659>
LayerCount: 2
Fore
SplineSet
114 1138 m 9
 100 1160 l 17
 153 1192 313 1361 452 1361 c 3
 583 1361 707 1269 707 1138 c 17
 707 987 569 932 466 834 c 1
 659 783 787 671 787 487 c 17
 786 177 412 48 230 -71 c 9
 221 -54 l 17
 360 34 527 167 531 320 c 1
 531 329 531 337 531 345 c 0
 531 597 364 652 163 662 c 1
 232 716 422 745 452 960 c 1
 452 964 452 968 452 972 c 0
 452 1083 358 1183 244 1183 c 0
 201 1183 158 1169 114 1138 c 9
EndSplineSet
Validated: 1
EndChar

StartChar: four
Encoding: 52 52 186
Width: 1146
VWidth: 2365
Flags: W
HStem: 10 21G<607 635.442> 402 208<363.233 607>
VStem: 69 262<460.5 838> 607 219<164 402> 625 218<622 945>
LayerCount: 2
Fore
SplineSet
654 1390 m 9xf0
 672 1370 l 17
 545 1181 331 929 331 738 c 1
 331 610 463 610 625 610 c 9
 625 945 l 25
 843 1099 l 25
 843 622 l 25xe8
 1102 657 l 25
 947 442 l 25
 826 422 l 25
 826 164 l 25
 607 10 l 25
 607 402 l 25
 265 402 l 17
 163 402 69 415 69 506 c 1
 69 747 553 1282 654 1390 c 9xf0
EndSplineSet
Validated: 1
EndChar

StartChar: five
Encoding: 53 53 187
Width: 873
VWidth: 2374
Flags: W
HStem: 1073 249<379.019 712.078>
VStem: 450 227<250.5 525.756>
LayerCount: 2
Fore
SplineSet
399 1356 m 17
 489 1333 576 1322 664 1322 c 0
 734 1322 804 1329 874 1342 c 9
 874 1300 l 17
 789 1164 710 1073 551 1073 c 0
 485 1073 405 1088 305 1123 c 9
 275 981 l 17
 427 951 677 737 677 502 c 1
 677 226 383 48 167 -80 c 9
 141 -43 l 17
 215 19 450 178 450 323 c 1
 450 626 247 687 61 790 c 9
 399 1356 l 17
EndSplineSet
Validated: 1
EndChar

StartChar: six
Encoding: 54 54 188
Width: 1039
VWidth: 2367
Flags: W
HStem: 7 162<375.5 675>
VStem: 91 228<333.006 687.39> 762 214<264.5 579.5>
LayerCount: 2
Fore
SplineSet
673 1358 m 9
 686 1341 l 17
 547 1184 319 1005 319 675 c 1
 319 500 447 169 640 169 c 3
 710 169 762 228 762 301 c 1
 762 491 626 684 506 721 c 1
 572 788 638 861 746 861 c 3
 884 861 976 621 976 538 c 1
 976 282 600 7 462 7 c 1
 289 7 91 207 91 462 c 1
 91 904 608 1301 673 1358 c 9
EndSplineSet
Validated: 1
EndChar

StartChar: seven
Encoding: 55 55 189
Width: 861
VWidth: 2365
Flags: W
HStem: 1032 252<346.601 632>
LayerCount: 2
Fore
SplineSet
299 1361 m 17
 364 1301 466 1284 570 1284 c 0
 673 1284 778 1301 849 1310 c 9
 878 1281 l 17
 725 1018 450 571 450 178 c 9
 200 32 l 25
 632 1032 l 17
 601 1032 549 1032 489 1032 c 0
 336 1032 128 1044 54 1131 c 9
 299 1361 l 17
EndSplineSet
Validated: 1
EndChar

StartChar: eight
Encoding: 56 56 190
Width: 1047
VWidth: 2368
Flags: W
HStem: 4 153<261 538.5> 1186 171<536.5 809.5>
VStem: 76 241<151.5 458> 117 223<859 1117.5> 659 238<990 1262.8> 699 237<293.5 620.5>
LayerCount: 2
Fore
SplineSet
438 649 m 1xe4
 381 587 317 511 317 405 c 27
 317 285 376 157 496 157 c 3
 581 157 699 246 699 341 c 3
 699 498 553 625 438 649 c 1xe4
488 1172 m 1
 537 1279 681 1357 765 1357 c 1
 854 1357 897 1283 897 1203 c 1xd8
 897 1049 615 814 615 814 c 17
 733 763 936 706 936 535 c 1
 936 359 463 4 331 4 c 1
 191 4 76 89 76 214 c 1xe4
 76 451 293 530 406 671 c 1
 328 708 117 780 117 938 c 1
 117 1078 375 1271 437 1295 c 9
 446 1269 l 17
 370 1211 340 1148 340 1087 c 0
 340 963 469 851 596 836 c 1
 638 890 659 959 659 1021 c 0xd8
 659 1110 618 1186 545 1186 c 0
 528 1186 508 1181 488 1172 c 1
EndSplineSet
Validated: 1
EndChar

StartChar: nine
Encoding: 57 57 191
Width: 1093
VWidth: 2366
Flags: W
HStem: 12 21G<382.78 445.5> 518 144<248.5 536> 1210 158<384.5 703.5>
VStem: 91 212<838.926 1074.5> 746 231<531 913.897>
LayerCount: 2
Fore
SplineSet
598 688 m 1
 550 638 450 518 324 518 c 17
 173 518 91 721 91 851 c 1
 91 1075 447 1368 600 1368 c 3
 807 1368 977 1106 977 881 c 1
 977 475 497 79 394 12 c 9
 371 53 l 17
 502 174 746 412 746 650 c 3
 746 902 620 1210 427 1210 c 3
 342 1210 303 1117 303 1032 c 3
 303 912 389 662 524 662 c 0
 548 662 572 670 598 688 c 1
EndSplineSet
Validated: 1
EndChar

StartChar: colon
Encoding: 58 58 192
Width: 437
Flags: W
HStem: 0 21G<140 157>
VStem: 45 281
LayerCount: 2
Fore
SplineSet
205 275 m 17
 228 209 274 156 326 107 c 9
 171 4 l 17
 166 2 160 0 154 0 c 0
 126 0 92 18 70 56 c 1
 56 80 45 101 45 122 c 0
 45 142 56 162 84 186 c 9
 205 275 l 17
205 948 m 17
 228 882 274 829 326 780 c 9
 171 677 l 17
 166 675 160 673 154 673 c 0
 126 673 92 691 70 729 c 1
 56 753 45 774 45 795 c 0
 45 815 56 835 84 859 c 9
 205 948 l 17
EndSplineSet
Validated: 1
EndChar

StartChar: semicolon
Encoding: 59 59 193
Width: 475
Flags: W
VStem: 181 168<-9 121.427>
LayerCount: 2
Fore
SplineSet
199 949 m 17
 222 883 268 830 320 781 c 9
 165 678 l 17
 160 676 154 674 148 674 c 0
 120 674 86 692 64 730 c 1
 50 754 39 775 39 796 c 0
 39 816 50 836 78 860 c 9
 199 949 l 17
125 -124 m 25
 101 -92 l 17
 133 -76 181 -38 181 20 c 0
 181 62 155 116 75 182 c 1
 121 222 171 258 227 284 c 1
 289 246 349 200 349 114 c 1
 349 72 309 28 279 4 c 9
 125 -124 l 25
EndSplineSet
Validated: 1
EndChar

StartChar: less
Encoding: 60 60 194
Width: 1079
Flags: W
LayerCount: 2
Fore
SplineSet
945 22 m 1
 -42 452 l 1
 -42 584 l 1
 945 1015 l 1
 945 874 l 1
 124 518 l 1
 945 162 l 1
 945 22 l 1
EndSplineSet
Validated: 1
EndChar

StartChar: equal
Encoding: 61 61 195
Width: 1149
Flags: W
HStem: 226 146<53 1040> 664 147<53 1040>
LayerCount: 2
Fore
SplineSet
1040 664 m 1
 53 664 l 1
 53 811 l 1
 1040 811 l 1
 1040 664 l 1
1040 226 m 1
 53 226 l 1
 53 372 l 1
 1040 372 l 1
 1040 226 l 1
EndSplineSet
Validated: 1
EndChar

StartChar: greater
Encoding: 62 62 196
Width: 1134
Flags: W
LayerCount: 2
Fore
SplineSet
1025 452 m 1
 38 22 l 1
 38 162 l 1
 859 518 l 1
 38 874 l 1
 38 1015 l 1
 1025 584 l 1
 1025 452 l 1
EndSplineSet
Validated: 1
EndChar

StartChar: question
Encoding: 63 63 197
Width: 912
Flags: W
HStem: 0 21G<227 244> 1294 150<155.405 359.474>
VStem: 549 248<763.5 1077.22>
LayerCount: 2
Fore
SplineSet
-58 1216 m 17
 45 1334 159 1444 337 1444 c 27
 576 1444 797 1292 797 1040 c 1
 797 739 473 712 313 434 c 9
 275 470 l 17
 364 637 549 673 549 854 c 1
 549 1112 399 1294 215 1294 c 0
 138 1294 55 1263 -25 1192 c 9
 -58 1216 l 17
292 275 m 17
 315 209 361 156 413 107 c 9
 258 4 l 17
 253 2 247 0 241 0 c 0
 213 0 179 18 157 56 c 1
 143 80 132 101 132 122 c 0
 132 142 143 162 171 186 c 9
 292 275 l 17
EndSplineSet
Validated: 1
EndChar

StartChar: at
Encoding: 64 64 198
Width: 1595
Flags: W
HStem: 0 110<548.008 1083.64> 312 134<588.114 786.991 975 1177.05> 986 134<660.254 909.374> 1360 110<547.353 1058.66>
VStem: 32 135<485.606 974.765> 374 147<516.48 834.878> 970 67<515 784> 1392 110<643.899 1050.38>
LayerCount: 2
Fore
SplineSet
32 735 m 0
 32 1149 378 1470 798 1470 c 0
 1177 1470 1502 1277 1502 895 c 0
 1502 703 1445 559 1333 461 c 0
 1244 383 1129 312 992 312 c 0
 958 312 903 325 903 401 c 2
 903 465 l 1
 860 418 l 2
 815 369 738 312 659 312 c 0
 504 312 374 451 374 631 c 0
 374 903 557 1120 779 1120 c 0
 891 1120 951 1068 991 996 c 2
 1021 943 l 1
 1063 1093 l 1
 1173 1093 l 1
 1037 515 l 1
 1037 449 1084 434 1119 434 c 0
 1245 434 1392 580 1392 831 c 0
 1392 1168 1150 1360 796 1360 c 0
 390 1360 167 1078 167 731 c 0
 167 361 416 110 820 110 c 0
 1093 110 1234 221 1293 280 c 1
 1402 280 l 1
 1279 112 1084 0 808 0 c 0
 603 0 412 59 253 210 c 0
 105 350 32 524 32 735 c 0
521 657 m 0
 521 545 586 446 706 446 c 0
 873 446 970 637 970 784 c 0
 970 900 900 986 796 986 c 0
 636 986 521 829 521 657 c 0
EndSplineSet
Validated: 1
EndChar

StartChar: A
Encoding: 65 65 199
Width: 1443
Flags: W
HStem: 0 157<1058 1298> 370 114<288.878 779.069>
LayerCount: 2
Fore
SplineSet
554 484 m 0
 624 484 699 485 783 500 c 9
 529 1140 l 25
 285 496 l 17
 368 485 433 484 499 484 c 0
 509 484 545 484 554 484 c 0
677 1420 m 25
 715 1396 l 17
 802 997 1160 157 1292 157 c 0
 1304 157 1314 165 1322 180 c 9
 1335 150 l 17
 1259 68 1171 0 1091 0 c 1
 1025 0 873 300 835 370 c 9
 243 370 l 17
 217 286 191 200 191 132 c 9
 -61 12 l 17
 150 421 317 854 461 1300 c 9
 677 1420 l 25
EndSplineSet
Validated: 1
EndChar

StartChar: B
Encoding: 66 66 200
Width: 1229
Flags: W
HStem: 0 168<452.984 743> 1254 166<371 620.43>
VStem: 188 183<234.969 1222.08> 803 207<968.469 1108.09> 905 215<305 518.193>
LayerCount: 2
Fore
SplineSet
371 1254 m 9xf0
 371 246 l 17
 494 189 576 168 710 168 c 1
 776 168 905 259 905 351 c 1xe8
 905 603 668 693 491 735 c 1
 556 742 797 833 797 981 c 1
 801 990 803 1001 803 1013 c 0
 803 1102 687 1254 371 1254 c 9xf0
1120 507 m 1
 1120 291 689 0 521 0 c 1
 390 0 266 27 143 72 c 1
 172 289 188 507 188 728 c 0
 188 894 179 1061 158 1230 c 1
 94 1230 36 1215 -28 1203 c 9
 131 1386 l 17
 142 1390 271 1420 362 1420 c 27
 645 1420 1010 1378 1010 1095 c 27xf0
 1010 953 869 873 791 804 c 1
 991 767 1120 717 1120 507 c 1
EndSplineSet
Validated: 1
EndChar

StartChar: C
Encoding: 67 67 201
Width: 1128
Flags: W
HStem: 0 198<547.52 792.778> 1280 140<544.393 699.732>
VStem: 32 220<607.588 1020>
LayerCount: 2
Fore
SplineSet
1021 300 m 9
 1031 258 l 17
 960 150 807 0 616 0 c 27
 268 0 32 332 32 676 c 1
 32 1057 395 1420 767 1420 c 1
 783 1420 799 1420 814 1420 c 0
 885 1420 954 1405 992 1346 c 1
 994 1344 994 1341 994 1338 c 0
 994 1300 853 1221 788 1174 c 1
 718 1229 653 1280 512 1280 c 1
 351 1280 252 1086 252 954 c 1
 252 522 426 198 716 198 c 0
 807 198 909 230 1021 300 c 9
EndSplineSet
Validated: 1
EndChar

StartChar: D
Encoding: 68 68 202
Width: 1354
Flags: W
HStem: 0 188<470.565 841> 1248 164<147 175 385 642.76>
VStem: 175 210<253.939 1240> 1055 200<459 855.802>
LayerCount: 2
Fore
SplineSet
385 1240 m 9
 385 280 l 17
 493 203 603 188 745 188 c 1
 937 188 1055 366 1055 552 c 27
 1055 927 909 1240 385 1240 c 9
-47 1248 m 25
 147 1412 l 25
 258 1412 320 1420 431 1420 c 27
 847 1420 1255 1218 1255 742 c 3
 1255 410 759 0 533 0 c 3
 385 0 320 44 175 72 c 25
 175 1248 l 25
 -47 1248 l 25
EndSplineSet
Validated: 1
EndChar

StartChar: E
Encoding: 69 69 203
Width: 1210
Flags: W
HStem: 12 170<421.631 926> 644 194<424 678.023> 1226 178<427.562 881.668> 1242 178<525.42 650.345 655.969 842.207>
VStem: 226 190<166 644 838 1242>
LayerCount: 2
Fore
SplineSet
226 1420 m 17xd8
 332 1408 428 1404 517 1404 c 0xe8
 697 1404 853 1420 1022 1420 c 1xd8
 964 1348 886 1234 782 1234 c 1
 739 1228 696 1226 654 1226 c 0xe8
 576 1226 500 1234 424 1242 c 9
 424 838 l 25
 898 838 l 17
 796 692 822 644 416 644 c 9
 416 166 l 17
 536 179 664 182 785 182 c 0
 1102 182 l 9
 926 0 l 17
 771 0 620 12 468 12 c 0
 392 12 304 9 226 0 c 9
 226 650 l 25
 34 650 l 17
 108 705 181 762 234 838 c 9
 234 1260 l 25
 36 1260 l 25
 226 1420 l 17xd8
EndSplineSet
Validated: 1
EndChar

StartChar: F
Encoding: 70 70 204
Width: 1174
Flags: W
HStem: 634 192<432 747.894>
VStem: 230 197<134 634 826 1216>
LayerCount: 2
Fore
SplineSet
222 1420 m 17
 296 1414 370 1412 444 1412 c 0
 643 1412 841 1428 1040 1432 c 1
 1014 1388 870 1230 728 1226 c 9
 438 1216 l 17
 430 1144 427 1086 427 1033 c 0
 427 960 432 898 432 826 c 1
 486 825 541 824 595 824 c 0
 906 848 l 1
 868 785 743 634 634 634 c 0
 633 634 631 634 630 634 c 9
 428 634 l 25
 440 134 l 25
 230 -16 l 25
 234 656 l 25
 42 658 l 25
 230 822 l 25
 230 1242 l 25
 22 1242 l 25
 222 1420 l 17
EndSplineSet
Validated: 1
EndChar

StartChar: G
Encoding: 71 71 205
Width: 1331
Flags: W
HStem: 0 132<625.186 812.3> 796 20G<1018 1106.5> 1322 98<551.213 870.5>
VStem: 29 237<620.369 1042.5> 1028 194<382.739 576.125>
LayerCount: 2
Fore
SplineSet
266 915 m 1
 269 501 503 132 794 132 c 0
 800 132 806 132 812 132 c 1
 813 132 814 132 815 132 c 1
 917 133 1016 183 1028 357 c 1
 1028 360 1028 364 1028 367 c 0
 1028 530 955 663 896 663 c 1
 836 662 788 615 761 582 c 9
 728 606 l 17
 784 660 864 731 923 777 c 1
 944 801 992 816 1044 816 c 0
 1046 816 1047 816 1049 816 c 1
 1164 816 1222 709 1222 593 c 0
 1222 589 1222 584 1222 579 c 1
 1222 357 1025 0 563 0 c 1
 562 0 560 0 559 0 c 0
 336 0 29 320 29 654 c 1
 35 960 278 1420 824 1420 c 9
 917 1420 1049 1400 1049 1342 c 1
 1049 1300 881 1186 842 1186 c 1
 784 1267 725 1322 616 1322 c 0
 600 1322 582 1321 563 1318 c 0
 370 1291 281 1170 266 915 c 1
EndSplineSet
Validated: 1
EndChar

StartChar: H
Encoding: 72 72 206
Width: 1444
Flags: W
HStem: 0 21G<119.5 143 1002 1027.5> 620 148<310 949.955>
VStem: 90 216<280.589 610.812 774 1290> 104 202<206.048 610.812> 966 214<478.605 610.812 784 1290>
LayerCount: 2
Fore
SplineSet
308 608 m 1xd8
 307 578 306 469 306 417 c 0xe8
 306 334 310 247 330 204 c 1
 339 188 348 179 358 179 c 0
 366 179 374 185 382 198 c 9
 396 166 l 17
 328 133 256 81 178 20 c 1
 163 10 154 0 132 0 c 1
 107 0 108 91 104 155 c 1xd8
 87 815 l 1
 87 973 89 1132 90 1290 c 9xe8
 306 1430 l 25
 310 774 l 17
 398 770 486 768 576 768 c 0
 700 768 827 772 956 784 c 9
 966 1290 l 25
 1170 1448 l 25
 1180 784 l 25
 1350 786 l 25
 1180 628 l 17
 1180 607 1181 585 1181 561 c 0
 1181 527 1180 490 1180 454 c 0
 1180 326 1191 194 1226 194 c 0
 1237 194 1273 221 1290 236 c 9
 1310 204 l 17
 1245 149 1045 6 1010 0 c 1
 1008 0 l 0
 996 0 985 19 985 41 c 1
 966 608 l 1
 854 616 743 620 631 620 c 0
 523 620 416 616 308 608 c 1xd8
EndSplineSet
Validated: 1
EndChar

StartChar: I
Encoding: 73 73 207
Width: 512
Flags: W
HStem: 0 21G<164 194>
VStem: 164 225<150 473.369 529.065 1196.67> 173 216<150 1038.02>
LayerCount: 2
Fore
SplineSet
153 1090 m 1xa0
 137 1194 120 1211 79 1211 c 0
 52 1211 21 1199 -6 1183 c 9
 -30 1211 l 25
 281 1398 l 17
 300 1414 316 1423 330 1423 c 0
 352 1423 377 1395 377 1344 c 9
 389 150 l 25
 164 0 l 17xc0
 164 168 173 297 173 482 c 0
 173 612 167 871 153 1090 c 1xa0
EndSplineSet
Validated: 1
EndChar

StartChar: J
Encoding: 74 74 208
Width: 522
Flags: W
VStem: 181 192<-46.7412 1014.03>
LayerCount: 2
Fore
SplineSet
377 1344 m 0
 377 1111 373 670 373 435 c 0
 373 257 377 71 391 -138 c 9
 46 -438 l 17
 46 -417 46 -393 47 -366 c 1
 197 -189 176 175 181 482 c 1
 181 612 169 868 155 1087 c 1
 145 1176 122 1208 81 1208 c 0
 54 1208 23 1196 -4 1180 c 9
 -28 1208 l 25
 283 1395 l 17
 302 1411 319 1415 332 1420 c 0
 334 1421 337 1423 339 1423 c 0
 359 1423 377 1390 377 1344 c 0
EndSplineSet
Validated: 1
EndChar

StartChar: K
Encoding: 75 75 209
Width: 1239
Flags: W
HStem: 10 21G<158.5 186.121>
VStem: 168 198<142 1018.68> 729 240<1115 1318.5>
LayerCount: 2
Fore
SplineSet
601 1298 m 9
 783 1416 l 17
 862 1398 969 1363 969 1274 c 1
 967 1224 713 1056 561 852 c 1
 711 624 840 388 1031 174 c 1
 1050 156 1070 141 1097 141 c 0
 1107 141 1118 143 1131 148 c 1
 1061 74 991 42 921 -12 c 1
 911 -20 901 -23 892 -23 c 0
 867 -23 843 1 817 42 c 9
 389 744 l 25
 685 1040 l 17
 716 1071 729 1101 729 1129 c 0
 729 1202 647 1262 601 1298 c 9
-24 1210 m 17
 78 1294 184 1363 296 1411 c 1
 300 1413 303 1413 307 1413 c 0
 339 1413 354 1323 356 1298 c 9
 366 142 l 25
 154 10 l 17
 163 161 168 317 168 485 c 0
 168 664 162 856 146 1068 c 1
 140 1125 109 1206 53 1206 c 0
 38 1206 19 1200 0 1186 c 9
 -24 1210 l 17
EndSplineSet
Validated: 1
EndChar

StartChar: L
Encoding: 76 76 210
Width: 1109
Flags: W
HStem: 5 162<385.652 843>
VStem: 176 202<633.67 1177.51> 210 174<167.544 463.33>
LayerCount: 2
Fore
SplineSet
176 1092 m 1xc0
 162 1175 101 1208 60 1208 c 0
 33 1208 2 1196 -25 1180 c 9
 -49 1208 l 25
 262 1395 l 17
 281 1411 297 1420 311 1420 c 0
 333 1420 378 1387 378 1336 c 1xc0
 384 180 l 1
 420 175 407 167 442 167 c 0
 578 167 790 180 925 180 c 0
 950 180 976 179 1001 177 c 9
 843 0 l 25
 210 5 l 17xa0
 176 1092 l 1xc0
EndSplineSet
Validated: 1
EndChar

StartChar: M
Encoding: 77 77 211
Width: 2020
Flags: W
HStem: 0 21G<69.5 82.7143 1631.5 1716.36> 168 276<917.461 1203>
LayerCount: 2
Fore
SplineSet
1459 1248 m 9
 1771 1434 l 25
 1660 1146 l 17
 1680 752 1789 435 1912 168 c 9
 1894 141 l 25
 1687 0 l 17
 1576 226 1536 540 1477 810 c 1
 1345 582 1152 168 940 168 c 3
 793 168 574 462 379 714 c 1
 346 535 311 315 310 168 c 9
 52 0 l 17
 87 280 164 631 235 934 c 9
 94 1212 l 17
 84 1226 79 1240 79 1253 c 0
 79 1278 97 1300 124 1317 c 9
 295 1407 l 17
 398 1089 760 447 1060 444 c 1
 1346 453 1460 1012 1460 1225 c 0
 1460 1233 1459 1241 1459 1248 c 9
EndSplineSet
Validated: 1
EndChar

StartChar: N
Encoding: 78 78 212
Width: 1505
Flags: W
HStem: 0 21G<199.796 234 1051 1180.46> 1264 156<24.5 284>
VStem: 243 162<745.645 907.255> 1168 169<484 677.503>
LayerCount: 2
Fore
SplineSet
-61 1258 m 17
 -22 1290 161 1420 217 1420 c 1
 351 1420 819 903 1163 484 c 1
 1164 590 1168 697 1168 803 c 0
 1168 956 1160 1107 1123 1252 c 9
 1371 1423 l 17
 1337 134 l 9
 1153 0 l 17
 949 382 697 665 429 914 c 1
 412 770 405 633 405 502 c 0
 405 382 411 267 423 156 c 1
 342 120 269 64 199 0 c 9
 243 1106 l 17
 205 1132 79 1264 41 1264 c 3
 8 1264 -10 1260 -39 1238 c 9
 -61 1258 l 17
EndSplineSet
Validated: 1
EndChar

